<svg xmlns="http://www.w3.org/2000/svg" xmlns:xlink="http://www.w3.org/1999/xlink" width="139" zoomAndPan="magnify" viewBox="0 0 104.25 78.749998" height="105" preserveAspectRatio="xMidYMid meet" version="1.0"><defs><g/><clipPath id="18ed871572"><path d="M 3 1.015625 L 102 1.015625 L 102 78 L 3 78 Z M 3 1.015625 " clip-rule="nonzero"/></clipPath><clipPath id="55202d59cc"><path d="M 3 1.015625 L 102.757812 1.015625 L 102.757812 78.34375 L 3 78.34375 Z M 3 1.015625 " clip-rule="nonzero"/></clipPath></defs><g clip-path="url(#18ed871572)"><path fill="#fef7ec" d="M 100.273438 16.753906 C 99.597656 15.003906 98.671875 13.402344 97.414062 12.058594 C 94.167969 8.589844 88.703125 6.28125 84.210938 5.011719 C 77.253906 3.042969 69.878906 2.152344 62.667969 1.917969 C 53.683594 1.625 44.648438 2.207031 35.789062 3.75 C 26.972656 5.289062 17.636719 7.621094 10.878906 13.878906 C 2.300781 21.828125 2.707031 34.847656 6.347656 45.238281 C 8.527344 51.449219 12.265625 56.917969 17.792969 60.574219 C 20.398438 62.292969 23.28125 63.484375 26.277344 64.3125 C 27.933594 68.203125 28.226562 72.335938 24.273438 74.519531 C 22.9375 75.257812 23.480469 77.585938 25.074219 77.472656 C 32.972656 76.90625 39.792969 72.359375 44.546875 66.152344 C 44.867188 65.738281 48.582031 65.921875 49.230469 65.867188 C 50.949219 65.71875 52.664062 65.519531 54.371094 65.292969 C 61.609375 64.316406 68.816406 63.789062 75.980469 62.242188 C 83.175781 60.683594 90.867188 58.429688 95.207031 52.007812 C 99.027344 46.355469 101.230469 39.101562 101.726562 32.363281 C 102.074219 27.589844 102.140625 21.605469 100.273438 16.753906 " fill-opacity="1" fill-rule="nonzero"/></g><g clip-path="url(#55202d59cc)"><path fill="#ffeac7" d="M 100.273438 16.753906 L 101.054688 16.453125 C 100.351562 14.625 99.371094 12.921875 98.027344 11.484375 C 96.304688 9.648438 94.046875 8.164062 91.65625 6.960938 C 89.261719 5.757812 86.726562 4.847656 84.4375 4.203125 C 77.398438 2.210938 69.957031 1.316406 62.695312 1.078125 C 61.195312 1.03125 59.691406 1.007812 58.191406 1.007812 C 50.640625 1.007812 43.085938 1.628906 35.644531 2.925781 C 31.214844 3.695312 26.628906 4.671875 22.273438 6.257812 C 17.921875 7.839844 13.789062 10.039062 10.308594 13.261719 C 7.683594 15.695312 5.863281 18.589844 4.707031 21.71875 C 3.554688 24.847656 3.058594 28.207031 3.058594 31.597656 C 3.058594 36.347656 4.027344 41.160156 5.558594 45.515625 C 6.667969 48.691406 8.183594 51.683594 10.136719 54.359375 C 12.085938 57.035156 14.476562 59.386719 17.332031 61.273438 C 20.027344 63.054688 22.992188 64.273438 26.050781 65.121094 L 26.277344 64.3125 L 25.503906 64.644531 C 26.175781 66.207031 26.589844 67.792969 26.589844 69.1875 C 26.589844 70.148438 26.398438 71.015625 25.976562 71.777344 C 25.550781 72.535156 24.894531 73.214844 23.867188 73.785156 C 23.464844 74.003906 23.152344 74.339844 22.960938 74.707031 C 22.765625 75.074219 22.679688 75.476562 22.679688 75.863281 C 22.679688 76.453125 22.867188 77.03125 23.25 77.503906 C 23.441406 77.734375 23.6875 77.941406 23.980469 78.089844 C 24.269531 78.234375 24.609375 78.316406 24.960938 78.316406 C 25.019531 78.316406 25.074219 78.3125 25.125 78.308594 L 25.132812 78.308594 C 29.226562 78.015625 33.039062 76.691406 36.421875 74.644531 C 39.8125 72.601562 42.777344 69.839844 45.214844 66.660156 L 44.707031 66.269531 L 45.0625 66.808594 C 45.097656 66.78125 45.152344 66.742188 45.214844 66.660156 L 44.707031 66.269531 L 45.0625 66.808594 L 44.839844 66.472656 L 45 66.839844 C 45.007812 66.835938 45.027344 66.828125 45.0625 66.808594 L 44.839844 66.472656 L 45 66.839844 L 44.960938 66.746094 L 44.996094 66.84375 L 45 66.839844 L 44.960938 66.746094 L 44.996094 66.84375 C 45 66.839844 45.109375 66.808594 45.261719 66.792969 C 45.492188 66.761719 45.820312 66.738281 46.179688 66.726562 C 46.539062 66.714844 46.9375 66.710938 47.324219 66.710938 C 47.835938 66.710938 48.328125 66.714844 48.707031 66.714844 C 48.828125 66.714844 48.9375 66.714844 49.035156 66.714844 C 49.132812 66.710938 49.214844 66.707031 49.296875 66.703125 L 49.304688 66.703125 C 51.035156 66.550781 52.765625 66.355469 54.484375 66.125 C 61.6875 65.152344 68.917969 64.625 76.15625 63.0625 C 79.777344 62.277344 83.554688 61.3125 87.015625 59.707031 C 88.746094 58.90625 90.398438 57.941406 91.902344 56.753906 C 93.40625 55.566406 94.765625 54.160156 95.902344 52.476562 C 99.824219 46.671875 102.054688 39.296875 102.5625 32.421875 C 102.675781 30.882812 102.757812 29.214844 102.757812 27.492188 C 102.757812 23.820312 102.382812 19.90625 101.058594 16.453125 L 99.488281 17.058594 C 100.707031 20.203125 101.082031 23.9375 101.078125 27.492188 C 101.078125 29.160156 101 30.789062 100.886719 32.300781 C 100.40625 38.902344 98.234375 46.039062 94.511719 51.535156 C 93.480469 53.066406 92.246094 54.347656 90.863281 55.4375 C 88.789062 57.070312 86.371094 58.28125 83.792969 59.222656 C 81.214844 60.164062 78.484375 60.839844 75.800781 61.421875 C 68.714844 62.953125 61.53125 63.480469 54.261719 64.460938 C 52.5625 64.6875 50.863281 64.882812 49.160156 65.03125 L 49.164062 65.027344 C 49.140625 65.03125 49.082031 65.03125 49 65.035156 C 48.921875 65.035156 48.820312 65.039062 48.707031 65.039062 C 48.347656 65.039062 47.847656 65.03125 47.324219 65.03125 C 46.703125 65.03125 46.042969 65.039062 45.484375 65.082031 C 45.203125 65.105469 44.949219 65.132812 44.710938 65.183594 C 44.589844 65.210938 44.472656 65.242188 44.34375 65.296875 C 44.28125 65.324219 44.210938 65.359375 44.132812 65.40625 C 44.054688 65.460938 43.96875 65.527344 43.882812 65.640625 C 41.5625 68.667969 38.742188 71.285156 35.558594 73.207031 C 32.371094 75.132812 28.820312 76.363281 25.015625 76.632812 L 25.074219 77.472656 L 25.023438 76.632812 C 24.996094 76.636719 24.976562 76.636719 24.960938 76.636719 C 24.859375 76.636719 24.789062 76.617188 24.726562 76.585938 C 24.632812 76.539062 24.542969 76.453125 24.472656 76.324219 C 24.402344 76.195312 24.355469 76.027344 24.355469 75.863281 C 24.355469 75.722656 24.390625 75.589844 24.445312 75.492188 C 24.5 75.390625 24.566406 75.320312 24.679688 75.253906 C 25.941406 74.558594 26.863281 73.644531 27.445312 72.589844 C 28.027344 71.539062 28.269531 70.371094 28.269531 69.1875 C 28.265625 67.464844 27.773438 65.691406 27.050781 63.984375 C 26.949219 63.75 26.746094 63.574219 26.503906 63.503906 C 23.570312 62.691406 20.769531 61.535156 18.257812 59.875 C 15.582031 58.105469 13.335938 55.894531 11.492188 53.371094 C 9.648438 50.84375 8.207031 47.996094 7.140625 44.960938 C 5.667969 40.757812 4.734375 36.117188 4.734375 31.597656 C 4.734375 28.371094 5.210938 25.207031 6.285156 22.300781 C 7.359375 19.390625 9.03125 16.738281 11.449219 14.496094 C 14.722656 11.460938 18.640625 9.367188 22.847656 7.835938 C 27.054688 6.304688 31.546875 5.34375 35.933594 4.578125 C 43.273438 3.300781 50.734375 2.683594 58.191406 2.683594 C 59.675781 2.683594 61.15625 2.707031 62.640625 2.757812 C 69.800781 2.992188 77.113281 3.875 83.980469 5.816406 C 86.183594 6.441406 88.628906 7.320312 90.902344 8.460938 C 93.175781 9.601562 95.277344 11.003906 96.800781 12.632812 C 97.972656 13.882812 98.847656 15.386719 99.488281 17.058594 L 100.273438 16.753906 " fill-opacity="1" fill-rule="nonzero"/></g><path fill="#fef7ec" d="M 77.117188 7.449219 C 78.261719 7.363281 79.230469 7.539062 80.289062 8.066406 " fill-opacity="1" fill-rule="nonzero"/><path fill="#ffeac7" d="M 77.183594 8.285156 C 77.351562 8.273438 77.507812 8.265625 77.664062 8.265625 C 78.460938 8.269531 79.121094 8.425781 79.914062 8.816406 C 80.328125 9.023438 80.832031 8.855469 81.039062 8.441406 C 81.246094 8.027344 81.078125 7.523438 80.664062 7.316406 C 79.683594 6.820312 78.699219 6.585938 77.664062 6.589844 C 77.460938 6.589844 77.257812 6.597656 77.054688 6.613281 C 76.589844 6.648438 76.246094 7.050781 76.28125 7.515625 C 76.316406 7.976562 76.722656 8.324219 77.183594 8.285156 " fill-opacity="1" fill-rule="nonzero"/><path fill="#fef7ec" d="M 81.695312 8.945312 C 88.390625 10.089844 94.199219 15.285156 96.3125 21.714844 " fill-opacity="1" fill-rule="nonzero"/><path fill="#ffeac7" d="M 81.554688 9.773438 C 84.730469 10.316406 87.722656 11.828125 90.167969 13.980469 C 92.613281 16.128906 94.511719 18.914062 95.515625 21.976562 C 95.660156 22.417969 96.136719 22.65625 96.578125 22.511719 C 97.015625 22.367188 97.257812 21.894531 97.113281 21.453125 C 96.003906 18.085938 93.9375 15.058594 91.277344 12.71875 C 88.617188 10.378906 85.355469 8.722656 81.839844 8.121094 C 81.382812 8.039062 80.949219 8.347656 80.871094 8.804688 C 80.792969 9.261719 81.097656 9.695312 81.554688 9.773438 " fill-opacity="1" fill-rule="nonzero"/><path fill="#ffeac7" d="M 96.265625 23.738281 C 96.265625 24.09375 96.265625 24.355469 96.265625 24.621094 C 96.265625 25.082031 96.644531 25.460938 97.105469 25.460938 C 97.570312 25.460938 97.945312 25.082031 97.945312 24.621094 C 97.945312 24.355469 97.945312 24.09375 97.945312 23.738281 C 97.945312 23.277344 97.570312 22.898438 97.105469 22.898438 C 96.644531 22.898438 96.265625 23.277344 96.265625 23.738281 " fill-opacity="1" fill-rule="nonzero"/><path fill="#fef7ec" d="M 53.695312 61.777344 C 54.664062 61.777344 55.546875 61.601562 56.515625 61.515625 " fill-opacity="1" fill-rule="nonzero"/><path fill="#ffeac7" d="M 53.695312 62.617188 C 54.230469 62.617188 54.730469 62.570312 55.203125 62.511719 C 55.679688 62.457031 56.132812 62.390625 56.589844 62.351562 C 57.050781 62.308594 57.390625 61.902344 57.351562 61.4375 C 57.308594 60.976562 56.898438 60.636719 56.4375 60.679688 C 55.925781 60.726562 55.453125 60.792969 55.003906 60.847656 C 54.554688 60.898438 54.128906 60.9375 53.695312 60.9375 C 53.234375 60.9375 52.855469 61.316406 52.855469 61.777344 C 52.855469 62.242188 53.234375 62.617188 53.695312 62.617188 " fill-opacity="1" fill-rule="nonzero"/><path fill="#fef7ec" d="M 60.210938 61.164062 C 62.148438 60.722656 64.175781 60.808594 66.113281 60.546875 C 69.898438 60.195312 73.683594 59.402344 77.292969 57.992188 " fill-opacity="1" fill-rule="nonzero"/><path fill="#ffeac7" d="M 60.398438 61.980469 C 61.292969 61.777344 62.238281 61.691406 63.21875 61.625 C 64.195312 61.558594 65.207031 61.515625 66.226562 61.378906 L 66.113281 60.546875 L 66.191406 61.382812 C 70.039062 61.023438 73.902344 60.21875 77.601562 58.773438 C 78.03125 58.605469 78.246094 58.121094 78.078125 57.6875 C 77.910156 57.253906 77.421875 57.042969 76.988281 57.210938 C 73.464844 58.585938 69.757812 59.363281 66.035156 59.710938 L 66 59.714844 C 65.082031 59.839844 64.109375 59.882812 63.105469 59.953125 C 62.105469 60.019531 61.070312 60.109375 60.027344 60.34375 C 59.574219 60.445312 59.289062 60.898438 59.394531 61.347656 C 59.496094 61.800781 59.945312 62.082031 60.398438 61.980469 " fill-opacity="1" fill-rule="nonzero"/><path fill="#fef7ec" d="M 29.859375 56.484375 L 29.070312 43.660156 C 28.921875 41.191406 26.953125 39.222656 24.484375 39.074219 C 22.015625 38.925781 20.046875 36.960938 19.894531 34.492188 L 19.019531 20.175781 C 18.804688 16.648438 21.488281 13.613281 25.015625 13.398438 L 71.542969 10.546875 C 75.070312 10.332031 78.105469 13.015625 78.320312 16.542969 L 79.199219 30.855469 C 79.351562 33.324219 77.636719 35.519531 75.203125 35.96875 C 72.773438 36.417969 71.058594 38.609375 71.210938 41.078125 L 71.996094 53.902344 C 72.214844 57.429688 69.527344 60.464844 66 60.679688 L 36.636719 62.480469 C 33.109375 62.695312 30.074219 60.011719 29.859375 56.484375 Z M 29.859375 56.484375 " fill-opacity="1" fill-rule="nonzero"/><g fill="#f4b349" fill-opacity="1"><g transform="translate(26.714574, 31.291526)"><g><path d="M 7.484375 -4.671875 C 5.8125 -4.109375 2.84375 -3.75 3.15625 -6.4375 C 3.359375 -8.25 4.9375 -9.8125 6.78125 -9.78125 C 8.46875 -9.734375 8.3125 -12.359375 6.625 -12.40625 C 3.28125 -12.46875 0.46875 -9.25 0.515625 -5.96875 C 0.515625 -4.296875 1.40625 -2.828125 2.9375 -2.078125 C 4.640625 -1.21875 6.609375 -1.59375 8.34375 -2.203125 C 9.953125 -2.78125 9.125 -5.234375 7.484375 -4.671875 Z M 7.484375 -4.671875 "/></g></g></g><g fill="#f4b349" fill-opacity="1"><g transform="translate(36.983741, 30.662195)"><g><path d="M 7.34375 -6.109375 C 5.96875 -5.921875 4.640625 -5.65625 3.34375 -5.265625 C 3.453125 -7.453125 3.515625 -9.609375 3.59375 -11.78125 C 3.640625 -13.453125 1.03125 -13.265625 0.984375 -11.625 C 0.890625 -8.875 0.765625 -6.125 0.671875 -3.390625 C 0.625 -2.53125 1.671875 -1.96875 2.40625 -2.234375 C 4.0625 -2.84375 5.765625 -3.25 7.5 -3.5 C 9.171875 -3.734375 9.015625 -6.34375 7.34375 -6.109375 Z M 7.34375 -6.109375 "/></g></g></g><g fill="#f4b349" fill-opacity="1"><g transform="translate(46.816303, 30.05962)"><g><path d="M 1 -10.84375 C 0.84375 -7.671875 0.78125 -4.484375 0.796875 -1.3125 C 0.796875 0.375 3.421875 0.21875 3.421875 -1.484375 C 3.40625 -4.640625 3.46875 -7.828125 3.609375 -11.015625 C 3.6875 -12.6875 1.078125 -12.515625 1 -10.84375 Z M 1 -10.84375 "/></g></g></g><g fill="#f4b349" fill-opacity="1"><g transform="translate(51.985815, 29.742814)"><g><path d="M 7.5 -4.65625 C 5.828125 -4.078125 2.84375 -3.734375 3.15625 -6.390625 C 3.359375 -8.21875 4.9375 -9.796875 6.796875 -9.75 C 8.46875 -9.71875 8.3125 -12.34375 6.625 -12.375 C 3.28125 -12.4375 0.46875 -9.21875 0.515625 -5.953125 C 0.515625 -4.28125 1.40625 -2.78125 2.9375 -2.0625 C 4.640625 -1.1875 6.609375 -1.578125 8.359375 -2.171875 C 9.953125 -2.75 9.125 -5.21875 7.5 -4.65625 Z M 7.5 -4.65625 "/></g></g></g><g fill="#f4b349" fill-opacity="1"><g transform="translate(62.254982, 29.113483)"><g><path d="M 8.046875 -11.546875 C 8.8125 -13.0625 6.453125 -14.234375 5.703125 -12.734375 C 5.203125 -11.734375 4.5 -10.203125 3.53125 -9.546875 C 3.5 -10.671875 3.46875 -11.796875 3.390625 -12.921875 C 3.3125 -14.625 0.703125 -14.46875 0.78125 -12.765625 C 0.96875 -9.4375 0.953125 -6.078125 0.71875 -2.765625 C 0.65625 -2.046875 0.96875 -1.375 1.734375 -1.1875 C 2.359375 -1.046875 3.25 -1.515625 3.28125 -2.21875 C 3.40625 -3.6875 3.484375 -5.15625 3.515625 -6.625 C 4.453125 -5.84375 5.109375 -4.703125 5.296875 -3.515625 C 5.546875 -1.828125 8.171875 -1.96875 7.921875 -3.671875 C 7.65625 -5.390625 6.90625 -6.890625 5.75 -8.078125 C 6.71875 -9.046875 7.421875 -10.328125 8.046875 -11.546875 Z M 8.046875 -11.546875 "/></g></g></g><g fill="#f4b349" fill-opacity="1"><g transform="translate(36.770895, 54.824935)"><g><path d="M 12.65625 -7 C 12.53125 -8.515625 12.21875 -10.375 10.953125 -11.375 C 9.53125 -12.46875 8.25 -11.765625 7.3125 -10.5 C 7.28125 -10.546875 7.21875 -10.625 7.1875 -10.6875 C 6.140625 -12.078125 4.15625 -11.84375 3.09375 -10.671875 C 1.921875 -9.359375 1.421875 -7.328125 1.140625 -5.65625 C 0.875 -3.84375 0.859375 -1.984375 0.875 -0.140625 C 0.859375 1.546875 3.484375 1.390625 3.5 -0.3125 C 3.484375 -2.515625 3.484375 -4.75 4.09375 -6.890625 C 4.234375 -7.359375 4.390625 -7.828125 4.640625 -8.28125 C 4.71875 -8.421875 4.90625 -8.90625 5.125 -8.96875 C 5.125 -8.96875 5.140625 -8.96875 5.140625 -8.984375 C 5.140625 -8.953125 5.140625 -8.9375 5.171875 -8.90625 C 5.421875 -8.640625 5.390625 -7.8125 5.421875 -7.484375 C 5.46875 -6.859375 5.484375 -6.203125 5.46875 -5.578125 C 5.40625 -4.125 7.921875 -3.9375 8.0625 -5.375 C 8.140625 -6.328125 8.390625 -7.21875 8.859375 -8.0625 C 9.015625 -8.3125 9.375 -8.65625 9.578125 -8.96875 C 9.640625 -8.6875 9.796875 -8.421875 9.859375 -8.140625 C 10.421875 -5.859375 10.125 -3.265625 10.03125 -0.921875 C 9.953125 0.75 12.5625 0.578125 12.640625 -1.09375 C 12.703125 -3.0625 12.796875 -5.03125 12.65625 -7 Z M 12.65625 -7 "/></g></g></g><g fill="#f4b349" fill-opacity="1"><g transform="translate(50.690165, 53.971913)"><g><path d="M 7.0625 -4.140625 C 5.84375 -4.109375 4.640625 -3.984375 3.46875 -3.78125 C 3.515625 -4.453125 3.59375 -5.125 3.625 -5.8125 C 4.203125 -5.84375 4.796875 -5.84375 5.390625 -5.84375 C 6.125 -5.796875 6.671875 -6.5625 6.625 -7.234375 C 6.578125 -8 5.96875 -8.421875 5.234375 -8.46875 C 4.78125 -8.46875 4.328125 -8.46875 3.859375 -8.4375 C 3.921875 -9.140625 4.015625 -9.828125 4.0625 -10.484375 C 4.953125 -10.546875 5.828125 -10.578125 6.734375 -10.5625 C 8.421875 -10.5625 8.25 -13.171875 6.578125 -13.171875 C 5.3125 -13.1875 4.03125 -13.125 2.78125 -13.015625 C 2.296875 -12.96875 1.96875 -12.703125 1.765625 -12.390625 C 1.703125 -12.25 1.625 -12.0625 1.609375 -11.84375 C 1.234375 -8.609375 0.953125 -5.359375 0.75 -2.109375 C 0.6875 -1.1875 1.75 -0.796875 2.484375 -0.96875 C 4.046875 -1.296875 5.625 -1.46875 7.21875 -1.515625 C 8.90625 -1.546875 8.75 -4.171875 7.0625 -4.140625 Z M 7.0625 -4.140625 "/></g></g></g><g fill="#f4b349" fill-opacity="1"><g transform="translate(60.17343, 53.390745)"><g><path d="M 2.703125 -16.046875 C 2.453125 -17.703125 -0.171875 -17.5625 0.078125 -15.890625 C 0.5625 -12.546875 0.75 -9.203125 0.65625 -5.84375 C 0.609375 -4.15625 3.234375 -4.34375 3.28125 -6 C 3.375 -9.359375 3.1875 -12.703125 2.703125 -16.046875 Z M 2.125 -2.875 C 1.765625 -2.84375 1.453125 -2.6875 1.21875 -2.421875 L 1.109375 -2.3125 C 0.890625 -2.0625 0.78125 -1.6875 0.796875 -1.359375 C 0.8125 -1.03125 0.984375 -0.65625 1.21875 -0.46875 C 1.484375 -0.234375 1.8125 -0.09375 2.171875 -0.140625 C 2.515625 -0.15625 2.859375 -0.296875 3.0625 -0.578125 C 3.125 -0.609375 3.15625 -0.640625 3.1875 -0.6875 C 3.40625 -0.9375 3.546875 -1.296875 3.515625 -1.640625 C 3.5 -1.953125 3.328125 -2.34375 3.078125 -2.546875 C 2.796875 -2.765625 2.46875 -2.90625 2.125 -2.875 Z M 2.125 -2.875 "/></g></g></g></svg>