<svg xmlns="http://www.w3.org/2000/svg" xmlns:xlink="http://www.w3.org/1999/xlink" width="1366" zoomAndPan="magnify" viewBox="0 0 1024.5 576" height="768" preserveAspectRatio="xMidYMid meet" version="1.0"><defs><clipPath id="2e1a0cbad7"><path d="M 181.011719 0.140625 L 189.703125 0.140625 L 189.703125 100.359375 L 181.011719 100.359375 Z M 181.011719 0.140625 " clip-rule="nonzero"/></clipPath><clipPath id="48d9c51b6c"><path d="M 188.53125 100.140625 C 188.984375 66.109375 188.683594 51.789062 187.933594 41.070312 C 187.332031 32.226562 186.433594 24.953125 185.382812 16.78125 C 184.183594 8.460938 180.585938 -8.40625 181.113281 -8.554688 C 181.335938 -8.554688 182.085938 -6.679688 182.535156 -4.957031 C 183.660156 -0.835938 184.933594 9.285156 185.910156 16.707031 C 186.957031 24.578125 187.933594 32.148438 188.53125 41.070312 C 189.28125 51.789062 189.507812 66.40625 189.582031 76.679688 C 189.730469 84.625 189.65625 94.144531 189.433594 97.742188 C 189.359375 99.015625 189.433594 100.066406 189.132812 100.292969 C 188.984375 100.367188 188.53125 100.140625 188.53125 100.140625 " clip-rule="nonzero"/></clipPath></defs><g clip-path="url(#2e1a0cbad7)"><g clip-path="url(#48d9c51b6c)"><path fill="#fefdf5" d="M 178.113281 -11.554688 L 192.65625 -11.554688 L 192.65625 103.3125 L 178.113281 103.3125 Z M 178.113281 -11.554688 " fill-opacity="1" fill-rule="nonzero"/></g></g></svg>