<svg xmlns="http://www.w3.org/2000/svg" xmlns:xlink="http://www.w3.org/1999/xlink" width="190" zoomAndPan="magnify" viewBox="0 0 142.5 134.249994" height="179" preserveAspectRatio="xMidYMid meet" version="1.0"><defs><clipPath id="025d1762ee"><path d="M 70.804688 47.089844 L 87.957031 47.089844 L 87.957031 52 L 70.804688 52 Z M 70.804688 47.089844 " clip-rule="nonzero"/></clipPath><clipPath id="799c0263da"><path d="M 18.539062 81.191406 L 92.453125 81.191406 L 92.453125 132.757812 L 18.539062 132.757812 Z M 18.539062 81.191406 " clip-rule="nonzero"/></clipPath><clipPath id="03ec25d3af"><path d="M 41.820312 0 L 141.015625 0 L 141.015625 90 L 41.820312 90 Z M 41.820312 0 " clip-rule="nonzero"/></clipPath><clipPath id="6105f6e4e3"><path d="M 0.148438 41 L 120 41 L 120 106 L 0.148438 106 Z M 0.148438 41 " clip-rule="nonzero"/></clipPath></defs><g clip-path="url(#025d1762ee)"><path fill="#f5a162" d="M 87.894531 49.542969 C 87.894531 49.703125 87.839844 49.863281 87.730469 50.019531 C 87.621094 50.179688 87.460938 50.332031 87.246094 50.480469 C 87.03125 50.628906 86.769531 50.769531 86.457031 50.90625 C 86.144531 51.039062 85.789062 51.164062 85.394531 51.277344 C 84.996094 51.390625 84.566406 51.492188 84.097656 51.582031 C 83.632812 51.671875 83.140625 51.746094 82.621094 51.808594 C 82.101562 51.871094 81.570312 51.917969 81.019531 51.949219 C 80.46875 51.980469 79.914062 51.996094 79.351562 51.996094 C 78.789062 51.996094 78.234375 51.980469 77.683594 51.949219 C 77.132812 51.917969 76.601562 51.871094 76.082031 51.808594 C 75.5625 51.746094 75.070312 51.671875 74.605469 51.582031 C 74.136719 51.492188 73.707031 51.390625 73.308594 51.277344 C 72.914062 51.164062 72.558594 51.039062 72.246094 50.90625 C 71.933594 50.769531 71.671875 50.628906 71.457031 50.480469 C 71.242188 50.332031 71.082031 50.179688 70.972656 50.019531 C 70.863281 49.863281 70.808594 49.703125 70.808594 49.542969 C 70.808594 49.382812 70.863281 49.222656 70.972656 49.0625 C 71.082031 48.90625 71.242188 48.753906 71.457031 48.601562 C 71.671875 48.453125 71.933594 48.3125 72.246094 48.179688 C 72.558594 48.046875 72.914062 47.921875 73.308594 47.808594 C 73.707031 47.695312 74.136719 47.59375 74.605469 47.503906 C 75.070312 47.414062 75.5625 47.335938 76.082031 47.277344 C 76.601562 47.214844 77.132812 47.167969 77.683594 47.136719 C 78.234375 47.105469 78.789062 47.089844 79.351562 47.089844 C 79.914062 47.089844 80.46875 47.105469 81.019531 47.136719 C 81.570312 47.167969 82.101562 47.214844 82.621094 47.277344 C 83.140625 47.335938 83.632812 47.414062 84.097656 47.503906 C 84.566406 47.59375 84.996094 47.695312 85.394531 47.808594 C 85.789062 47.921875 86.144531 48.046875 86.457031 48.179688 C 86.769531 48.3125 87.03125 48.453125 87.246094 48.601562 C 87.460938 48.753906 87.621094 48.90625 87.730469 49.0625 C 87.839844 49.222656 87.894531 49.382812 87.894531 49.542969 Z M 87.894531 49.542969 " fill-opacity="1" fill-rule="nonzero"/></g><g clip-path="url(#799c0263da)"><path fill="#5ea332" d="M 92.21875 120.8125 C 92.015625 122.820312 91.636719 124.859375 91.082031 126.894531 C 90.601562 128.65625 89.972656 131.128906 88.335938 132.238281 C 86.921875 133.195312 85.566406 132.640625 84.433594 132.195312 C 82.449219 131.410156 80.5625 130.417969 78.789062 129.253906 C 73.5 125.777344 69.375 120.769531 66.558594 114.703125 C 66.558594 114.703125 70.195312 110.785156 71.101562 108.070312 C 69.421875 110.152344 65.507812 112.230469 65.507812 112.230469 C 63.136719 106.136719 62.003906 99.121094 62.234375 91.609375 C 60.1875 97.503906 57.191406 103.023438 52.316406 107.378906 C 48.054688 111.191406 42.3125 114.050781 35.621094 115.105469 C 35.621094 115.105469 31.925781 112.535156 31.457031 111.742188 C 30.332031 112.832031 31.449219 115.515625 31.449219 115.515625 C 29.433594 115.601562 27.359375 115.507812 25.265625 115.242188 C 23.457031 115.015625 20.917969 114.738281 19.59375 113.273438 C 18.449219 112.011719 18.804688 110.589844 19.089844 109.40625 C 19.589844 107.328125 20.304688 105.324219 21.210938 103.402344 C 23.910156 97.679688 28.289062 92.890625 33.902344 89.253906 C 33.902344 89.253906 38.289062 92.304688 41.105469 92.820312 C 38.808594 91.449219 36.199219 87.867188 36.199219 87.867188 C 43.75 83.628906 53.203125 81.304688 63.625 81.339844 L 64.890625 81.632812 C 64.984375 81.773438 65.003906 81.9375 64.902344 82.058594 C 64.871094 82.101562 64.835938 82.144531 64.804688 82.183594 C 64.71875 82.574219 64.632812 82.964844 64.542969 83.355469 C 73.183594 86.605469 81.695312 90.933594 87.089844 99.011719 C 90.261719 103.765625 92.289062 109.851562 92.398438 116.625 C 92.398438 116.625 89.332031 119.921875 88.484375 120.277344 C 89.402344 121.546875 92.21875 120.8125 92.21875 120.8125 " fill-opacity="1" fill-rule="nonzero"/></g><path fill="#96cd3e" d="M 85.730469 117.027344 C 86.566406 117.191406 87.40625 117.195312 88.21875 117.109375 C 89.03125 117.015625 89.820312 116.84375 90.601562 116.550781 C 89.792969 116.359375 88.992188 116.28125 88.214844 116.191406 C 87.4375 116.109375 86.679688 116.027344 85.953125 115.886719 C 85.226562 115.746094 84.523438 115.542969 83.863281 115.230469 C 83.441406 115.035156 83.042969 114.789062 82.652344 114.492188 C 82.429688 113.871094 82.199219 113.253906 81.972656 112.632812 C 82.113281 112.679688 82.25 112.714844 82.390625 112.753906 C 82.742188 112.84375 83.097656 112.902344 83.460938 112.933594 C 84.183594 112.996094 84.933594 112.941406 85.65625 112.75 C 86.378906 112.558594 87.0625 112.222656 87.652344 111.773438 C 88.238281 111.320312 88.742188 110.753906 89.039062 110.078125 C 88.390625 110.417969 87.792969 110.726562 87.1875 110.984375 C 86.582031 111.246094 85.972656 111.457031 85.355469 111.625 C 84.730469 111.792969 84.09375 111.914062 83.429688 112.019531 L 82.414062 112.1875 L 81.898438 112.28125 C 81.878906 112.285156 81.863281 112.289062 81.84375 112.289062 C 81.773438 112.105469 81.710938 111.921875 81.640625 111.738281 C 80.855469 109.710938 80.007812 107.699219 79.042969 105.738281 C 78.058594 103.785156 76.96875 101.886719 75.785156 100.054688 C 74.828125 98.589844 73.824219 97.15625 72.785156 95.757812 C 72.847656 95.796875 72.90625 95.839844 72.96875 95.878906 C 73.71875 96.34375 74.558594 96.667969 75.425781 96.84375 C 76.292969 97.023438 77.183594 97.054688 78.050781 96.945312 C 78.917969 96.832031 79.765625 96.589844 80.527344 96.164062 C 79.65625 96.117188 78.835938 96.097656 78.027344 96.03125 C 77.222656 95.96875 76.433594 95.863281 75.660156 95.703125 C 74.882812 95.546875 74.125 95.335938 73.371094 95.058594 C 72.824219 94.863281 72.285156 94.625 71.730469 94.367188 C 69.179688 91.042969 66.480469 87.863281 63.828125 84.628906 C 64.789062 86.113281 65.796875 87.566406 66.816406 89.007812 C 66.503906 89.683594 66.242188 90.355469 65.976562 91.027344 L 65.097656 93.320312 C 64.808594 94.082031 64.523438 94.847656 64.246094 95.625 C 63.96875 96.402344 63.691406 97.183594 63.46875 98.023438 C 64.105469 97.433594 64.621094 96.746094 65.070312 96.023438 C 65.511719 95.296875 65.886719 94.527344 66.1875 93.730469 C 66.484375 92.933594 66.714844 92.109375 66.855469 91.265625 C 66.964844 90.605469 67.023438 89.933594 66.996094 89.257812 C 67.101562 89.40625 67.203125 89.550781 67.308594 89.699219 C 67.28125 90.660156 67.222656 91.597656 67.117188 92.527344 C 66.996094 93.675781 66.816406 94.816406 66.621094 95.960938 L 65.992188 99.398438 C 65.785156 100.558594 65.574219 101.71875 65.464844 102.917969 C 66.039062 101.863281 66.488281 100.757812 66.875 99.628906 C 67.257812 98.5 67.5625 97.339844 67.765625 96.15625 C 67.96875 94.976562 68.074219 93.765625 68.03125 92.558594 C 67.996094 91.796875 67.910156 91.035156 67.734375 90.292969 C 68.921875 91.953125 70.117188 93.601562 71.28125 95.261719 C 72.511719 97.039062 73.730469 98.8125 74.855469 100.644531 C 75.285156 101.335938 75.699219 102.03125 76.109375 102.734375 C 75.949219 103.992188 75.667969 105.203125 75.300781 106.390625 C 74.851562 107.863281 74.277344 109.292969 73.632812 110.699219 C 72.988281 112.105469 72.277344 113.488281 71.550781 114.875 C 70.832031 116.265625 70.085938 117.652344 69.4375 119.109375 C 70.496094 117.917969 71.449219 116.65625 72.339844 115.34375 C 73.222656 114.023438 74.023438 112.640625 74.691406 111.183594 C 75.355469 109.726562 75.882812 108.191406 76.1875 106.609375 C 76.390625 105.511719 76.492188 104.375 76.414062 103.265625 C 76.699219 103.765625 76.976562 104.273438 77.25 104.785156 C 77.148438 105.605469 77.015625 106.414062 76.839844 107.210938 C 76.566406 108.484375 76.210938 109.738281 75.808594 110.984375 C 75.410156 112.230469 74.96875 113.472656 74.523438 114.71875 C 74.085938 115.972656 73.628906 117.226562 73.273438 118.535156 C 74.070312 117.4375 74.75 116.28125 75.363281 115.082031 C 75.972656 113.882812 76.503906 112.636719 76.917969 111.339844 C 77.332031 110.046875 77.628906 108.707031 77.742188 107.34375 C 77.78125 106.84375 77.800781 106.335938 77.785156 105.832031 C 77.855469 105.972656 77.929688 106.113281 78 106.253906 C 78.960938 108.167969 79.808594 110.148438 80.617188 112.144531 C 81.4375 114.136719 82.1875 116.164062 82.984375 118.175781 C 84.558594 122.210938 86.167969 126.230469 87.890625 130.207031 C 86.625 126.0625 85.25 121.953125 83.839844 117.863281 C 83.601562 117.167969 83.355469 116.472656 83.109375 115.78125 C 83.199219 115.859375 83.285156 115.933594 83.378906 116.003906 C 84.066406 116.535156 84.894531 116.867188 85.730469 117.027344 Z M 63.292969 82.332031 C 60.464844 85.414062 57.695312 88.535156 54.757812 91.527344 C 54.582031 92.109375 54.425781 92.675781 54.304688 93.246094 C 54.136719 94.027344 54.035156 94.8125 53.988281 95.601562 C 53.941406 96.390625 53.945312 97.183594 53.996094 97.992188 C 54.042969 98.800781 54.140625 99.617188 54.214844 100.484375 C 53.6875 99.792969 53.328125 98.988281 53.09375 98.144531 C 52.863281 97.300781 52.769531 96.414062 52.824219 95.53125 C 52.878906 94.644531 53.085938 93.769531 53.4375 92.960938 C 53.46875 92.894531 53.5 92.828125 53.535156 92.761719 C 52.292969 93.988281 51.011719 95.179688 49.695312 96.335938 C 48.046875 97.761719 46.324219 99.109375 44.527344 100.355469 C 42.71875 101.585938 40.847656 102.710938 38.953125 103.769531 C 38.777344 103.863281 38.605469 103.957031 38.433594 104.050781 C 38.4375 104.066406 38.441406 104.085938 38.449219 104.101562 L 38.613281 104.597656 L 38.921875 105.582031 C 39.121094 106.226562 39.332031 106.839844 39.585938 107.433594 C 39.835938 108.023438 40.132812 108.59375 40.472656 109.15625 C 40.8125 109.722656 41.203125 110.265625 41.632812 110.867188 C 40.921875 110.664062 40.289062 110.246094 39.757812 109.730469 C 39.230469 109.210938 38.804688 108.578125 38.511719 107.886719 C 38.222656 107.199219 38.0625 106.464844 38.023438 105.738281 C 38.003906 105.378906 38.011719 105.015625 38.046875 104.65625 C 38.066406 104.511719 38.085938 104.367188 38.109375 104.222656 C 37.53125 104.539062 36.949219 104.851562 36.367188 105.160156 C 36.128906 105.585938 35.9375 106.015625 35.804688 106.460938 C 35.589844 107.160156 35.484375 107.882812 35.449219 108.621094 C 35.414062 109.363281 35.433594 110.125 35.460938 110.90625 C 35.484375 111.6875 35.519531 112.488281 35.441406 113.320312 C 35.042969 112.589844 34.761719 111.828125 34.554688 111.035156 C 34.355469 110.242188 34.242188 109.410156 34.285156 108.5625 C 34.328125 107.714844 34.539062 106.847656 34.96875 106.089844 C 35.027344 105.988281 35.089844 105.890625 35.15625 105.792969 C 34.503906 106.132812 33.851562 106.472656 33.195312 106.804688 C 29.339844 108.777344 25.46875 110.714844 21.539062 112.546875 C 25.238281 110.285156 28.992188 108.128906 32.765625 106.003906 C 34.648438 104.933594 36.546875 103.90625 38.40625 102.8125 C 40.269531 101.734375 42.109375 100.617188 43.871094 99.398438 C 44 99.308594 44.128906 99.214844 44.257812 99.125 C 43.761719 99.210938 43.257812 99.265625 42.757812 99.296875 C 41.390625 99.371094 40.019531 99.269531 38.683594 99.039062 C 37.34375 98.8125 36.035156 98.460938 34.761719 98.027344 C 33.488281 97.582031 32.246094 97.074219 31.046875 96.4375 C 32.394531 96.609375 33.699219 96.882812 35 97.140625 C 36.300781 97.40625 37.589844 97.671875 38.878906 97.894531 C 40.167969 98.113281 41.457031 98.289062 42.761719 98.382812 C 43.578125 98.445312 44.394531 98.464844 45.21875 98.449219 C 45.6875 98.109375 46.148438 97.761719 46.609375 97.40625 C 45.519531 97.640625 44.382812 97.699219 43.265625 97.652344 C 41.65625 97.574219 40.0625 97.265625 38.527344 96.8125 C 36.992188 96.355469 35.507812 95.753906 34.078125 95.066406 C 32.652344 94.371094 31.269531 93.601562 29.941406 92.722656 C 31.472656 93.15625 32.953125 93.703125 34.429688 94.222656 C 35.90625 94.746094 37.375 95.253906 38.859375 95.695312 C 40.339844 96.136719 41.835938 96.503906 43.355469 96.746094 C 44.585938 96.941406 45.824219 97.050781 47.089844 97.03125 C 47.726562 96.527344 48.359375 96.019531 48.984375 95.496094 C 50.640625 94.128906 52.226562 92.671875 53.808594 91.207031 C 55.292969 89.816406 56.757812 88.402344 58.234375 86.996094 C 57.527344 87.273438 56.78125 87.464844 56.035156 87.605469 C 54.84375 87.820312 53.632812 87.882812 52.433594 87.847656 C 51.230469 87.8125 50.042969 87.671875 48.871094 87.453125 C 47.699219 87.230469 46.542969 86.941406 45.414062 86.515625 C 46.617188 86.460938 47.796875 86.503906 48.972656 86.546875 L 52.46875 86.683594 C 53.625 86.722656 54.78125 86.738281 55.933594 86.699219 C 56.871094 86.671875 57.808594 86.601562 58.761719 86.492188 C 58.894531 86.367188 59.023438 86.242188 59.15625 86.121094 C 58.492188 86.238281 57.816406 86.277344 57.148438 86.261719 C 56.292969 86.238281 55.445312 86.128906 54.617188 85.945312 C 53.785156 85.757812 52.96875 85.496094 52.1875 85.160156 C 51.410156 84.816406 50.65625 84.402344 49.980469 83.855469 C 50.84375 83.957031 51.65625 84.121094 52.46875 84.285156 C 53.273438 84.457031 54.070312 84.628906 54.867188 84.808594 L 57.261719 85.355469 C 57.960938 85.523438 58.664062 85.695312 59.378906 85.90625 C 60.664062 84.695312 61.960938 83.496094 63.292969 82.332031 " fill-opacity="1" fill-rule="nonzero"/><g clip-path="url(#03ec25d3af)"><path fill="#96cd3e" d="M 84.734375 63.957031 C 84.691406 64.089844 84.714844 64.246094 84.863281 64.363281 C 87.136719 66.183594 89.53125 67.878906 92.039062 69.398438 C 89.9375 69.277344 87.8125 69.410156 85.738281 69.574219 C 83.398438 69.761719 81.054688 70.078125 78.894531 70.929688 C 80.828125 68.613281 82.699219 66.246094 84.535156 63.84375 C 84.601562 63.882812 84.667969 63.921875 84.734375 63.957031 Z M 94.425781 50.367188 C 95.851562 51.222656 97.363281 51.71875 98.925781 51.941406 C 96.804688 52.519531 94.679688 53.101562 92.558594 53.683594 C 92.390625 53.65625 92.222656 53.628906 92.058594 53.597656 C 92.816406 52.53125 93.574219 51.464844 94.332031 50.398438 C 94.363281 50.390625 94.394531 50.378906 94.425781 50.367188 Z M 100.113281 62.851562 C 104.878906 63.710938 109.699219 64.28125 114.53125 64.5625 C 119.164062 64.832031 123.8125 64.839844 128.445312 64.578125 C 132.546875 64.34375 137.433594 64.394531 140.851562 61.777344 C 141.152344 61.546875 141.023438 60.96875 140.589844 61.03125 C 131.875 62.246094 123.511719 58.851562 114.960938 57.839844 C 106.28125 56.808594 97.574219 59.269531 88.925781 57.949219 C 89.65625 56.945312 90.382812 55.933594 91.109375 54.925781 C 91.605469 54.789062 92.105469 54.652344 92.605469 54.515625 C 99.75 55.609375 107 54.84375 114.171875 54.265625 C 122.761719 53.574219 131.28125 53.710938 139.792969 55.171875 C 140.167969 55.234375 140.476562 54.703125 140.132812 54.457031 C 136.726562 52.046875 132.773438 50.738281 128.746094 49.789062 C 124.921875 48.886719 121.011719 48.300781 117.078125 48.308594 C 116.28125 48.308594 115.488281 48.34375 114.699219 48.40625 C 114.773438 48.375 114.847656 48.34375 114.921875 48.3125 C 122.679688 45.105469 130.703125 41.203125 139.339844 42.238281 C 139.691406 42.277344 139.945312 41.914062 139.75 41.605469 C 137.6875 38.335938 133.421875 37.75 129.863281 37.6875 C 125.957031 37.617188 122.074219 38.414062 118.367188 39.605469 C 110.351562 42.171875 103.105469 46.632812 95.125 49.277344 C 95.136719 49.261719 95.148438 49.246094 95.15625 49.230469 C 95.316406 49.007812 95.34375 48.773438 95.296875 48.558594 C 95.328125 48.515625 95.363281 48.472656 95.394531 48.429688 C 95.539062 48.488281 95.707031 48.472656 95.835938 48.316406 C 96.015625 48.101562 96.1875 47.878906 96.359375 47.660156 C 97.230469 47.09375 98.050781 46.464844 98.828125 45.789062 C 98.921875 45.917969 99.082031 46.003906 99.277344 45.9375 C 112.859375 41.613281 124.386719 32.984375 135.617188 24.488281 C 135.917969 24.257812 135.789062 23.671875 135.355469 23.742188 C 129.261719 24.710938 123.332031 25.910156 117.773438 28.703125 C 114.238281 30.476562 110.972656 32.730469 108.050781 35.371094 C 110.25 32.683594 112.414062 29.964844 114.472656 27.167969 C 117.292969 23.347656 119.933594 19.382812 122.179688 15.195312 C 123.289062 13.121094 124.304688 10.996094 125.195312 8.820312 C 125.792969 7.351562 126.519531 5.746094 125.625 4.25 C 125.460938 3.972656 125.050781 4.042969 124.917969 4.308594 C 122.851562 8.441406 118.507812 10.933594 115.527344 14.359375 C 112.75 17.546875 110.507812 21.167969 108.488281 24.871094 C 105.023438 31.214844 102.140625 37.929688 98.09375 43.917969 C 100.542969 38.851562 101.621094 33.128906 102.085938 27.503906 C 102.828125 18.496094 102.855469 9.402344 103.167969 0.371094 C 103.179688 -0.0273438 102.515625 -0.148438 102.390625 0.230469 C 99.6875 8.382812 96.691406 16.96875 96.328125 25.617188 C 96.03125 32.667969 98.34375 40.441406 94.886719 46.996094 C 95.378906 44.070312 95.433594 41.019531 95.460938 38.085938 C 95.496094 34.296875 95.277344 30.507812 94.800781 26.746094 C 93.863281 19.328125 91.484375 12.140625 90.960938 4.664062 C 90.929688 4.257812 90.347656 4.148438 90.183594 4.523438 C 87.226562 11.125 87.691406 18.527344 89.132812 25.449219 C 89.921875 29.242188 90.984375 32.976562 91.878906 36.746094 C 92.773438 40.507812 93.96875 44.878906 93.457031 48.816406 C 92.449219 50.242188 91.4375 51.664062 90.421875 53.089844 C 90.890625 50.113281 90.402344 47.21875 89.527344 44.230469 C 88.234375 39.828125 86.914062 35.429688 85.609375 31.03125 C 82.957031 22.097656 80.304688 13.160156 77.648438 4.222656 C 77.539062 3.847656 77.066406 3.902344 76.894531 4.183594 C 74.632812 7.914062 75.0625 12.453125 75.585938 16.59375 C 76.15625 21.089844 77.136719 25.570312 78.882812 29.765625 C 80.671875 34.078125 83.367188 37.902344 85.667969 41.9375 C 87.867188 45.804688 90.320312 50.625 88.933594 55.164062 C 88.453125 55.832031 87.972656 56.496094 87.488281 57.160156 C 87.445312 53.734375 85.574219 50.527344 83.902344 47.617188 C 81.441406 43.34375 78.597656 39.308594 75.789062 35.265625 C 70.121094 27.105469 65.164062 18.722656 61.765625 9.351562 C 61.667969 9.089844 61.246094 8.949219 61.066406 9.21875 C 58.800781 12.65625 59.761719 17.625 60.832031 21.332031 C 62.074219 25.609375 64.265625 29.578125 66.875 33.164062 C 69.902344 37.328125 73.53125 41.007812 77.160156 44.632812 C 79.140625 46.613281 81.132812 48.582031 83.046875 50.621094 C 84.667969 52.339844 86.375 54.226562 86.414062 56.71875 C 86.417969 56.921875 86.539062 57.035156 86.6875 57.070312 C 86.695312 57.5 86.667969 57.929688 86.609375 58.359375 C 85.757812 59.519531 84.898438 60.675781 84.03125 61.828125 C 83.277344 58.800781 81.816406 56.03125 80.152344 53.386719 C 77.890625 49.789062 75.515625 46.21875 72.921875 42.851562 C 68.078125 36.570312 62 31.597656 54.445312 28.976562 C 50.515625 27.617188 46.410156 26.929688 42.253906 26.910156 C 41.84375 26.90625 41.753906 27.53125 42.113281 27.6875 C 51.609375 31.769531 59.636719 38.492188 66.316406 46.300781 C 69.566406 50.097656 72.421875 54.160156 75.222656 58.292969 C 76.953125 60.851562 79.070312 63.578125 82.121094 64.324219 C 80.953125 65.824219 79.773438 67.3125 78.570312 68.78125 C 78.261719 63.671875 74.179688 58.839844 70.683594 55.527344 C 66.082031 51.167969 60.3125 48.160156 54.117188 46.84375 C 53.757812 46.765625 53.527344 47.1875 53.707031 47.472656 C 59.539062 56.875 73.519531 59.734375 76.828125 70.867188 C 71.355469 77.324219 65.398438 83.335938 58.578125 88.449219 C 57.734375 89.078125 58.648438 90.433594 59.492188 89.800781 C 65.839844 85.046875 71.445312 79.53125 76.613281 73.605469 C 83.40625 73.246094 89.933594 73.269531 96.4375 75.5625 C 102.28125 77.621094 107.835938 80.550781 114.015625 81.527344 C 114.457031 81.601562 114.703125 80.9375 114.257812 80.757812 C 110.996094 79.433594 108.214844 77.25 105.390625 75.152344 C 106.253906 75.371094 107.117188 75.574219 107.996094 75.738281 C 112.222656 76.535156 116.472656 76.519531 120.722656 75.90625 C 125.398438 75.234375 130.042969 74.109375 134.800781 74.375 C 135.214844 74.394531 135.523438 73.773438 135.042969 73.601562 C 126.929688 70.691406 118.503906 68.808594 110.007812 67.429688 C 105.761719 66.742188 101.5 66.171875 97.234375 65.644531 C 93.203125 65.144531 88.710938 65.089844 85.03125 63.191406 C 86.035156 61.871094 87.023438 60.542969 88.003906 59.207031 C 91.585938 61.441406 96.03125 62.113281 100.113281 62.851562 " fill-opacity="1" fill-rule="nonzero"/></g><path fill="#d84041" d="M 41.734375 91.539062 C 40.789062 87.976562 40.738281 84.222656 41.542969 80.632812 C 38.402344 82.726562 33.976562 83.027344 30.871094 80.691406 C 27.886719 78.449219 26.8125 73.964844 28.679688 70.710938 C 26.917969 70.449219 25.675781 68.847656 25.40625 67.097656 C 25.019531 64.605469 26.746094 62.355469 28.464844 60.761719 C 32.464844 57.0625 37.59375 54.664062 42.945312 53.738281 C 40.296875 50.554688 39.617188 46.046875 40.96875 42.140625 C 41.316406 41.144531 41.792969 40.199219 42.402344 39.335938 C 43.21875 38.179688 44.453125 37.378906 45.21875 36.203125 C 46.539062 34.175781 45.789062 31.203125 47.871094 29.574219 C 49.417969 28.363281 51.070312 29.34375 52.226562 30.550781 C 52.898438 31.25 53.496094 32.035156 54.257812 32.636719 C 54.644531 32.945312 55.09375 33.210938 55.589844 33.28125 C 56.289062 33.382812 56.921875 33.042969 57.578125 32.871094 C 61.851562 31.738281 65.917969 35.078125 67.054688 39.039062 C 68.34375 43.53125 66.769531 47.871094 64.609375 51.824219 C 67.308594 48.328125 70.386719 45.128906 73.800781 42.304688 C 75.945312 40.527344 78.28125 38.574219 80.867188 37.46875 C 82.84375 36.625 85.507812 36.566406 86.992188 38.386719 C 87.726562 39.289062 87.769531 40.460938 88.285156 41.46875 C 88.980469 42.824219 90.519531 42.820312 91.804688 43.242188 C 93.734375 43.875 94.429688 45.621094 94.1875 47.542969 C 93.886719 49.914062 92.28125 51.730469 91.523438 53.9375 C 91.027344 55.386719 91.191406 56.542969 91.832031 57.910156 C 92.277344 58.867188 92.421875 59.796875 92.09375 60.816406 C 91.324219 63.222656 88.851562 64.777344 86.585938 65.566406 C 83.980469 66.472656 81.175781 66.609375 78.433594 66.664062 C 79.480469 67.996094 81.324219 68.300781 82.859375 68.867188 C 84.191406 69.355469 85.355469 70.140625 86.273438 71.226562 C 88.089844 73.363281 88.71875 76.316406 87.773438 78.972656 C 87.304688 80.292969 86.488281 81.496094 85.433594 82.417969 C 84.925781 82.863281 84.371094 83.246094 83.765625 83.542969 C 82.957031 83.941406 82.027344 84.105469 81.261719 84.582031 C 80.386719 85.128906 79.914062 86.023438 79.3125 86.820312 C 78.847656 87.445312 78.292969 87.984375 77.652344 88.421875 C 76.484375 89.21875 75.078125 89.65625 73.675781 89.761719 C 70.304688 90.019531 67.230469 88.265625 64.910156 85.949219 C 65.058594 88.605469 63.882812 91.257812 61.808594 92.949219 C 61.261719 93.394531 60.65625 93.757812 60.011719 94.046875 C 58.957031 94.511719 57.78125 94.765625 57.203125 95.875 C 56.53125 97.160156 56.640625 98.859375 55.246094 99.683594 C 52.785156 101.148438 50.25 98.378906 48.738281 96.824219 C 48.125 96.199219 47.476562 95.574219 46.6875 95.183594 C 45.738281 94.710938 44.894531 94.96875 43.914062 94.859375 C 42.390625 94.691406 42.054688 92.753906 41.734375 91.539062 " fill-opacity="1" fill-rule="nonzero"/><path fill="#fcd9bb" d="M 52.550781 74.878906 C 51.785156 76.121094 51.167969 77.453125 50.703125 78.835938 C 50.234375 80.222656 49.925781 81.660156 49.789062 83.113281 C 49.660156 84.5625 49.6875 86.03125 50.003906 87.46875 C 50.449219 86.070312 50.804688 84.714844 51.199219 83.375 C 51.585938 82.039062 51.992188 80.722656 52.429688 79.414062 C 52.867188 78.109375 53.335938 76.816406 53.832031 75.515625 C 54.324219 74.210938 54.855469 72.914062 55.347656 71.53125 C 54.230469 72.488281 53.324219 73.640625 52.550781 74.878906 Z M 59.300781 69.324219 C 59.332031 70.390625 59.269531 71.328125 59.109375 72.253906 C 58.953125 73.167969 58.71875 74.058594 58.429688 74.9375 C 58.140625 75.824219 57.800781 76.710938 57.453125 77.632812 C 57.117188 78.5625 56.757812 79.511719 56.558594 80.566406 C 57.410156 79.914062 58.101562 79.15625 58.71875 78.3125 C 59.324219 77.46875 59.832031 76.527344 60.164062 75.503906 C 60.5 74.476562 60.648438 73.371094 60.535156 72.28125 C 60.421875 71.199219 60.046875 70.109375 59.300781 69.324219 Z M 69.628906 71.96875 C 68.414062 71.117188 67.226562 70.222656 66.050781 69.285156 C 64.875 68.355469 63.722656 67.375 62.492188 66.390625 C 63.125 67.835938 64.03125 69.136719 65.066406 70.320312 C 66.105469 71.5 67.292969 72.550781 68.582031 73.460938 C 69.871094 74.367188 71.265625 75.125 72.730469 75.703125 C 74.191406 76.277344 75.722656 76.6875 77.300781 76.789062 C 75.957031 75.960938 74.644531 75.214844 73.367188 74.421875 C 72.089844 73.636719 70.847656 72.820312 69.628906 71.96875 Z M 67.214844 62.589844 C 66.222656 62.777344 65.21875 62.945312 64.160156 63.234375 C 65.152344 63.703125 66.210938 63.921875 67.277344 64.015625 C 68.34375 64.101562 69.421875 64.046875 70.472656 63.859375 C 71.527344 63.675781 72.554688 63.355469 73.527344 62.90625 C 74.496094 62.449219 75.417969 61.882812 76.183594 61.097656 C 75.089844 61.1875 74.089844 61.375 73.09375 61.542969 L 70.15625 62.066406 Z M 72.53125 57.839844 C 73.921875 56.949219 75.238281 55.96875 76.503906 54.9375 C 77.769531 53.898438 78.996094 52.820312 80.164062 51.625 C 78.585938 52.183594 77.117188 52.949219 75.695312 53.753906 C 74.273438 54.566406 72.902344 55.433594 71.546875 56.308594 C 70.191406 57.179688 68.851562 58.058594 67.496094 58.914062 C 66.136719 59.78125 64.757812 60.605469 63.335938 61.480469 C 65.003906 61.320312 66.617188 60.824219 68.152344 60.183594 C 69.6875 59.535156 71.148438 58.730469 72.53125 57.839844 Z M 51.609375 65.851562 C 50.269531 66 48.949219 66.324219 47.691406 66.800781 C 46.429688 67.277344 45.226562 67.914062 44.128906 68.691406 C 43.035156 69.472656 42.03125 70.386719 41.253906 71.496094 C 42.503906 70.984375 43.667969 70.441406 44.835938 69.9375 C 46.003906 69.429688 47.164062 68.953125 48.335938 68.503906 C 49.511719 68.058594 50.695312 67.644531 51.902344 67.25 C 53.113281 66.847656 54.34375 66.488281 55.625 66.039062 C 54.300781 65.730469 52.945312 65.710938 51.609375 65.851562 Z M 48 61.261719 C 46.449219 61.207031 44.890625 61.386719 43.402344 61.808594 C 41.921875 62.234375 40.5 62.890625 39.304688 63.851562 C 40.808594 63.585938 42.242188 63.347656 43.671875 63.21875 C 45.101562 63.078125 46.519531 63.035156 47.933594 63.085938 C 49.351562 63.132812 50.761719 63.277344 52.175781 63.515625 C 53.597656 63.75 55.007812 64.089844 56.488281 64.460938 C 55.363281 63.421875 53.992188 62.667969 52.542969 62.136719 C 51.089844 61.609375 49.550781 61.320312 48 61.261719 Z M 51.460938 55.167969 C 52.117188 56.109375 52.890625 56.964844 53.761719 57.707031 C 54.640625 58.4375 55.605469 59.074219 56.707031 59.46875 C 56.085938 58.484375 55.433594 57.613281 54.808594 56.730469 C 54.175781 55.859375 53.5625 54.996094 52.957031 54.125 C 52.351562 53.253906 51.757812 52.378906 51.160156 51.484375 C 50.550781 50.59375 49.960938 49.679688 49.25 48.753906 C 49.234375 49.925781 49.496094 51.050781 49.878906 52.128906 C 50.269531 53.203125 50.804688 54.230469 51.460938 55.167969 Z M 54.441406 51.34375 C 54.1875 49.773438 54.109375 48.175781 54.21875 46.59375 C 54.335938 45.011719 54.628906 43.4375 55.210938 41.957031 C 55.382812 43.539062 55.492188 45.0625 55.652344 46.570312 C 55.808594 48.082031 56.003906 49.570312 56.238281 51.054688 C 56.476562 52.539062 56.761719 54.011719 57.085938 55.496094 C 57.410156 56.980469 57.785156 58.460938 58.121094 60.015625 C 57.105469 58.789062 56.335938 57.390625 55.726562 55.925781 C 55.125 54.457031 54.695312 52.914062 54.441406 51.34375 " fill-opacity="1" fill-rule="nonzero"/><path fill="#fcd9bb" d="M 111.683594 104.183594 C 111.226562 104.53125 110.726562 104.65625 110.394531 105.175781 C 110.117188 105.609375 109.980469 106.117188 109.863281 106.613281 C 109.574219 107.84375 109.140625 109.992188 107.472656 110 C 106.523438 110.007812 106.070312 109.125 105.347656 108.683594 C 104.726562 108.304688 104.0625 108.53125 103.394531 108.613281 C 102.984375 108.664062 102.574219 108.664062 102.164062 108.605469 C 100.621094 108.386719 99.238281 107.410156 98.511719 106.039062 C 98.046875 107.894531 97.039062 109.695312 95.28125 110.582031 C 94.546875 110.949219 93.714844 111.15625 92.890625 111.109375 C 92.433594 111.082031 91.996094 110.976562 91.578125 110.808594 C 91.039062 110.589844 90.53125 110.285156 89.929688 110.273438 C 89.40625 110.265625 88.890625 110.464844 88.367188 110.507812 C 87.976562 110.539062 87.582031 110.515625 87.195312 110.445312 C 86.390625 110.300781 85.625 109.949219 84.992188 109.429688 C 83.71875 108.386719 83.144531 106.722656 83.410156 105.105469 C 83.546875 104.289062 83.886719 103.546875 84.40625 102.902344 C 85.003906 102.15625 85.835938 101.453125 85.957031 100.472656 C 84.570312 101.265625 83.128906 102.042969 81.554688 102.371094 C 80.183594 102.660156 78.480469 102.625 77.371094 101.65625 C 76.902344 101.242188 76.695312 100.734375 76.632812 100.121094 C 76.539062 99.25 76.273438 98.621094 75.589844 98.046875 C 74.546875 97.171875 73.199219 96.746094 72.335938 95.652344 C 71.636719 94.765625 71.460938 93.683594 72.234375 92.785156 C 72.75 92.191406 73.523438 91.730469 73.460938 90.839844 C 73.414062 90.183594 73.085938 89.585938 73.179688 88.914062 C 73.375 87.558594 74.722656 86.785156 75.964844 86.613281 C 77.585938 86.386719 79.34375 86.664062 80.949219 86.90625 C 83.503906 87.289062 86.003906 87.964844 88.40625 88.898438 C 86.136719 87.574219 84.046875 85.875 83.339844 83.246094 C 82.714844 80.921875 83.746094 78.035156 86.21875 77.3125 C 86.597656 77.203125 87.019531 77.183594 87.335938 76.921875 C 87.566406 76.738281 87.707031 76.46875 87.808594 76.199219 C 88.007812 75.667969 88.070312 75.097656 88.195312 74.546875 C 88.410156 73.59375 88.941406 72.609375 90.082031 72.746094 C 91.609375 72.9375 92.128906 74.648438 93.398438 75.261719 C 94.132812 75.621094 94.992188 75.652344 95.746094 75.984375 C 96.3125 76.230469 96.832031 76.558594 97.304688 76.953125 C 99.15625 78.5 100.171875 80.953125 99.804688 83.34375 C 102.757812 82.195312 106.039062 81.851562 109.152344 82.5 C 110.488281 82.777344 112.03125 83.382812 112.585938 84.746094 C 112.976562 85.699219 112.835938 86.871094 112.035156 87.535156 C 113.945312 88.601562 114.757812 91.164062 113.941406 93.183594 C 113.089844 95.28125 110.789062 96.460938 108.59375 96.359375 C 110.074219 97.910156 111.175781 99.804688 111.773438 101.867188 C 111.976562 102.570312 112.394531 103.640625 111.683594 104.183594 " fill-opacity="1" fill-rule="nonzero"/><g clip-path="url(#6105f6e4e3)"><path fill="#fab62a" d="M 111.15625 70.507812 C 111.550781 70.078125 111.523438 69.414062 111.097656 69.019531 C 110.667969 68.628906 110.003906 68.65625 109.613281 69.082031 C 109.21875 69.507812 109.246094 70.175781 109.671875 70.566406 C 110.097656 70.960938 110.765625 70.933594 111.15625 70.507812 Z M 111.042969 73.226562 C 110.648438 73.65625 110.675781 74.320312 111.101562 74.710938 C 111.53125 75.105469 112.195312 75.078125 112.585938 74.652344 C 112.980469 74.222656 112.953125 73.558594 112.527344 73.167969 C 112.101562 72.773438 111.433594 72.800781 111.042969 73.226562 Z M 114.585938 72.234375 C 114.195312 72.664062 114.222656 73.328125 114.648438 73.722656 C 115.074219 74.113281 115.738281 74.085938 116.132812 73.660156 C 116.527344 73.234375 116.496094 72.566406 116.070312 72.175781 C 115.644531 71.78125 114.980469 71.808594 114.585938 72.234375 Z M 117.90625 69.777344 C 117.394531 69.507812 116.757812 69.707031 116.492188 70.222656 C 116.222656 70.738281 116.421875 71.371094 116.9375 71.640625 C 117.453125 71.90625 118.085938 71.707031 118.355469 71.195312 C 118.621094 70.679688 118.421875 70.042969 117.90625 69.777344 Z M 118.5625 66.804688 C 118.046875 66.535156 117.414062 66.734375 117.144531 67.25 C 116.878906 67.765625 117.078125 68.398438 117.59375 68.667969 C 118.105469 68.933594 118.742188 68.734375 119.011719 68.21875 C 119.277344 67.703125 119.078125 67.070312 118.5625 66.804688 Z M 113.402344 68.613281 C 113.917969 68.882812 114.554688 68.683594 114.820312 68.167969 C 115.089844 67.652344 114.890625 67.019531 114.375 66.75 C 113.859375 66.484375 113.226562 66.683594 112.957031 67.195312 C 112.6875 67.710938 112.886719 68.347656 113.402344 68.613281 Z M 114.570312 70.484375 C 111.808594 70.761719 109.125 71.761719 106.703125 73.183594 C 104.296875 74.632812 102.148438 76.515625 100.324219 78.679688 C 99.410156 79.753906 98.566406 80.894531 97.785156 82.074219 C 97.074219 83.167969 96.476562 84.324219 95.972656 85.519531 C 95.953125 85.21875 95.914062 84.917969 95.855469 84.621094 C 95.722656 83.96875 95.515625 83.328125 95.15625 82.746094 C 95.078125 83.425781 95.058594 84.058594 95.023438 84.6875 C 94.992188 85.3125 94.960938 85.929688 94.917969 86.546875 C 94.878906 87.164062 94.832031 87.777344 94.777344 88.402344 C 94.753906 88.695312 94.730469 88.988281 94.707031 89.285156 C 94.660156 89.46875 94.609375 89.652344 94.566406 89.835938 C 94.234375 91.195312 93.996094 92.574219 93.902344 93.976562 L 94.09375 94.027344 C 94.730469 92.78125 95.300781 91.53125 95.878906 90.296875 C 96.460938 89.0625 97.027344 87.839844 97.644531 86.640625 C 98.246094 85.441406 98.851562 84.253906 99.472656 83.070312 C 100.089844 81.882812 100.785156 80.738281 101.566406 79.65625 C 103.136719 77.496094 105.046875 75.5625 107.242188 74.011719 C 109.425781 72.433594 111.925781 71.265625 114.601562 70.679688 Z M 103.472656 98.214844 C 102.828125 97.664062 102.117188 97.183594 101.359375 96.792969 C 100.601562 96.410156 99.800781 96.105469 98.957031 95.960938 C 99.617188 96.503906 100.273438 96.992188 100.910156 97.496094 C 101.550781 97.996094 102.175781 98.503906 102.785156 99.023438 C 103.394531 99.546875 103.996094 100.082031 104.589844 100.632812 C 105.1875 101.183594 105.773438 101.753906 106.417969 102.320312 C 106.144531 101.507812 105.714844 100.765625 105.214844 100.078125 C 104.710938 99.394531 104.125 98.769531 103.472656 98.214844 Z M 99.738281 99.644531 C 99.289062 99.289062 98.851562 98.945312 98.441406 98.59375 C 98.03125 98.238281 97.644531 97.867188 97.292969 97.453125 C 96.9375 97.039062 96.625 96.589844 96.316406 96.046875 C 96.179688 96.664062 96.320312 97.320312 96.589844 97.898438 C 96.863281 98.476562 97.269531 98.984375 97.742188 99.394531 C 98.21875 99.808594 98.753906 100.125 99.3125 100.363281 C 99.871094 100.601562 100.445312 100.769531 101.070312 100.839844 C 100.652344 100.375 100.183594 100.007812 99.738281 99.644531 Z M 92.933594 98.058594 C 92.628906 98.878906 92.300781 99.683594 91.953125 100.472656 C 91.597656 101.265625 91.222656 102.046875 90.820312 102.824219 C 90.421875 103.605469 89.988281 104.371094 89.566406 105.191406 C 90.324219 104.664062 90.96875 104 91.527344 103.273438 C 92.082031 102.542969 92.550781 101.746094 92.921875 100.902344 C 93.292969 100.0625 93.570312 99.179688 93.734375 98.277344 C 93.898438 97.375 93.957031 96.453125 93.839844 95.539062 C 93.519531 96.402344 93.242188 97.238281 92.933594 98.058594 Z M 92.058594 94.464844 C 91.445312 94.640625 90.890625 94.855469 90.339844 95.0625 L 88.710938 95.683594 L 87.085938 96.304688 C 86.535156 96.519531 85.980469 96.730469 85.40625 97.011719 C 86.027344 97.175781 86.660156 97.179688 87.277344 97.117188 C 87.898438 97.050781 88.511719 96.898438 89.09375 96.675781 C 89.675781 96.453125 90.230469 96.15625 90.734375 95.792969 C 91.238281 95.425781 91.703125 95 92.058594 94.464844 Z M 89.144531 94.140625 C 90.105469 94 91.0625 93.761719 91.941406 93.339844 C 90.96875 93.332031 90.03125 93.332031 89.09375 93.308594 C 88.15625 93.289062 87.226562 93.253906 86.285156 93.222656 C 85.347656 93.195312 84.398438 93.175781 83.445312 93.195312 C 82.492188 93.21875 81.527344 93.277344 80.570312 93.476562 C 81.515625 93.722656 82.453125 93.890625 83.394531 94.03125 C 84.339844 94.164062 85.292969 94.257812 86.253906 94.285156 C 87.214844 94.316406 88.183594 94.277344 89.144531 94.140625 Z M 101.359375 91.296875 C 100.589844 91.4375 99.832031 91.671875 99.117188 92 C 98.40625 92.332031 97.734375 92.75 97.167969 93.300781 C 97.941406 93.140625 98.664062 92.953125 99.390625 92.789062 C 100.113281 92.621094 100.828125 92.472656 101.550781 92.34375 C 102.269531 92.214844 102.992188 92.101562 103.730469 92.003906 C 104.464844 91.90625 105.207031 91.828125 105.988281 91.707031 C 105.265625 91.386719 104.488281 91.234375 103.707031 91.171875 C 102.925781 91.113281 102.132812 91.15625 101.359375 91.296875 Z M 102.003906 87.511719 C 101.132812 87.75 100.300781 88.128906 99.542969 88.621094 C 98.785156 89.117188 98.101562 89.726562 97.535156 90.425781 C 96.96875 91.125 96.511719 91.914062 96.261719 92.773438 C 96.890625 92.140625 97.492188 91.546875 98.132812 91.003906 C 98.765625 90.460938 99.429688 89.960938 100.121094 89.511719 C 100.8125 89.0625 101.535156 88.65625 102.289062 88.296875 C 103.046875 87.933594 103.832031 87.621094 104.664062 87.300781 C 103.777344 87.179688 102.871094 87.28125 102.003906 87.511719 Z M 92.355469 85.996094 C 92.683594 86.808594 92.984375 87.632812 93.265625 88.472656 C 93.550781 89.308594 93.808594 90.164062 94.109375 91.042969 C 94.25 90.121094 94.210938 89.191406 94.074219 88.277344 C 93.9375 87.363281 93.6875 86.460938 93.339844 85.601562 C 92.996094 84.742188 92.554688 83.917969 92.023438 83.160156 C 91.488281 82.40625 90.871094 81.707031 90.132812 81.144531 C 90.523438 81.984375 90.925781 82.777344 91.300781 83.582031 C 91.675781 84.382812 92.027344 85.183594 92.355469 85.996094 Z M 14.917969 44.910156 C 15.871094 45.191406 16.875 44.644531 17.152344 43.691406 C 17.433594 42.734375 16.886719 41.734375 15.929688 41.453125 C 14.976562 41.175781 13.976562 41.722656 13.695312 42.675781 C 13.414062 43.632812 13.960938 44.632812 14.917969 44.910156 Z M 17.492188 48.808594 C 16.539062 48.527344 15.535156 49.074219 15.257812 50.03125 C 14.976562 50.984375 15.523438 51.988281 16.480469 52.265625 C 17.433594 52.546875 18.4375 52 18.714844 51.042969 C 18.996094 50.089844 18.445312 49.089844 17.492188 48.808594 Z M 11.410156 50.488281 C 10.453125 50.207031 9.453125 50.753906 9.171875 51.707031 C 8.894531 52.664062 9.441406 53.664062 10.394531 53.945312 C 11.347656 54.222656 12.351562 53.675781 12.628906 52.722656 C 12.910156 51.769531 12.363281 50.765625 11.410156 50.488281 Z M 6.832031 49.210938 C 5.980469 48.691406 4.871094 48.957031 4.351562 49.808594 C 3.835938 50.65625 4.101562 51.765625 4.949219 52.285156 C 5.796875 52.804688 6.90625 52.535156 7.425781 51.6875 C 7.945312 50.839844 7.679688 49.730469 6.832031 49.210938 Z M 3.238281 45.421875 C 2.390625 44.902344 1.28125 45.167969 0.761719 46.019531 C 0.242188 46.867188 0.507812 47.976562 1.359375 48.496094 C 2.207031 49.015625 3.316406 48.746094 3.835938 47.898438 C 4.355469 47.050781 4.085938 45.941406 3.238281 45.421875 Z M 9.945312 44.117188 C 10.464844 43.269531 10.195312 42.160156 9.347656 41.640625 C 8.5 41.121094 7.390625 41.390625 6.871094 42.238281 C 6.351562 43.085938 6.617188 44.195312 7.46875 44.714844 C 8.316406 45.234375 9.425781 44.96875 9.945312 44.117188 Z M 61.019531 64.144531 L 60.785156 64.390625 C 58.742188 63.121094 56.804688 61.789062 54.863281 60.484375 C 52.914062 59.1875 50.996094 57.890625 49.039062 56.675781 C 47.089844 55.445312 45.15625 54.230469 43.195312 53.046875 C 41.242188 51.84375 39.203125 50.78125 37.09375 49.878906 C 32.882812 48.09375 28.367188 46.9375 23.765625 46.601562 C 19.167969 46.210938 14.460938 46.707031 10.011719 48.210938 L 9.886719 47.894531 C 14.1875 45.863281 19.015625 44.960938 23.824219 44.90625 C 28.648438 44.910156 33.46875 45.777344 38.0625 47.34375 C 40.355469 48.117188 42.601562 49.050781 44.792969 50.09375 C 46.976562 51.152344 49.042969 52.433594 50.972656 53.886719 C 52.886719 55.359375 54.707031 56.933594 56.386719 58.648438 C 58.070312 60.355469 59.640625 62.167969 61.019531 64.144531 " fill-opacity="1" fill-rule="nonzero"/></g></svg>