<svg xmlns="http://www.w3.org/2000/svg" xmlns:xlink="http://www.w3.org/1999/xlink" width="1366" zoomAndPan="magnify" viewBox="0 0 1024.5 576" height="768" preserveAspectRatio="xMidYMid meet" version="1.0"><defs><clipPath id="0433e91e91"><path d="M 0 0.140625 L 1024 0.140625 L 1024 575.859375 L 0 575.859375 Z M 0 0.140625 " clip-rule="nonzero"/></clipPath><clipPath id="54b5e05adb"><path d="M 36.214844 150.542969 L 82.691406 150.542969 L 82.691406 164 L 36.214844 164 Z M 36.214844 150.542969 " clip-rule="nonzero"/></clipPath><clipPath id="7b09dd1a98"><path d="M 763.761719 447.382812 L 810.238281 447.382812 L 810.238281 460.875 L 763.761719 460.875 Z M 763.761719 447.382812 " clip-rule="nonzero"/></clipPath><clipPath id="551efae6bd"><path d="M 340.492188 278.007812 L 374.976562 278.007812 L 374.976562 287.753906 L 340.492188 287.753906 Z M 340.492188 278.007812 " clip-rule="nonzero"/></clipPath><clipPath id="29ca083b92"><path d="M 176.464844 396.058594 L 222.941406 396.058594 L 222.941406 409.550781 L 176.464844 409.550781 Z M 176.464844 396.058594 " clip-rule="nonzero"/></clipPath><clipPath id="f85db6e084"><path d="M 433.121094 47.722656 L 467.601562 47.722656 L 467.601562 57.46875 L 433.121094 57.46875 Z M 433.121094 47.722656 " clip-rule="nonzero"/></clipPath><clipPath id="c7b8d00036"><path d="M 881.269531 137.164062 L 927.746094 137.164062 L 927.746094 150.65625 L 881.269531 150.65625 Z M 881.269531 137.164062 " clip-rule="nonzero"/></clipPath><clipPath id="f87b6da736"><path d="M 586.582031 369.441406 L 623.3125 369.441406 L 623.3125 379.9375 L 586.582031 379.9375 Z M 586.582031 369.441406 " clip-rule="nonzero"/></clipPath></defs><g clip-path="url(#0433e91e91)"><path fill="#ffffff" d="M 0 0.140625 L 1024 0.140625 L 1024 575.859375 L 0 575.859375 Z M 0 0.140625 " fill-opacity="1" fill-rule="nonzero"/><path fill="#fdd570" d="M 0 0.140625 L 1024 0.140625 L 1024 575.859375 L 0 575.859375 Z M 0 0.140625 " fill-opacity="1" fill-rule="nonzero"/></g><g clip-path="url(#54b5e05adb)"><path fill="#f5a162" d="M 82.785156 157.230469 C 82.785156 157.449219 82.75 157.667969 82.671875 157.886719 C 82.597656 158.101562 82.488281 158.320312 82.339844 158.535156 C 82.191406 158.75 82.003906 158.960938 81.78125 159.171875 C 81.5625 159.378906 81.304688 159.585938 81.011719 159.789062 C 80.722656 159.988281 80.394531 160.1875 80.035156 160.382812 C 79.675781 160.574219 79.285156 160.761719 78.863281 160.945312 C 78.4375 161.125 77.984375 161.300781 77.5 161.46875 C 77.015625 161.640625 76.503906 161.800781 75.964844 161.957031 C 75.425781 162.109375 74.863281 162.257812 74.273438 162.398438 C 73.683594 162.535156 73.070312 162.664062 72.4375 162.789062 C 71.804688 162.910156 71.148438 163.023438 70.476562 163.125 C 69.804688 163.226562 69.117188 163.320312 68.410156 163.40625 C 67.707031 163.488281 66.988281 163.5625 66.257812 163.625 C 65.53125 163.691406 64.789062 163.742188 64.042969 163.785156 C 63.296875 163.828125 62.542969 163.859375 61.78125 163.882812 C 61.023438 163.902344 60.261719 163.914062 59.5 163.914062 C 58.738281 163.914062 57.976562 163.902344 57.21875 163.882812 C 56.457031 163.859375 55.707031 163.828125 54.957031 163.785156 C 54.210938 163.742188 53.46875 163.691406 52.742188 163.625 C 52.011719 163.5625 51.292969 163.488281 50.589844 163.40625 C 49.882812 163.320312 49.195312 163.226562 48.523438 163.125 C 47.851562 163.023438 47.199219 162.910156 46.5625 162.789062 C 45.929688 162.664062 45.316406 162.535156 44.726562 162.398438 C 44.136719 162.257812 43.574219 162.109375 43.035156 161.957031 C 42.496094 161.800781 41.984375 161.640625 41.5 161.46875 C 41.015625 161.300781 40.5625 161.125 40.140625 160.945312 C 39.714844 160.761719 39.324219 160.574219 38.964844 160.382812 C 38.605469 160.1875 38.277344 159.988281 37.988281 159.789062 C 37.695312 159.585938 37.4375 159.378906 37.21875 159.171875 C 36.996094 158.960938 36.8125 158.75 36.660156 158.535156 C 36.511719 158.320312 36.402344 158.101562 36.328125 157.886719 C 36.253906 157.667969 36.214844 157.449219 36.214844 157.230469 C 36.214844 157.011719 36.253906 156.792969 36.328125 156.574219 C 36.402344 156.355469 36.511719 156.140625 36.660156 155.925781 C 36.8125 155.710938 36.996094 155.5 37.21875 155.289062 C 37.4375 155.082031 37.695312 154.875 37.988281 154.671875 C 38.277344 154.46875 38.605469 154.273438 38.964844 154.078125 C 39.324219 153.886719 39.714844 153.699219 40.140625 153.515625 C 40.5625 153.335938 41.015625 153.160156 41.5 152.988281 C 41.984375 152.820312 42.496094 152.660156 43.035156 152.503906 C 43.574219 152.347656 44.136719 152.203125 44.726562 152.0625 C 45.316406 151.925781 45.929688 151.792969 46.5625 151.671875 C 47.199219 151.550781 47.851562 151.4375 48.523438 151.335938 C 49.195312 151.230469 49.882812 151.140625 50.589844 151.054688 C 51.292969 150.972656 52.011719 150.898438 52.742188 150.835938 C 53.46875 150.769531 54.210938 150.71875 54.957031 150.675781 C 55.707031 150.632812 56.457031 150.601562 57.21875 150.578125 C 57.976562 150.558594 58.738281 150.546875 59.5 150.546875 C 60.261719 150.546875 61.023438 150.558594 61.78125 150.578125 C 62.542969 150.601562 63.296875 150.632812 64.042969 150.675781 C 64.789062 150.71875 65.53125 150.769531 66.257812 150.835938 C 66.988281 150.898438 67.707031 150.972656 68.410156 151.054688 C 69.117188 151.140625 69.804688 151.230469 70.476562 151.335938 C 71.148438 151.4375 71.804688 151.550781 72.4375 151.671875 C 73.070312 151.792969 73.683594 151.925781 74.273438 152.0625 C 74.863281 152.203125 75.425781 152.347656 75.964844 152.503906 C 76.503906 152.660156 77.015625 152.820312 77.5 152.988281 C 77.984375 153.160156 78.4375 153.335938 78.863281 153.515625 C 79.285156 153.699219 79.675781 153.886719 80.035156 154.078125 C 80.394531 154.273438 80.722656 154.46875 81.011719 154.671875 C 81.304688 154.875 81.5625 155.082031 81.78125 155.289062 C 82.003906 155.5 82.191406 155.710938 82.339844 155.925781 C 82.488281 156.140625 82.597656 156.355469 82.671875 156.574219 C 82.75 156.792969 82.785156 157.011719 82.785156 157.230469 Z M 82.785156 157.230469 " fill-opacity="1" fill-rule="nonzero"/></g><g clip-path="url(#7b09dd1a98)"><path fill="#f5a162" d="M 810.332031 454.070312 C 810.332031 454.289062 810.292969 454.507812 810.21875 454.726562 C 810.144531 454.941406 810.03125 455.160156 809.882812 455.375 C 809.734375 455.589844 809.550781 455.800781 809.328125 456.011719 C 809.105469 456.21875 808.851562 456.425781 808.558594 456.628906 C 808.265625 456.828125 807.941406 457.027344 807.582031 457.21875 C 807.222656 457.414062 806.832031 457.601562 806.40625 457.78125 C 805.984375 457.964844 805.53125 458.140625 805.046875 458.308594 C 804.5625 458.480469 804.050781 458.640625 803.511719 458.796875 C 802.972656 458.949219 802.40625 459.097656 801.816406 459.238281 C 801.226562 459.375 800.617188 459.503906 799.980469 459.628906 C 799.347656 459.75 798.695312 459.859375 798.023438 459.964844 C 797.351562 460.066406 796.660156 460.160156 795.957031 460.246094 C 795.253906 460.328125 794.535156 460.402344 793.804688 460.464844 C 793.074219 460.53125 792.335938 460.582031 791.589844 460.625 C 790.839844 460.667969 790.085938 460.699219 789.328125 460.722656 C 788.570312 460.742188 787.808594 460.753906 787.046875 460.753906 C 786.28125 460.753906 785.523438 460.742188 784.761719 460.722656 C 784.003906 460.699219 783.25 460.667969 782.503906 460.625 C 781.753906 460.582031 781.015625 460.53125 780.285156 460.464844 C 779.554688 460.402344 778.839844 460.328125 778.132812 460.246094 C 777.429688 460.160156 776.742188 460.066406 776.070312 459.964844 C 775.394531 459.859375 774.742188 459.75 774.109375 459.628906 C 773.476562 459.503906 772.863281 459.375 772.273438 459.238281 C 771.683594 459.097656 771.121094 458.949219 770.582031 458.796875 C 770.042969 458.640625 769.53125 458.480469 769.046875 458.308594 C 768.5625 458.140625 768.109375 457.964844 767.683594 457.78125 C 767.261719 457.601562 766.871094 457.414062 766.507812 457.21875 C 766.148438 457.027344 765.824219 456.828125 765.53125 456.628906 C 765.242188 456.425781 764.984375 456.21875 764.761719 456.011719 C 764.542969 455.800781 764.355469 455.589844 764.207031 455.375 C 764.058594 455.160156 763.945312 454.941406 763.871094 454.726562 C 763.796875 454.507812 763.761719 454.289062 763.761719 454.070312 C 763.761719 453.851562 763.796875 453.632812 763.871094 453.414062 C 763.945312 453.195312 764.058594 452.980469 764.207031 452.765625 C 764.355469 452.550781 764.542969 452.339844 764.761719 452.128906 C 764.984375 451.921875 765.242188 451.714844 765.53125 451.511719 C 765.824219 451.308594 766.148438 451.113281 766.507812 450.917969 C 766.871094 450.726562 767.261719 450.539062 767.683594 450.355469 C 768.109375 450.175781 768.5625 450 769.046875 449.828125 C 769.53125 449.660156 770.042969 449.5 770.582031 449.34375 C 771.121094 449.1875 771.683594 449.042969 772.273438 448.902344 C 772.863281 448.765625 773.476562 448.632812 774.109375 448.511719 C 774.742188 448.390625 775.394531 448.277344 776.070312 448.175781 C 776.742188 448.070312 777.429688 447.976562 778.132812 447.894531 C 778.839844 447.8125 779.554688 447.738281 780.285156 447.671875 C 781.015625 447.609375 781.753906 447.558594 782.503906 447.515625 C 783.25 447.472656 784.003906 447.441406 784.761719 447.417969 C 785.523438 447.398438 786.28125 447.386719 787.046875 447.386719 C 787.808594 447.386719 788.570312 447.398438 789.328125 447.417969 C 790.085938 447.441406 790.839844 447.472656 791.589844 447.515625 C 792.335938 447.558594 793.074219 447.609375 793.804688 447.671875 C 794.535156 447.738281 795.253906 447.8125 795.957031 447.894531 C 796.660156 447.976562 797.351562 448.070312 798.023438 448.175781 C 798.695312 448.277344 799.347656 448.390625 799.980469 448.511719 C 800.617188 448.632812 801.226562 448.765625 801.816406 448.902344 C 802.40625 449.042969 802.972656 449.1875 803.511719 449.34375 C 804.050781 449.5 804.5625 449.660156 805.046875 449.828125 C 805.53125 450 805.984375 450.175781 806.40625 450.355469 C 806.832031 450.539062 807.222656 450.726562 807.582031 450.917969 C 807.941406 451.113281 808.265625 451.308594 808.558594 451.511719 C 808.851562 451.714844 809.105469 451.921875 809.328125 452.128906 C 809.550781 452.339844 809.734375 452.550781 809.882812 452.765625 C 810.03125 452.980469 810.144531 453.195312 810.21875 453.414062 C 810.292969 453.632812 810.332031 453.851562 810.332031 454.070312 Z M 810.332031 454.070312 " fill-opacity="1" fill-rule="nonzero"/></g><g clip-path="url(#551efae6bd)"><path fill="#f5a162" d="M 375.261719 283 C 375.261719 283.328125 375.148438 283.652344 374.925781 283.972656 C 374.703125 284.292969 374.375 284.605469 373.9375 284.910156 C 373.5 285.210938 372.964844 285.5 372.332031 285.769531 C 371.699219 286.042969 370.976562 286.296875 370.167969 286.527344 C 369.363281 286.757812 368.484375 286.964844 367.535156 287.148438 C 366.585938 287.328125 365.585938 287.484375 364.53125 287.609375 C 363.476562 287.734375 362.390625 287.828125 361.269531 287.894531 C 360.152344 287.957031 359.019531 287.988281 357.878906 287.988281 C 356.738281 287.988281 355.609375 287.957031 354.488281 287.894531 C 353.371094 287.828125 352.28125 287.734375 351.226562 287.609375 C 350.175781 287.484375 349.171875 287.328125 348.222656 287.148438 C 347.273438 286.964844 346.398438 286.757812 345.589844 286.527344 C 344.78125 286.296875 344.0625 286.042969 343.429688 285.769531 C 342.792969 285.5 342.257812 285.210938 341.820312 284.910156 C 341.386719 284.605469 341.054688 284.292969 340.832031 283.972656 C 340.609375 283.652344 340.5 283.328125 340.5 283 C 340.5 282.671875 340.609375 282.347656 340.832031 282.027344 C 341.054688 281.703125 341.386719 281.394531 341.820312 281.089844 C 342.257812 280.789062 342.792969 280.5 343.429688 280.226562 C 344.0625 279.957031 344.78125 279.703125 345.589844 279.472656 C 346.398438 279.238281 347.273438 279.035156 348.222656 278.851562 C 349.171875 278.667969 350.175781 278.515625 351.226562 278.390625 C 352.28125 278.265625 353.371094 278.171875 354.488281 278.105469 C 355.609375 278.042969 356.738281 278.011719 357.878906 278.011719 C 359.019531 278.011719 360.152344 278.042969 361.269531 278.105469 C 362.390625 278.171875 363.476562 278.265625 364.53125 278.390625 C 365.585938 278.515625 366.585938 278.667969 367.535156 278.851562 C 368.484375 279.035156 369.363281 279.238281 370.167969 279.472656 C 370.976562 279.703125 371.699219 279.957031 372.332031 280.226562 C 372.964844 280.5 373.5 280.789062 373.9375 281.089844 C 374.375 281.394531 374.703125 281.703125 374.925781 282.027344 C 375.148438 282.347656 375.261719 282.671875 375.261719 283 Z M 375.261719 283 " fill-opacity="1" fill-rule="nonzero"/></g><g clip-path="url(#29ca083b92)"><path fill="#f5a162" d="M 223.035156 402.746094 C 223.035156 402.964844 222.996094 403.183594 222.921875 403.402344 C 222.847656 403.621094 222.734375 403.835938 222.585938 404.050781 C 222.4375 404.265625 222.253906 404.476562 222.03125 404.6875 C 221.8125 404.894531 221.554688 405.101562 221.261719 405.304688 C 220.96875 405.507812 220.644531 405.703125 220.285156 405.898438 C 219.925781 406.089844 219.535156 406.277344 219.109375 406.460938 C 218.6875 406.640625 218.234375 406.816406 217.75 406.988281 C 217.265625 407.15625 216.753906 407.316406 216.214844 407.472656 C 215.675781 407.628906 215.109375 407.773438 214.519531 407.914062 C 213.933594 408.050781 213.320312 408.183594 212.6875 408.304688 C 212.050781 408.425781 211.398438 408.539062 210.726562 408.640625 C 210.054688 408.742188 209.363281 408.835938 208.660156 408.921875 C 207.957031 409.003906 207.238281 409.078125 206.507812 409.140625 C 205.777344 409.207031 205.039062 409.257812 204.292969 409.300781 C 203.542969 409.34375 202.789062 409.375 202.03125 409.398438 C 201.273438 409.417969 200.511719 409.429688 199.75 409.429688 C 198.988281 409.429688 198.226562 409.417969 197.464844 409.398438 C 196.707031 409.375 195.953125 409.34375 195.207031 409.300781 C 194.457031 409.257812 193.71875 409.207031 192.988281 409.140625 C 192.261719 409.078125 191.542969 409.003906 190.839844 408.921875 C 190.132812 408.835938 189.445312 408.742188 188.773438 408.640625 C 188.101562 408.539062 187.445312 408.425781 186.8125 408.304688 C 186.179688 408.183594 185.566406 408.050781 184.976562 407.914062 C 184.386719 407.773438 183.824219 407.628906 183.285156 407.472656 C 182.746094 407.316406 182.234375 407.15625 181.75 406.988281 C 181.265625 406.816406 180.8125 406.640625 180.386719 406.460938 C 179.964844 406.277344 179.574219 406.089844 179.214844 405.898438 C 178.855469 405.703125 178.527344 405.507812 178.234375 405.304688 C 177.945312 405.101562 177.6875 404.894531 177.464844 404.6875 C 177.246094 404.476562 177.058594 404.265625 176.910156 404.050781 C 176.761719 403.835938 176.652344 403.621094 176.574219 403.402344 C 176.5 403.183594 176.464844 402.964844 176.464844 402.746094 C 176.464844 402.527344 176.5 402.308594 176.574219 402.089844 C 176.652344 401.875 176.761719 401.65625 176.910156 401.441406 C 177.058594 401.226562 177.246094 401.015625 177.464844 400.804688 C 177.6875 400.597656 177.945312 400.390625 178.234375 400.1875 C 178.527344 399.984375 178.855469 399.789062 179.214844 399.59375 C 179.574219 399.402344 179.964844 399.214844 180.386719 399.03125 C 180.8125 398.851562 181.265625 398.675781 181.75 398.507812 C 182.234375 398.335938 182.746094 398.175781 183.285156 398.019531 C 183.824219 397.867188 184.386719 397.71875 184.976562 397.578125 C 185.566406 397.441406 186.179688 397.3125 186.8125 397.1875 C 187.445312 397.066406 188.101562 396.953125 188.773438 396.851562 C 189.445312 396.75 190.132812 396.65625 190.839844 396.570312 C 191.542969 396.488281 192.261719 396.414062 192.988281 396.351562 C 193.71875 396.285156 194.457031 396.234375 195.207031 396.191406 C 195.953125 396.148438 196.707031 396.117188 197.464844 396.09375 C 198.226562 396.074219 198.988281 396.0625 199.75 396.0625 C 200.511719 396.0625 201.273438 396.074219 202.03125 396.09375 C 202.789062 396.117188 203.542969 396.148438 204.292969 396.191406 C 205.039062 396.234375 205.777344 396.285156 206.507812 396.351562 C 207.238281 396.414062 207.957031 396.488281 208.660156 396.570312 C 209.363281 396.65625 210.054688 396.75 210.726562 396.851562 C 211.398438 396.953125 212.050781 397.066406 212.6875 397.1875 C 213.320312 397.3125 213.933594 397.441406 214.519531 397.578125 C 215.109375 397.71875 215.675781 397.867188 216.214844 398.019531 C 216.753906 398.175781 217.265625 398.335938 217.75 398.507812 C 218.234375 398.675781 218.6875 398.851562 219.109375 399.03125 C 219.535156 399.214844 219.925781 399.402344 220.285156 399.59375 C 220.644531 399.789062 220.96875 399.984375 221.261719 400.1875 C 221.554688 400.390625 221.8125 400.597656 222.03125 400.804688 C 222.253906 401.015625 222.4375 401.226562 222.585938 401.441406 C 222.734375 401.65625 222.847656 401.875 222.921875 402.089844 C 222.996094 402.308594 223.035156 402.527344 223.035156 402.746094 Z M 223.035156 402.746094 " fill-opacity="1" fill-rule="nonzero"/></g><g clip-path="url(#f85db6e084)"><path fill="#f5a162" d="M 467.886719 52.710938 C 467.886719 53.039062 467.777344 53.363281 467.554688 53.683594 C 467.332031 54.007812 467.003906 54.320312 466.566406 54.621094 C 466.128906 54.921875 465.59375 55.210938 464.960938 55.484375 C 464.324219 55.757812 463.605469 56.007812 462.796875 56.238281 C 461.992188 56.472656 461.113281 56.679688 460.164062 56.859375 C 459.214844 57.042969 458.214844 57.195312 457.160156 57.320312 C 456.105469 57.445312 455.019531 57.542969 453.898438 57.605469 C 452.777344 57.667969 451.648438 57.699219 450.507812 57.699219 C 449.367188 57.699219 448.234375 57.667969 447.117188 57.605469 C 445.996094 57.542969 444.910156 57.445312 443.855469 57.320312 C 442.800781 57.195312 441.800781 57.042969 440.851562 56.859375 C 439.902344 56.679688 439.023438 56.472656 438.21875 56.238281 C 437.410156 56.007812 436.691406 55.757812 436.054688 55.484375 C 435.421875 55.210938 434.886719 54.921875 434.449219 54.621094 C 434.011719 54.320312 433.683594 54.007812 433.460938 53.683594 C 433.238281 53.363281 433.125 53.039062 433.125 52.710938 C 433.125 52.382812 433.238281 52.058594 433.460938 51.738281 C 433.683594 51.417969 434.011719 51.105469 434.449219 50.800781 C 434.886719 50.5 435.421875 50.210938 436.054688 49.941406 C 436.691406 49.667969 437.410156 49.414062 438.21875 49.183594 C 439.023438 48.953125 439.902344 48.746094 440.851562 48.5625 C 441.800781 48.382812 442.800781 48.226562 443.855469 48.101562 C 444.910156 47.976562 445.996094 47.882812 447.117188 47.820312 C 448.234375 47.753906 449.367188 47.722656 450.507812 47.722656 C 451.648438 47.722656 452.777344 47.753906 453.898438 47.820312 C 455.019531 47.882812 456.105469 47.976562 457.160156 48.101562 C 458.214844 48.226562 459.214844 48.382812 460.164062 48.5625 C 461.113281 48.746094 461.992188 48.953125 462.796875 49.183594 C 463.605469 49.414062 464.324219 49.667969 464.960938 49.941406 C 465.59375 50.210938 466.128906 50.5 466.566406 50.800781 C 467.003906 51.105469 467.332031 51.417969 467.554688 51.738281 C 467.777344 52.058594 467.886719 52.382812 467.886719 52.710938 Z M 467.886719 52.710938 " fill-opacity="1" fill-rule="nonzero"/></g><g clip-path="url(#c7b8d00036)"><path fill="#f5a162" d="M 927.839844 143.851562 C 927.839844 144.070312 927.804688 144.289062 927.726562 144.503906 C 927.652344 144.722656 927.542969 144.941406 927.394531 145.15625 C 927.246094 145.371094 927.058594 145.582031 926.839844 145.789062 C 926.617188 146 926.359375 146.207031 926.066406 146.410156 C 925.777344 146.609375 925.449219 146.808594 925.089844 147 C 924.730469 147.195312 924.339844 147.382812 923.917969 147.5625 C 923.492188 147.746094 923.039062 147.921875 922.554688 148.089844 C 922.070312 148.261719 921.558594 148.421875 921.019531 148.578125 C 920.480469 148.730469 919.917969 148.878906 919.328125 149.015625 C 918.738281 149.15625 918.125 149.285156 917.492188 149.40625 C 916.859375 149.53125 916.203125 149.640625 915.53125 149.746094 C 914.859375 149.847656 914.171875 149.941406 913.464844 150.027344 C 912.761719 150.109375 912.042969 150.183594 911.316406 150.246094 C 910.585938 150.308594 909.847656 150.363281 909.097656 150.40625 C 908.351562 150.449219 907.597656 150.480469 906.835938 150.503906 C 906.078125 150.523438 905.316406 150.535156 904.554688 150.535156 C 903.792969 150.535156 903.03125 150.523438 902.273438 150.503906 C 901.515625 150.480469 900.761719 150.449219 900.011719 150.40625 C 899.265625 150.363281 898.527344 150.308594 897.796875 150.246094 C 897.066406 150.183594 896.347656 150.109375 895.644531 150.027344 C 894.941406 149.941406 894.25 149.847656 893.578125 149.746094 C 892.90625 149.640625 892.253906 149.53125 891.617188 149.40625 C 890.984375 149.285156 890.371094 149.15625 889.78125 149.015625 C 889.195312 148.878906 888.628906 148.730469 888.089844 148.578125 C 887.550781 148.421875 887.039062 148.261719 886.554688 148.089844 C 886.070312 147.921875 885.617188 147.746094 885.195312 147.5625 C 884.769531 147.382812 884.378906 147.195312 884.019531 147 C 883.660156 146.808594 883.332031 146.609375 883.042969 146.410156 C 882.75 146.207031 882.492188 146 882.273438 145.789062 C 882.050781 145.582031 881.867188 145.371094 881.71875 145.15625 C 881.566406 144.941406 881.457031 144.722656 881.382812 144.503906 C 881.308594 144.289062 881.269531 144.070312 881.269531 143.851562 C 881.269531 143.632812 881.308594 143.414062 881.382812 143.195312 C 881.457031 142.976562 881.566406 142.761719 881.71875 142.546875 C 881.867188 142.332031 882.050781 142.121094 882.273438 141.910156 C 882.492188 141.699219 882.75 141.496094 883.042969 141.292969 C 883.332031 141.089844 883.660156 140.894531 884.019531 140.699219 C 884.378906 140.507812 884.769531 140.320312 885.195312 140.136719 C 885.617188 139.957031 886.070312 139.78125 886.554688 139.609375 C 887.039062 139.441406 887.550781 139.277344 888.089844 139.125 C 888.628906 138.96875 889.195312 138.824219 889.78125 138.683594 C 890.371094 138.546875 890.984375 138.414062 891.617188 138.292969 C 892.253906 138.171875 892.90625 138.058594 893.578125 137.957031 C 894.25 137.851562 894.941406 137.757812 895.644531 137.675781 C 896.347656 137.589844 897.066406 137.519531 897.796875 137.453125 C 898.527344 137.390625 899.265625 137.335938 900.011719 137.296875 C 900.761719 137.253906 901.515625 137.21875 902.273438 137.199219 C 903.03125 137.175781 903.792969 137.167969 904.554688 137.167969 C 905.316406 137.167969 906.078125 137.175781 906.835938 137.199219 C 907.597656 137.21875 908.351562 137.253906 909.097656 137.296875 C 909.847656 137.335938 910.585938 137.390625 911.316406 137.453125 C 912.042969 137.519531 912.761719 137.589844 913.464844 137.675781 C 914.171875 137.757812 914.859375 137.851562 915.53125 137.957031 C 916.203125 138.058594 916.859375 138.171875 917.492188 138.292969 C 918.125 138.414062 918.738281 138.546875 919.328125 138.683594 C 919.917969 138.824219 920.480469 138.96875 921.019531 139.125 C 921.558594 139.277344 922.070312 139.441406 922.554688 139.609375 C 923.039062 139.78125 923.492188 139.957031 923.917969 140.136719 C 924.339844 140.320312 924.730469 140.507812 925.089844 140.699219 C 925.449219 140.894531 925.777344 141.089844 926.066406 141.292969 C 926.359375 141.496094 926.617188 141.699219 926.839844 141.910156 C 927.058594 142.121094 927.246094 142.332031 927.394531 142.546875 C 927.542969 142.761719 927.652344 142.976562 927.726562 143.195312 C 927.804688 143.414062 927.839844 143.632812 927.839844 143.851562 Z M 927.839844 143.851562 " fill-opacity="1" fill-rule="nonzero"/></g><g clip-path="url(#f87b6da736)"><path fill="#f5a162" d="M 623.671875 374.765625 C 623.671875 375.117188 623.554688 375.460938 623.316406 375.804688 C 623.078125 376.148438 622.726562 376.480469 622.261719 376.804688 C 621.796875 377.125 621.226562 377.433594 620.546875 377.722656 C 619.871094 378.015625 619.101562 378.28125 618.242188 378.53125 C 617.382812 378.777344 616.445312 379 615.433594 379.191406 C 614.417969 379.386719 613.351562 379.550781 612.226562 379.683594 C 611.101562 379.816406 609.941406 379.917969 608.746094 379.988281 C 607.554688 380.054688 606.347656 380.089844 605.128906 380.089844 C 603.910156 380.089844 602.707031 380.054688 601.511719 379.988281 C 600.316406 379.917969 599.160156 379.816406 598.035156 379.683594 C 596.910156 379.550781 595.839844 379.386719 594.828125 379.191406 C 593.816406 379 592.878906 378.777344 592.015625 378.53125 C 591.15625 378.28125 590.386719 378.015625 589.710938 377.722656 C 589.035156 377.433594 588.464844 377.125 587.996094 376.804688 C 587.53125 376.480469 587.179688 376.148438 586.941406 375.804688 C 586.703125 375.460938 586.585938 375.117188 586.585938 374.765625 C 586.585938 374.417969 586.703125 374.070312 586.941406 373.726562 C 587.179688 373.386719 587.53125 373.050781 587.996094 372.730469 C 588.464844 372.40625 589.035156 372.101562 589.710938 371.808594 C 590.386719 371.519531 591.15625 371.25 592.015625 371.003906 C 592.878906 370.753906 593.816406 370.535156 594.828125 370.339844 C 595.839844 370.148438 596.910156 369.984375 598.035156 369.847656 C 599.160156 369.714844 600.316406 369.613281 601.511719 369.546875 C 602.707031 369.476562 603.910156 369.445312 605.128906 369.445312 C 606.347656 369.445312 607.554688 369.476562 608.746094 369.546875 C 609.941406 369.613281 611.101562 369.714844 612.226562 369.847656 C 613.351562 369.984375 614.417969 370.148438 615.433594 370.339844 C 616.445312 370.535156 617.382812 370.753906 618.242188 371.003906 C 619.101562 371.25 619.871094 371.519531 620.546875 371.808594 C 621.226562 372.101562 621.796875 372.40625 622.261719 372.730469 C 622.726562 373.050781 623.078125 373.386719 623.316406 373.726562 C 623.554688 374.070312 623.671875 374.417969 623.671875 374.765625 Z M 623.671875 374.765625 " fill-opacity="1" fill-rule="nonzero"/></g></svg>