<svg xmlns="http://www.w3.org/2000/svg" xmlns:xlink="http://www.w3.org/1999/xlink" width="1366" zoomAndPan="magnify" viewBox="0 0 1024.5 576" height="768" preserveAspectRatio="xMidYMid meet" version="1.0"><defs><clipPath id="2d217e14f0"><path d="M 182.8125 351.710938 L 544.941406 351.710938 L 544.941406 391.285156 L 182.8125 391.285156 Z M 182.8125 351.710938 " clip-rule="nonzero"/></clipPath><clipPath id="1c57b1d9d4"><path d="M 190.03125 375.621094 C 243.332031 372.25 267.320312 374.574219 282.460938 372.625 C 293.183594 371.273438 299.253906 367.675781 309.449219 365.875 C 322.640625 363.628906 339.210938 362.578125 355.101562 361.527344 C 372.34375 360.40625 390.558594 359.804688 409.148438 359.578125 C 428.867188 359.28125 459.300781 360.777344 470.171875 360.328125 C 474.070312 360.105469 474.742188 360.03125 478.191406 359.503906 C 484.261719 358.53125 495.507812 355.308594 503.230469 354.03125 C 509.75 352.984375 515.824219 352.382812 521.59375 352.082031 C 526.691406 351.785156 532.539062 351.484375 536.214844 352.082031 C 538.386719 352.457031 540.035156 352.757812 541.460938 353.808594 C 542.808594 354.855469 544.085938 356.730469 544.535156 358.378906 C 544.984375 360.105469 544.683594 362.503906 544.234375 363.925781 C 543.933594 364.976562 543.558594 365.578125 542.808594 366.328125 C 541.761719 367.375 539.8125 368.800781 538.085938 369.175781 C 536.363281 369.550781 533.964844 369.101562 532.539062 368.574219 C 531.566406 368.277344 530.964844 367.824219 530.292969 367.074219 C 529.242188 365.953125 528.042969 363.628906 527.667969 362.128906 C 527.367188 361.152344 527.367188 360.40625 527.667969 359.355469 C 528.042969 357.929688 528.941406 355.683594 530.214844 354.480469 C 531.492188 353.28125 533.816406 352.382812 535.238281 352.160156 C 536.289062 351.933594 537.039062 352.007812 538.011719 352.308594 C 539.4375 352.683594 541.6875 353.808594 542.808594 355.15625 C 543.933594 356.429688 544.757812 358.53125 544.835938 360.253906 C 544.910156 361.980469 544.085938 364.300781 543.410156 365.578125 C 542.886719 366.550781 542.359375 367.074219 541.460938 367.601562 C 540.1875 368.425781 538.613281 368.949219 536.214844 369.398438 C 531.265625 370.375 519.046875 369.925781 512.898438 370.523438 C 508.925781 370.824219 506.902344 371.125 503.003906 371.796875 C 497.457031 372.773438 489.0625 375.171875 482.6875 376.222656 C 476.992188 377.121094 473.617188 377.570312 466.648438 377.945312 C 453.378906 378.546875 428.117188 376.820312 409.148438 376.972656 C 390.558594 377.195312 367.769531 378.097656 354.050781 378.84375 C 345.882812 379.296875 341.90625 379.519531 334.410156 380.269531 C 324.367188 381.320312 306.675781 382.820312 299.328125 384.691406 C 295.804688 385.59375 294.382812 386.941406 291.683594 387.691406 C 288.757812 388.441406 286.960938 388.742188 282.460938 389.039062 C 270.769531 389.863281 235.683594 388.214844 218.445312 388.816406 C 206.824219 389.191406 194.605469 392.265625 189.132812 390.914062 C 186.734375 390.316406 185.460938 389.414062 184.410156 388.066406 C 183.359375 386.714844 182.6875 384.542969 182.835938 382.894531 C 182.910156 381.167969 183.886719 379.070312 185.085938 377.871094 C 186.285156 376.671875 190.03125 375.621094 190.03125 375.621094 " clip-rule="nonzero"/></clipPath><clipPath id="2f5f569d65"><path d="M 20.117188 563.0625 L 97.964844 563.0625 L 97.964844 575.859375 L 20.117188 575.859375 Z M 20.117188 563.0625 " clip-rule="nonzero"/></clipPath><clipPath id="2d9b4986f2"><path d="M 26.460938 567.839844 C 63.121094 564.691406 86.882812 561.917969 93.105469 563.714844 C 95.054688 564.316406 95.804688 565.066406 96.554688 566.1875 C 97.378906 567.238281 97.902344 568.886719 97.902344 570.238281 C 97.828125 571.585938 97.078125 573.3125 96.402344 574.285156 C 95.953125 574.960938 95.578125 575.335938 94.828125 575.710938 C 93.855469 576.234375 92.054688 576.910156 90.707031 576.757812 C 89.355469 576.683594 87.78125 576.007812 86.734375 575.109375 C 85.757812 574.285156 84.933594 572.5625 84.632812 571.4375 C 84.410156 570.6875 84.410156 570.085938 84.558594 569.261719 C 84.785156 568.136719 85.457031 566.414062 86.433594 565.441406 C 87.332031 564.464844 89.054688 563.789062 90.179688 563.492188 C 91.003906 563.339844 91.605469 563.339844 92.355469 563.566406 C 93.480469 563.867188 95.203125 564.613281 96.101562 565.589844 C 97.003906 566.5625 97.753906 568.136719 97.828125 569.488281 C 97.976562 570.835938 97.378906 572.636719 96.851562 573.6875 C 96.476562 574.359375 96.101562 574.808594 95.429688 575.261719 C 94.453125 575.933594 93.328125 576.460938 91.457031 576.835938 C 87.183594 577.660156 78.410156 576.835938 70.089844 577.359375 C 58.097656 578.109375 33.285156 583.207031 26.3125 581.855469 C 23.988281 581.40625 22.9375 580.65625 21.890625 579.457031 C 20.914062 578.332031 20.164062 576.308594 20.164062 574.808594 C 20.238281 573.234375 20.988281 571.285156 22.039062 570.085938 C 23.089844 568.960938 26.460938 567.839844 26.460938 567.839844 " clip-rule="nonzero"/></clipPath><clipPath id="9a4a65fa72"><path d="M 11.574219 555.65625 L 71.148438 555.65625 L 71.148438 571.398438 L 11.574219 571.398438 Z M 11.574219 555.65625 " clip-rule="nonzero"/></clipPath><clipPath id="506ad73e59"><path d="M 18.964844 555.695312 C 57.722656 556.367188 63.792969 556.21875 66.867188 557.644531 C 68.589844 558.394531 69.566406 559.515625 70.242188 560.792969 C 70.914062 562.066406 71.289062 563.867188 71.066406 565.289062 C 70.839844 566.714844 70.015625 568.363281 68.964844 569.335938 C 67.917969 570.386719 66.269531 571.136719 64.84375 571.285156 C 63.34375 571.511719 61.546875 571.136719 60.34375 570.386719 C 59.070312 569.636719 57.871094 568.0625 57.347656 566.9375 C 56.898438 566.113281 56.820312 565.441406 56.820312 564.691406 C 56.746094 563.941406 56.746094 563.191406 57.046875 562.367188 C 57.421875 561.167969 58.398438 559.441406 59.519531 558.542969 C 60.71875 557.644531 62.667969 557.117188 63.867188 557.042969 C 64.769531 556.96875 65.367188 557.042969 66.191406 557.34375 C 67.316406 557.867188 69.042969 558.917969 69.867188 560.117188 C 70.691406 561.316406 71.140625 563.039062 71.140625 564.539062 C 71.066406 565.964844 70.164062 567.761719 69.492188 568.8125 C 68.964844 569.488281 68.515625 569.9375 67.691406 570.3125 C 66.640625 570.835938 65.066406 571.210938 63.269531 571.363281 C 60.34375 571.511719 56.597656 570.3125 51.726562 570.011719 C 43.328125 569.5625 23.089844 571.960938 17.242188 570.164062 C 14.917969 569.414062 13.867188 568.511719 12.96875 567.164062 C 11.996094 565.8125 11.46875 563.714844 11.695312 562.140625 C 11.917969 560.492188 12.894531 558.617188 14.09375 557.570312 C 15.292969 556.445312 18.964844 555.695312 18.964844 555.695312 " clip-rule="nonzero"/></clipPath><clipPath id="edee0bdc0f"><path d="M 0 556.808594 L 51.21875 556.808594 L 51.21875 575 L 0 575 Z M 0 556.808594 " clip-rule="nonzero"/></clipPath><clipPath id="0a81996013"><path d="M 8.320312 556.894531 C 35.308594 560.417969 42.953125 558.46875 46.402344 559.667969 C 48.277344 560.34375 49.25 561.390625 50.074219 562.664062 C 50.824219 563.941406 51.273438 565.738281 51.125 567.238281 C 50.976562 568.738281 50.226562 570.460938 49.25 571.511719 C 48.277344 572.636719 46.328125 573.460938 45.128906 573.761719 C 44.304688 574.058594 43.628906 574.058594 42.730469 573.835938 C 41.53125 573.535156 39.582031 572.785156 38.605469 571.738281 C 37.558594 570.6875 36.730469 568.960938 36.507812 567.464844 C 36.355469 566.039062 36.957031 564.015625 37.480469 562.890625 C 37.855469 562.066406 38.230469 561.617188 38.980469 561.015625 C 39.957031 560.265625 41.828125 559.367188 43.328125 559.21875 C 44.753906 559.144531 46.628906 559.59375 47.828125 560.417969 C 49.101562 561.242188 50.226562 562.742188 50.75 564.089844 C 51.273438 565.515625 51.125 567.539062 50.824219 568.8125 C 50.601562 569.636719 50.375 570.238281 49.777344 570.910156 C 48.949219 571.886719 47.375 572.9375 45.878906 573.609375 C 44.226562 574.359375 42.878906 574.734375 40.105469 574.886719 C 33.433594 575.335938 11.917969 573.460938 5.921875 571.511719 C 3.523438 570.761719 2.398438 570.164062 1.347656 568.886719 C 0.300781 567.613281 -0.300781 565.363281 -0.300781 563.867188 C -0.300781 562.589844 0.148438 561.464844 0.675781 560.417969 C 1.273438 559.441406 2.097656 558.46875 3.148438 557.867188 C 4.496094 557.195312 8.320312 556.894531 8.320312 556.894531 " clip-rule="nonzero"/></clipPath><clipPath id="eb98687b84"><path d="M 0 560.34375 L 35.847656 560.34375 L 35.847656 575.859375 L 0 575.859375 Z M 0 560.34375 " clip-rule="nonzero"/></clipPath><clipPath id="8790d745bd"><path d="M 28.785156 575.035156 C -26.761719 576.308594 -27.511719 575.410156 -28.335938 574.210938 C -29.160156 573.011719 -29.609375 571.0625 -29.609375 569.863281 C -29.683594 568.960938 -29.535156 568.363281 -29.160156 567.539062 C -28.636719 566.414062 -27.511719 564.765625 -26.238281 564.015625 C -25.039062 563.265625 -23.015625 562.964844 -21.8125 562.964844 C -20.914062 562.964844 -20.316406 563.117188 -19.566406 563.566406 C -18.441406 564.164062 -16.867188 565.363281 -16.191406 566.640625 C -15.515625 567.914062 -15.144531 569.710938 -15.367188 571.210938 C -15.59375 572.636719 -16.417969 574.210938 -17.464844 575.261719 C -18.515625 576.234375 -20.164062 577.058594 -21.589844 577.207031 C -23.015625 577.433594 -24.960938 576.835938 -26.085938 576.308594 C -26.835938 575.933594 -27.363281 575.558594 -27.886719 574.808594 C -28.5625 573.835938 -29.535156 572.035156 -29.609375 570.613281 C -29.683594 569.1875 -29.011719 567.238281 -28.484375 566.1875 C -28.035156 565.441406 -27.585938 564.988281 -26.910156 564.464844 C -25.863281 563.789062 -24.664062 563.339844 -22.5625 562.964844 C -17.691406 562.066406 -5.695312 562.964844 2.699219 562.589844 C 11.167969 562.140625 22.9375 559.890625 28.109375 560.492188 C 30.433594 560.71875 31.785156 561.015625 32.984375 562.066406 C 34.257812 563.039062 35.308594 565.066406 35.609375 566.488281 C 35.90625 567.6875 35.757812 568.960938 35.382812 570.011719 C 35.007812 571.0625 34.484375 572.1875 33.507812 573.011719 C 32.382812 573.910156 28.785156 575.035156 28.785156 575.035156 " clip-rule="nonzero"/></clipPath><clipPath id="b4c776844b"><path d="M 0 561 L 34.707031 561 L 34.707031 575.859375 L 0 575.859375 Z M 0 561 " clip-rule="nonzero"/></clipPath><clipPath id="bdaea116c9"><path d="M 27.285156 576.308594 C -9.371094 576.234375 -12.96875 577.734375 -15.59375 577.207031 C -17.316406 576.835938 -18.664062 576.007812 -19.640625 574.886719 C -20.539062 573.835938 -21.289062 572.113281 -21.363281 570.613281 C -21.515625 569.1875 -20.839844 567.238281 -20.238281 566.1875 C -19.789062 565.363281 -19.414062 564.914062 -18.664062 564.464844 C -17.617188 563.714844 -15.742188 562.890625 -14.316406 562.890625 C -12.820312 562.890625 -11.09375 563.414062 -9.894531 564.316406 C -8.695312 565.140625 -7.644531 566.640625 -7.269531 568.0625 C -6.820312 569.488281 -7.046875 571.511719 -7.421875 572.710938 C -7.644531 573.535156 -7.945312 574.058594 -8.546875 574.734375 C -9.445312 575.632812 -11.09375 576.835938 -12.519531 577.132812 C -13.941406 577.507812 -15.742188 577.359375 -17.089844 576.757812 C -18.441406 576.160156 -19.789062 574.886719 -20.539062 573.609375 C -21.214844 572.335938 -21.441406 570.3125 -21.363281 569.039062 C -21.289062 568.214844 -21.066406 567.613281 -20.613281 566.863281 C -19.941406 565.8125 -18.964844 564.390625 -17.316406 563.640625 C -14.617188 562.292969 -9.96875 562.292969 -4.796875 561.917969 C 3.375 561.316406 21.289062 560.492188 27.285156 561.542969 C 29.683594 561.992188 30.886719 562.367188 32.160156 563.414062 C 33.359375 564.539062 34.257812 566.5625 34.558594 568.0625 C 34.78125 569.261719 34.558594 570.460938 34.109375 571.511719 C 33.734375 572.636719 33.132812 573.6875 32.160156 574.433594 C 30.960938 575.335938 27.285156 576.308594 27.285156 576.308594 " clip-rule="nonzero"/></clipPath><clipPath id="27c57ec1d3"><path d="M 38.371094 555.835938 L 176.828125 555.835938 L 176.828125 574.164062 L 38.371094 574.164062 Z M 38.371094 555.835938 " clip-rule="nonzero"/></clipPath><clipPath id="80da1ab944"><path d="M 44.378906 557.644531 C 66.117188 555.996094 77.660156 555.769531 88.605469 555.917969 C 101.277344 556.070312 115.742188 556.742188 129.460938 557.644531 C 143.253906 558.617188 164.84375 559.816406 171.066406 561.464844 C 173.015625 561.992188 173.839844 562.292969 174.738281 563.117188 C 175.714844 564.015625 176.464844 565.441406 176.6875 566.640625 C 176.914062 567.914062 176.613281 569.488281 176.089844 570.613281 C 175.488281 571.738281 174.140625 572.859375 173.164062 573.386719 C 172.492188 573.835938 171.964844 573.984375 171.214844 573.984375 C 170.167969 573.984375 168.367188 573.835938 167.316406 573.160156 C 166.195312 572.484375 165.144531 571.0625 164.695312 570.164062 C 164.320312 569.414062 164.246094 568.886719 164.246094 568.136719 C 164.246094 567.089844 164.769531 565.214844 165.21875 564.316406 C 165.59375 563.640625 165.96875 563.191406 166.644531 562.816406 C 167.542969 562.214844 169.191406 561.464844 170.390625 561.464844 C 171.667969 561.464844 173.242188 561.992188 174.214844 562.742188 C 175.265625 563.492188 176.164062 564.988281 176.539062 566.039062 C 176.765625 566.714844 176.839844 567.238281 176.765625 567.988281 C 176.613281 569.113281 176.089844 570.761719 175.339844 571.738281 C 174.515625 572.710938 173.765625 573.460938 171.890625 573.835938 C 165.667969 575.261719 140.632812 570.238281 128.9375 569.414062 C 120.839844 568.8125 116.117188 568.738281 108.320312 568.589844 C 98.128906 568.363281 84.035156 568.136719 72.863281 568.511719 C 62.746094 568.886719 49.25 571.8125 44.078125 570.6875 C 41.980469 570.238281 40.929688 569.5625 40.03125 568.4375 C 39.054688 567.3125 38.382812 565.515625 38.457031 564.089844 C 38.457031 562.589844 39.207031 560.792969 40.179688 559.742188 C 41.15625 558.691406 44.378906 557.644531 44.378906 557.644531 " clip-rule="nonzero"/></clipPath><clipPath id="c795f592ae"><path d="M 73.800781 562.199219 L 206.394531 562.199219 L 206.394531 575.859375 L 73.800781 575.859375 Z M 73.800781 562.199219 " clip-rule="nonzero"/></clipPath><clipPath id="046e27bc8f"><path d="M 80.8125 562.292969 C 202.550781 569.113281 203.226562 569.488281 204.125 570.085938 C 204.726562 570.535156 205.101562 570.910156 205.398438 571.660156 C 205.925781 572.5625 206.300781 574.433594 206.300781 575.484375 C 206.222656 576.308594 206 576.835938 205.773438 577.433594 C 205.476562 578.035156 205.175781 578.632812 204.648438 579.15625 C 203.824219 579.832031 202.101562 580.730469 201.125 581.03125 C 200.378906 581.183594 199.851562 581.183594 199.101562 581.03125 C 198.054688 580.730469 196.328125 579.832031 195.578125 579.15625 C 194.980469 578.632812 194.679688 578.183594 194.457031 577.507812 C 194.082031 576.460938 193.707031 574.734375 194.003906 573.535156 C 194.230469 572.261719 195.28125 570.835938 196.03125 570.085938 C 196.554688 569.5625 197.152344 569.335938 197.753906 569.039062 C 198.351562 568.8125 198.953125 568.589844 199.703125 568.664062 C 200.828125 568.664062 202.550781 568.960938 203.601562 569.710938 C 204.648438 570.386719 205.550781 571.886719 206 572.859375 C 206.300781 573.535156 206.375 574.058594 206.300781 574.808594 C 206.222656 575.933594 205.625 577.734375 205.023438 578.632812 C 204.648438 579.234375 204.273438 579.609375 203.601562 579.984375 C 202.625 580.507812 201.652344 580.882812 199.777344 581.105469 C 194.304688 581.632812 180.960938 579.457031 167.617188 578.707031 C 145.652344 577.507812 90.78125 577.882812 80.285156 575.558594 C 77.8125 575.035156 76.988281 574.585938 75.9375 573.6875 C 75.113281 573.011719 74.589844 572.035156 74.214844 571.0625 C 73.914062 570.085938 73.765625 568.960938 73.988281 567.914062 C 74.289062 566.5625 75.1875 564.765625 76.3125 563.789062 C 77.4375 562.890625 80.8125 562.292969 80.8125 562.292969 " clip-rule="nonzero"/></clipPath><clipPath id="f930ac3c07"><path d="M 93 556.464844 L 277.316406 556.464844 L 277.316406 575.859375 L 93 575.859375 Z M 93 556.464844 " clip-rule="nonzero"/></clipPath><clipPath id="665d6b0d2e"><path d="M 99.703125 556.59375 C 176.3125 562.214844 192.355469 564.464844 208.625 566.714844 C 224.214844 568.886719 242.957031 571.738281 254.726562 573.761719 C 261.996094 574.960938 268.894531 575.785156 272.417969 577.132812 C 274.066406 577.808594 274.964844 578.183594 275.789062 579.15625 C 276.539062 580.132812 277.140625 581.558594 277.214844 582.757812 C 277.289062 584.03125 276.914062 585.53125 276.164062 586.578125 C 275.492188 587.628906 274.066406 588.527344 273.089844 588.976562 C 272.417969 589.277344 271.890625 589.351562 271.144531 589.277344 C 270.09375 589.203125 268.292969 588.601562 267.394531 588.003906 C 266.792969 587.628906 266.421875 587.253906 266.046875 586.578125 C 265.519531 585.679688 264.921875 584.03125 264.996094 582.832031 C 265.070312 581.558594 265.820312 580.058594 266.421875 579.15625 C 266.871094 578.558594 267.246094 578.257812 267.917969 577.882812 C 268.894531 577.433594 270.691406 576.984375 271.742188 577.058594 C 272.492188 577.058594 273.015625 577.207031 273.691406 577.582031 C 274.589844 578.109375 275.941406 579.15625 276.539062 580.28125 C 277.066406 581.332031 277.363281 582.90625 277.140625 584.105469 C 276.988281 585.304688 276.238281 586.730469 275.339844 587.554688 C 274.441406 588.453125 273.464844 589.054688 271.816406 589.203125 C 267.996094 589.652344 261.246094 586.503906 252.925781 585.003906 C 236.882812 582.082031 203.527344 577.507812 182.460938 575.035156 C 165.292969 573.011719 150.453125 571.660156 135.683594 570.6875 C 122.339844 569.789062 103.523438 571.285156 97.675781 569.1875 C 95.652344 568.4375 94.828125 567.613281 94.003906 566.414062 C 93.253906 565.214844 92.878906 563.414062 93.105469 561.992188 C 93.328125 560.566406 94.304688 558.917969 95.429688 558.019531 C 96.476562 557.117188 99.703125 556.59375 99.703125 556.59375 " clip-rule="nonzero"/></clipPath><clipPath id="14b935e1ec"><path d="M 173.269531 564.675781 L 308.210938 564.675781 L 308.210938 575.859375 L 173.269531 575.859375 Z M 173.269531 564.675781 " clip-rule="nonzero"/></clipPath><clipPath id="adedfaa3eb"><path d="M 179.988281 564.691406 C 255.175781 566.863281 269.117188 568.4375 280.589844 569.9375 C 289.132812 570.988281 298.730469 571.960938 302.925781 573.386719 C 304.652344 573.910156 305.625 574.285156 306.449219 575.261719 C 307.351562 576.160156 308.023438 577.660156 308.175781 578.933594 C 308.324219 580.207031 307.949219 581.78125 307.273438 582.832031 C 306.601562 583.957031 305.175781 585.003906 304.203125 585.453125 C 303.527344 585.828125 303.003906 585.90625 302.253906 585.90625 C 301.128906 585.828125 299.402344 585.53125 298.355469 584.78125 C 297.304688 584.105469 296.332031 582.605469 295.878906 581.632812 C 295.582031 580.882812 295.582031 580.28125 295.582031 579.609375 C 295.582031 578.933594 295.582031 578.257812 295.878906 577.582031 C 296.332031 576.535156 297.304688 575.035156 298.355469 574.359375 C 299.402344 573.609375 300.976562 573.234375 302.253906 573.3125 C 303.527344 573.3125 305.101562 574.136719 306 574.808594 C 306.601562 575.261719 306.976562 575.632812 307.273438 576.308594 C 307.800781 577.285156 308.324219 579.007812 308.175781 580.28125 C 308.023438 581.558594 307.351562 582.980469 306.449219 583.957031 C 305.550781 584.855469 304.652344 585.53125 302.925781 585.828125 C 298.578125 586.503906 288.160156 582.679688 279.238281 581.480469 C 267.84375 579.90625 254.652344 578.632812 240.03125 577.957031 C 221.816406 577.132812 186.507812 580.28125 178.339844 577.734375 C 176.164062 577.058594 175.339844 576.308594 174.515625 575.035156 C 173.691406 573.835938 173.164062 571.960938 173.390625 570.535156 C 173.539062 569.039062 174.441406 567.3125 175.5625 566.339844 C 176.6875 565.363281 179.988281 564.691406 179.988281 564.691406 " clip-rule="nonzero"/></clipPath><clipPath id="b2e37c9efd"><path d="M 152.472656 563 L 407 563 L 407 575.859375 L 152.472656 575.859375 Z M 152.472656 563 " clip-rule="nonzero"/></clipPath><clipPath id="1400d2a905"><path d="M 160.347656 563.039062 C 183.136719 569.5625 188.683594 570.460938 197.304688 571.960938 C 211.621094 574.511719 237.933594 579.15625 254.574219 581.105469 C 267.394531 582.679688 275.414062 582.980469 288.683594 583.730469 C 307.273438 584.929688 335.6875 585.453125 355.925781 586.804688 C 372.71875 587.855469 395.355469 588.902344 401.804688 590.550781 C 403.601562 591.003906 404.351562 591.375 405.101562 591.976562 C 405.628906 592.351562 405.925781 592.726562 406.226562 593.402344 C 406.675781 594.226562 406.976562 595.949219 406.902344 596.925781 C 406.902344 597.597656 406.75 598.046875 406.375 598.648438 C 405.851562 599.472656 404.878906 600.746094 403.828125 601.195312 C 402.777344 601.722656 401.355469 601.945312 400.230469 601.722656 C 399.105469 601.496094 397.832031 600.597656 397.082031 599.921875 C 396.632812 599.472656 396.332031 599.023438 396.105469 598.421875 C 395.808594 597.449219 395.65625 595.726562 395.808594 594.824219 C 395.957031 594.074219 396.105469 593.699219 396.554688 593.101562 C 397.15625 592.351562 398.28125 591.226562 399.40625 590.851562 C 400.453125 590.476562 401.878906 590.402344 403.003906 590.777344 C 404.054688 591.078125 405.253906 591.902344 405.925781 592.875 C 406.601562 593.777344 406.976562 595.199219 406.976562 596.324219 C 406.902344 597.449219 406.300781 598.875 405.703125 599.699219 C 405.328125 600.296875 404.953125 600.597656 404.351562 600.898438 C 403.527344 601.347656 402.703125 601.648438 400.828125 601.796875 C 394.308594 602.320312 371.96875 599.097656 355.328125 598.125 C 335.011719 596.847656 306.601562 596.324219 287.785156 595.199219 C 274.292969 594.375 265.96875 594 252.925781 592.5 C 236.058594 590.550781 209.746094 586.054688 195.128906 583.503906 C 186.058594 582.007812 180.0625 581.03125 173.316406 579.457031 C 167.46875 578.035156 159.972656 576.085938 156.972656 574.808594 C 155.699219 574.285156 155.097656 573.984375 154.425781 573.3125 C 153.75 572.710938 153.074219 571.8125 152.851562 570.835938 C 152.550781 569.636719 152.476562 567.761719 153 566.488281 C 153.523438 565.289062 154.800781 564.015625 156.074219 563.414062 C 157.273438 562.816406 160.347656 563.039062 160.347656 563.039062 " clip-rule="nonzero"/></clipPath><clipPath id="1bfa594e7c"><path d="M 268 565.691406 L 399.484375 565.691406 L 399.484375 575.859375 L 268 575.859375 Z M 268 565.691406 " clip-rule="nonzero"/></clipPath><clipPath id="f9bc0dd7d8"><path d="M 274.664062 565.8125 C 301.726562 566.789062 317.546875 568.886719 332.835938 570.761719 C 351.429688 573.085938 386.8125 576.535156 394.53125 579.382812 C 396.480469 580.058594 397.15625 580.507812 397.980469 581.558594 C 398.730469 582.53125 399.332031 584.03125 399.332031 585.304688 C 399.40625 586.578125 398.730469 588.226562 398.207031 589.203125 C 397.757812 589.878906 397.382812 590.253906 396.707031 590.628906 C 395.808594 591.226562 394.15625 591.902344 392.882812 591.828125 C 391.609375 591.828125 389.960938 591.078125 389.058594 590.476562 C 388.460938 590.027344 388.085938 589.578125 387.710938 588.902344 C 387.1875 587.929688 386.734375 586.054688 386.734375 585.003906 C 386.734375 584.253906 386.886719 583.730469 387.1875 582.980469 C 387.710938 582.082031 388.761719 580.65625 389.882812 579.984375 C 391.007812 579.382812 392.582031 579.082031 393.859375 579.234375 C 395.132812 579.382812 396.632812 580.132812 397.53125 581.03125 C 398.429688 581.929688 399.03125 583.582031 399.332031 584.628906 C 399.480469 585.378906 399.480469 585.90625 399.253906 586.652344 C 398.957031 587.703125 398.207031 589.351562 397.304688 590.175781 C 396.332031 591.078125 395.132812 591.675781 393.558594 591.828125 C 391.160156 591.976562 388.683594 590.253906 384.261719 589.429688 C 373.917969 587.480469 348.054688 584.554688 331.636719 582.757812 C 317.246094 581.105469 301.800781 579.382812 291.007812 578.859375 C 283.8125 578.558594 276.765625 580.058594 273.089844 578.933594 C 271.144531 578.332031 270.019531 577.507812 269.195312 576.234375 C 268.367188 575.035156 267.84375 573.160156 268.070312 571.660156 C 268.21875 570.238281 269.117188 568.4375 270.242188 567.464844 C 271.367188 566.488281 274.664062 565.8125 274.664062 565.8125 " clip-rule="nonzero"/></clipPath><clipPath id="c5ea857170"><path d="M 157.15625 560.300781 L 546 560.300781 L 546 575.859375 L 157.15625 575.859375 Z M 157.15625 560.300781 " clip-rule="nonzero"/></clipPath><clipPath id="26f45a3140"><path d="M 163.644531 560.417969 C 330.363281 573.3125 340.484375 574.359375 355.328125 576.382812 C 370.695312 578.410156 387.109375 581.183594 402.179688 583.878906 C 416.121094 586.355469 429.765625 588.976562 442.582031 591.828125 C 454.128906 594.449219 465.371094 597.074219 475.566406 600.074219 C 484.5625 602.695312 491.386719 604.945312 500.753906 608.394531 C 512.976562 612.816406 537.710938 622.710938 542.210938 625.035156 C 543.183594 625.484375 543.335938 625.558594 543.859375 626.085938 C 544.535156 626.835938 545.433594 628.257812 545.660156 629.382812 C 545.882812 630.582031 545.660156 632.082031 545.132812 633.207031 C 544.609375 634.257812 543.484375 635.304688 542.433594 635.832031 C 541.3125 636.355469 539.8125 636.578125 538.613281 636.355469 C 537.488281 636.128906 536.136719 635.304688 535.3125 634.40625 C 534.5625 633.507812 534.039062 631.933594 533.890625 630.882812 C 533.738281 630.207031 533.816406 629.683594 534.039062 629.007812 C 534.414062 628.035156 535.164062 626.535156 536.136719 625.785156 C 537.039062 625.035156 538.6875 624.660156 539.738281 624.511719 C 540.410156 624.4375 540.9375 624.511719 541.609375 624.8125 C 542.585938 625.183594 544.007812 626.234375 544.683594 627.058594 C 545.132812 627.585938 545.359375 628.109375 545.507812 628.785156 C 545.734375 629.757812 545.808594 631.480469 545.433594 632.605469 C 544.984375 633.730469 544.007812 634.929688 542.960938 635.53125 C 541.984375 636.203125 541.011719 636.578125 539.285156 636.429688 C 534.9375 636.054688 524.292969 629.609375 517.097656 626.609375 C 510.277344 623.835938 504.203125 621.585938 497.230469 619.113281 C 489.511719 616.414062 481.566406 613.566406 472.792969 611.015625 C 462.824219 608.09375 451.804688 605.46875 440.335938 602.921875 C 427.742188 600.148438 414.171875 597.523438 400.378906 595.050781 C 385.535156 592.425781 369.34375 589.726562 354.128906 587.703125 C 339.359375 585.679688 324.589844 584.332031 310.421875 582.980469 C 297.078125 581.707031 287.710938 581.105469 271.441406 579.90625 C 244.378906 577.957031 174.664062 575.484375 163.121094 572.710938 C 160.796875 572.113281 160.121094 571.886719 159.148438 570.988281 C 158.171875 570.011719 157.421875 568.363281 157.273438 567.015625 C 157.199219 565.664062 157.796875 563.941406 158.472656 562.890625 C 159.074219 562.066406 159.898438 561.464844 160.796875 561.015625 C 161.621094 560.640625 163.644531 560.417969 163.644531 560.417969 " clip-rule="nonzero"/></clipPath><clipPath id="b3c7ad3868"><path d="M 286.238281 561.59375 L 543.574219 561.59375 L 543.574219 575.859375 L 286.238281 575.859375 Z M 286.238281 561.59375 " clip-rule="nonzero"/></clipPath><clipPath id="2aa2bb44dc"><path d="M 293.480469 561.691406 C 319.867188 566.1875 323.617188 566.789062 333.363281 567.464844 C 359 569.039062 444.757812 568.664062 473.019531 569.863281 C 485.3125 570.3125 489.8125 570.6875 499.480469 571.511719 C 511.175781 572.5625 533.664062 574.960938 538.3125 575.933594 C 539.363281 576.160156 539.511719 576.160156 540.1875 576.535156 C 541.085938 577.058594 542.359375 578.183594 542.886719 579.308594 C 543.410156 580.355469 543.632812 581.929688 543.410156 583.132812 C 543.183594 584.332031 542.359375 585.679688 541.460938 586.503906 C 540.5625 587.328125 538.910156 587.855469 537.9375 588.003906 C 537.1875 588.152344 536.664062 588.078125 535.914062 587.855469 C 534.9375 587.480469 533.441406 586.652344 532.691406 585.753906 C 531.941406 584.78125 531.414062 583.28125 531.414062 582.082031 C 531.339844 580.882812 531.789062 579.382812 532.539062 578.410156 C 533.289062 577.359375 534.714844 576.535156 535.6875 576.160156 C 536.363281 575.859375 537.039062 575.859375 537.636719 575.859375 C 538.3125 575.933594 538.910156 575.933594 539.585938 576.308594 C 540.484375 576.683594 541.910156 577.660156 542.585938 578.707031 C 543.261719 579.757812 543.632812 581.257812 543.484375 582.457031 C 543.410156 583.730469 542.585938 585.230469 541.910156 586.054688 C 541.460938 586.652344 541.085938 586.953125 540.410156 587.253906 C 539.4375 587.703125 538.539062 587.929688 536.589844 587.929688 C 530.515625 588.078125 510.199219 583.957031 498.730469 582.832031 C 489.285156 581.855469 484.863281 581.632812 472.71875 581.183594 C 444.53125 580.058594 358.324219 580.582031 332.164062 579.15625 C 322.042969 578.558594 318.144531 578.035156 311.171875 577.058594 C 304.050781 576.085938 293.707031 575.261719 289.957031 573.386719 C 288.234375 572.484375 287.410156 571.511719 286.886719 570.3125 C 286.285156 569.113281 286.136719 567.3125 286.585938 565.964844 C 286.960938 564.691406 288.007812 563.265625 289.207031 562.515625 C 290.332031 561.839844 293.480469 561.691406 293.480469 561.691406 " clip-rule="nonzero"/></clipPath><clipPath id="ea29dafe0b"><path d="M 9.707031 554 L 297.425781 554 L 297.425781 572.804688 L 9.707031 572.804688 Z M 9.707031 554 " clip-rule="nonzero"/></clipPath><clipPath id="29c4422d25"><path d="M 291.234375 572.710938 C 262.070312 572.410156 206.597656 568.511719 173.539062 567.386719 C 144.605469 566.339844 118.890625 566.039062 92.128906 565.8125 C 66.191406 565.664062 24.363281 567.6875 15.441406 566.339844 C 13.492188 565.964844 12.820312 565.664062 11.996094 565.140625 C 11.46875 564.765625 11.09375 564.464844 10.71875 563.867188 C 10.269531 562.964844 9.746094 561.542969 9.746094 560.34375 C 9.820312 559.21875 10.34375 557.867188 11.09375 557.042969 C 11.84375 556.144531 13.042969 555.394531 14.167969 555.09375 C 15.292969 554.871094 16.71875 555.019531 17.765625 555.46875 C 18.816406 555.996094 19.867188 557.117188 20.390625 557.941406 C 20.765625 558.542969 20.914062 559.144531 20.988281 559.667969 C 21.066406 560.265625 21.140625 560.867188 20.988281 561.542969 C 20.765625 562.441406 20.164062 563.941406 19.339844 564.765625 C 18.515625 565.515625 17.015625 566.113281 16.042969 566.265625 C 15.367188 566.414062 14.917969 566.339844 14.242188 566.1875 C 13.269531 565.890625 11.84375 565.214844 11.09375 564.316406 C 10.34375 563.492188 9.820312 562.140625 9.746094 561.015625 C 9.671875 559.816406 10.269531 558.316406 10.71875 557.492188 C 11.019531 556.894531 11.394531 556.519531 11.996094 556.144531 C 12.820312 555.621094 13.492188 555.320312 15.367188 555.019531 C 24.289062 553.445312 66.34375 554.269531 92.355469 554.421875 C 119.191406 554.570312 144.304688 554.945312 173.988281 555.769531 C 209.523438 556.820312 279.015625 557.941406 291.234375 560.417969 C 293.558594 560.867188 294.304688 561.015625 295.28125 561.917969 C 296.332031 562.890625 297.15625 564.464844 297.378906 565.8125 C 297.53125 567.164062 296.929688 568.960938 296.332031 570.085938 C 295.804688 570.910156 294.90625 571.585938 294.082031 572.035156 C 293.257812 572.484375 291.234375 572.710938 291.234375 572.710938 " clip-rule="nonzero"/></clipPath><clipPath id="f20317a4ea"><path d="M 578.230469 561.320312 L 604.234375 561.320312 L 604.234375 575.859375 L 578.230469 575.859375 Z M 578.230469 561.320312 " clip-rule="nonzero"/></clipPath><clipPath id="aec5ab0137"><path d="M 599.707031 575.859375 C 591.6875 579.609375 589.664062 581.632812 588.164062 582.230469 C 587.261719 582.605469 586.664062 582.679688 585.6875 582.53125 C 584.414062 582.382812 582.316406 581.78125 581.117188 580.808594 C 579.917969 579.832031 578.941406 577.882812 578.492188 576.609375 C 578.191406 575.785156 578.191406 575.109375 578.34375 574.136719 C 578.566406 572.859375 579.242188 570.835938 580.292969 569.636719 C 581.339844 568.511719 583.289062 567.613281 584.566406 567.3125 C 585.539062 567.015625 586.140625 567.015625 587.113281 567.238281 C 588.386719 567.539062 590.410156 568.363281 591.460938 569.488281 C 592.585938 570.535156 593.410156 572.335938 593.636719 573.910156 C 593.785156 575.410156 593.410156 577.359375 592.660156 578.707031 C 591.835938 580.058594 590.410156 581.332031 588.988281 581.929688 C 587.5625 582.53125 585.539062 582.679688 584.039062 582.304688 C 582.539062 581.929688 580.816406 580.582031 579.917969 579.609375 C 579.316406 578.933594 579.015625 578.183594 578.71875 577.433594 C 578.492188 576.683594 578.269531 575.933594 578.269531 574.960938 C 578.34375 573.6875 578.71875 571.8125 579.765625 570.3125 C 581.265625 568.289062 584.714844 566.265625 587.414062 564.765625 C 589.960938 563.339844 593.183594 561.839844 595.285156 561.464844 C 596.707031 561.242188 597.832031 561.390625 598.957031 561.691406 C 600.007812 562.066406 601.207031 562.742188 602.03125 563.640625 C 602.855469 564.464844 603.53125 565.589844 603.90625 566.714844 C 604.207031 567.839844 604.28125 569.1875 604.054688 570.3125 C 603.832031 571.511719 603.304688 572.710938 602.554688 573.609375 C 601.882812 574.511719 599.707031 575.859375 599.707031 575.859375 " clip-rule="nonzero"/></clipPath><clipPath id="794ffe4465"><path d="M 586.394531 551.792969 L 607.925781 551.792969 L 607.925781 575.859375 L 586.394531 575.859375 Z M 586.394531 551.792969 " clip-rule="nonzero"/></clipPath><clipPath id="9534efdf60"><path d="M 606.679688 563.492188 C 602.179688 571.585938 602.105469 576.382812 601.207031 578.332031 C 600.757812 579.308594 600.457031 579.757812 599.78125 580.355469 C 598.734375 581.183594 596.632812 582.230469 595.359375 582.53125 C 594.386719 582.757812 593.710938 582.757812 592.8125 582.457031 C 591.535156 582.15625 589.511719 581.183594 588.460938 580.058594 C 587.414062 578.859375 586.738281 576.835938 586.515625 575.484375 C 586.363281 574.511719 586.4375 573.910156 586.738281 573.011719 C 587.1875 571.738281 588.460938 569.710938 589.4375 568.8125 C 590.113281 568.136719 590.636719 567.839844 591.609375 567.539062 C 592.886719 567.164062 595.058594 566.9375 596.558594 567.386719 C 598.058594 567.914062 599.632812 569.039062 600.605469 570.3125 C 601.507812 571.585938 602.105469 573.460938 602.03125 575.035156 C 602.03125 576.609375 601.28125 578.484375 600.308594 579.683594 C 599.332031 580.957031 597.683594 582.007812 596.183594 582.382812 C 594.609375 582.757812 592.4375 582.382812 591.238281 582.007812 C 590.335938 581.707031 589.664062 581.183594 589.0625 580.65625 C 588.460938 580.058594 587.9375 579.53125 587.488281 578.707031 C 586.964844 577.433594 586.515625 575.785156 586.589844 573.835938 C 586.738281 570.535156 588.6875 564.390625 590.335938 560.867188 C 591.609375 558.09375 593.335938 555.46875 594.910156 553.96875 C 595.882812 552.996094 596.933594 552.472656 598.058594 552.171875 C 599.183594 551.796875 600.53125 551.796875 601.65625 552.019531 C 602.855469 552.246094 604.054688 552.769531 604.953125 553.519531 C 605.929688 554.269531 606.679688 555.394531 607.203125 556.445312 C 607.652344 557.492188 607.878906 558.84375 607.804688 560.042969 C 607.726562 561.242188 606.679688 563.492188 606.679688 563.492188 " clip-rule="nonzero"/></clipPath><clipPath id="13b4c402d6"><path d="M 586.425781 558.902344 L 607.957031 558.902344 L 607.957031 575.859375 L 586.425781 575.859375 Z M 586.425781 558.902344 " clip-rule="nonzero"/></clipPath><clipPath id="11c004133b"><path d="M 604.953125 572.5625 C 601.355469 576.085938 602.332031 577.660156 602.105469 579.082031 C 601.804688 580.582031 601.132812 582.457031 600.082031 583.65625 C 599.03125 584.855469 597.007812 585.753906 595.734375 586.128906 C 594.835938 586.355469 594.160156 586.355469 593.183594 586.203125 C 591.910156 585.90625 589.8125 585.078125 588.6875 583.957031 C 587.636719 582.832031 586.738281 581.03125 586.515625 579.457031 C 586.289062 577.882812 586.664062 575.933594 587.488281 574.511719 C 588.238281 573.160156 589.960938 571.8125 591.160156 571.210938 C 592.0625 570.761719 592.660156 570.613281 593.636719 570.613281 C 594.984375 570.613281 597.160156 570.988281 598.507812 571.8125 C 599.855469 572.636719 601.054688 574.210938 601.65625 575.710938 C 602.179688 577.207031 602.03125 579.382812 601.730469 580.730469 C 601.582031 581.632812 601.28125 582.230469 600.605469 582.980469 C 599.78125 584.03125 598.058594 585.453125 596.558594 585.90625 C 595.058594 586.355469 593.035156 586.28125 591.535156 585.753906 C 590.035156 585.230469 588.539062 583.957031 587.636719 582.605469 C 586.8125 581.257812 586.515625 579.457031 586.4375 577.734375 C 586.363281 576.007812 586.664062 574.285156 587.261719 572.261719 C 588.089844 569.636719 590.113281 565.664062 591.761719 563.566406 C 592.886719 562.214844 594.011719 561.390625 595.433594 560.566406 C 596.933594 559.816406 598.882812 558.84375 600.605469 558.917969 C 602.257812 558.992188 604.355469 560.117188 605.554688 561.089844 C 606.527344 561.917969 607.128906 563.117188 607.429688 564.238281 C 607.804688 565.363281 608.027344 566.640625 607.726562 567.839844 C 607.355469 569.414062 604.953125 572.5625 604.953125 572.5625 " clip-rule="nonzero"/></clipPath><clipPath id="71d56dc1f0"><path d="M 587.238281 563.136719 L 675.453125 563.136719 L 675.453125 575.859375 L 587.238281 575.859375 Z M 587.238281 563.136719 " clip-rule="nonzero"/></clipPath><clipPath id="5ac9760675"><path d="M 594.683594 563.191406 C 635.164062 568.0625 664.625 572.636719 671.222656 575.859375 C 673.171875 576.757812 673.769531 577.582031 674.445312 578.558594 C 674.96875 579.15625 675.121094 579.683594 675.269531 580.507812 C 675.421875 581.632812 675.421875 583.503906 674.820312 584.707031 C 674.296875 585.90625 673.171875 587.105469 671.972656 587.777344 C 670.773438 588.378906 669.125 588.679688 667.847656 588.453125 C 666.5 588.226562 665 587.480469 664.101562 586.503906 C 663.203125 585.53125 662.527344 583.804688 662.300781 582.679688 C 662.152344 581.929688 662.152344 581.332031 662.375 580.582031 C 662.75 579.457031 663.574219 577.808594 664.550781 576.984375 C 665.601562 576.085938 667.097656 575.484375 668.449219 575.410156 C 669.796875 575.335938 671.523438 575.933594 672.496094 576.460938 C 673.246094 576.910156 673.621094 577.285156 674.070312 577.957031 C 674.671875 578.859375 675.421875 580.582031 675.421875 581.929688 C 675.421875 583.28125 674.894531 584.855469 674.144531 585.90625 C 673.320312 586.953125 671.671875 587.929688 670.621094 588.304688 C 669.871094 588.601562 669.574219 588.601562 668.523438 588.527344 C 665.226562 588.378906 655.480469 585.304688 648.058594 583.804688 C 639.363281 582.082031 628.941406 580.132812 619.574219 578.933594 C 610.351562 577.808594 597.082031 578.632812 592.210938 576.757812 C 590.113281 575.933594 589.136719 575.035156 588.3125 573.761719 C 587.488281 572.410156 587.113281 570.386719 587.414062 568.886719 C 587.714844 567.386719 588.761719 565.589844 589.960938 564.613281 C 591.160156 563.714844 594.683594 563.191406 594.683594 563.191406 " clip-rule="nonzero"/></clipPath><clipPath id="1cef74b14b"><path d="M 597.402344 554.304688 L 929.566406 554.304688 L 929.566406 575.859375 L 597.402344 575.859375 Z M 597.402344 554.304688 " clip-rule="nonzero"/></clipPath><clipPath id="dfb7a0c44b"><path d="M 604.207031 554.34375 C 709.304688 558.316406 714.027344 558.394531 725.421875 559.515625 C 743.1875 561.167969 770.699219 565.589844 793.261719 568.214844 C 815.601562 570.835938 842.886719 573.6875 860.054688 575.261719 C 870.851562 576.234375 876.847656 576.757812 886.441406 577.207031 C 897.761719 577.808594 917.703125 577.058594 923.550781 578.183594 C 925.5 578.558594 926.398438 579.007812 927.222656 579.609375 C 927.820312 580.058594 928.195312 580.433594 928.496094 581.105469 C 929.023438 582.007812 929.546875 583.65625 929.472656 584.855469 C 929.320312 586.128906 928.722656 587.554688 927.820312 588.453125 C 926.996094 589.351562 925.421875 590.027344 924.449219 590.328125 C 923.699219 590.550781 923.175781 590.550781 922.5 590.402344 C 921.449219 590.101562 919.800781 589.277344 918.976562 588.601562 C 918.453125 588.078125 918.152344 587.703125 917.851562 586.953125 C 917.476562 585.980469 917.253906 584.179688 917.402344 583.132812 C 917.476562 582.382812 917.777344 581.855469 918.078125 581.257812 C 918.375 580.730469 918.75 580.207031 919.351562 579.757812 C 920.175781 579.082031 921.675781 578.332031 922.949219 578.257812 C 924.148438 578.109375 925.648438 578.558594 926.699219 579.234375 C 927.746094 579.90625 928.648438 581.332031 929.097656 582.304688 C 929.394531 582.980469 929.546875 583.503906 929.472656 584.253906 C 929.394531 585.304688 928.796875 587.027344 928.273438 587.929688 C 927.898438 588.601562 927.523438 588.976562 926.847656 589.351562 C 925.949219 589.878906 925.046875 590.175781 923.097656 590.402344 C 917.175781 591.152344 899.484375 589.429688 885.617188 588.527344 C 868.226562 587.328125 849.183594 585.828125 826.996094 583.503906 C 797.535156 580.507812 752.859375 573.460938 724.671875 571.136719 C 704.957031 569.488281 691.835938 569.335938 674.144531 568.8125 C 654.503906 568.214844 624.070312 568.511719 612.078125 567.761719 C 607.203125 567.464844 604.207031 567.613281 601.804688 566.640625 C 600.15625 565.964844 599.03125 564.988281 598.28125 563.789062 C 597.609375 562.589844 597.382812 560.71875 597.609375 559.441406 C 597.757812 558.394531 598.207031 557.417969 598.882812 556.667969 C 599.480469 555.917969 600.382812 555.246094 601.28125 554.871094 C 602.179688 554.496094 604.207031 554.34375 604.207031 554.34375 " clip-rule="nonzero"/></clipPath><clipPath id="c164b52eb6"><path d="M 631.425781 556.425781 L 786.375 556.425781 L 786.375 575.859375 L 631.425781 575.859375 Z M 631.425781 556.425781 " clip-rule="nonzero"/></clipPath><clipPath id="bf951a012a"><path d="M 638.089844 556.445312 C 683.742188 558.84375 720.097656 564.390625 741.386719 566.5625 C 756.605469 568.136719 775.871094 569.113281 780.59375 569.863281 C 781.71875 570.011719 781.867188 570.011719 782.542969 570.386719 C 783.515625 570.835938 784.867188 571.886719 785.542969 573.011719 C 786.140625 574.058594 786.292969 575.785156 786.214844 576.910156 C 786.214844 577.660156 785.917969 578.183594 785.691406 578.78125 C 785.390625 579.382812 785.09375 579.90625 784.492188 580.433594 C 783.667969 581.105469 782.167969 582.007812 780.96875 582.15625 C 779.695312 582.304688 778.046875 581.855469 777.070312 581.40625 C 776.394531 581.105469 775.945312 580.730469 775.496094 580.132812 C 774.898438 579.308594 774.148438 577.582031 773.921875 576.535156 C 773.847656 575.785156 773.996094 575.183594 774.148438 574.511719 C 774.296875 573.910156 774.445312 573.3125 774.898438 572.710938 C 775.570312 571.886719 776.996094 570.6875 777.96875 570.238281 C 778.644531 569.9375 779.167969 569.789062 779.996094 569.863281 C 781.042969 569.9375 782.691406 570.3125 783.742188 570.988281 C 784.71875 571.738281 785.617188 573.234375 786.066406 574.210938 C 786.292969 574.960938 786.367188 575.484375 786.292969 576.234375 C 786.214844 577.285156 785.542969 579.007812 784.941406 579.90625 C 784.492188 580.507812 784.117188 580.882812 783.441406 581.257812 C 782.46875 581.78125 781.792969 582.082031 779.621094 582.230469 C 767.773438 582.980469 689.511719 571.585938 664.175781 570.011719 C 651.808594 569.1875 641.386719 570.988281 636.515625 569.414062 C 634.492188 568.738281 633.515625 567.914062 632.691406 566.714844 C 631.867188 565.515625 631.417969 563.640625 631.566406 562.214844 C 631.714844 560.792969 632.617188 559.066406 633.742188 558.09375 C 634.789062 557.117188 638.089844 556.445312 638.089844 556.445312 " clip-rule="nonzero"/></clipPath><clipPath id="b73ed9f6c4"><path d="M 641.90625 562.136719 L 741.519531 562.136719 L 741.519531 575.859375 L 641.90625 575.859375 Z M 641.90625 562.136719 " clip-rule="nonzero"/></clipPath><clipPath id="e5cc99680d"><path d="M 649.40625 562.140625 C 704.582031 568.8125 728.945312 569.261719 735.691406 570.910156 C 737.640625 571.4375 738.390625 571.660156 739.363281 572.5625 C 740.265625 573.386719 741.011719 575.035156 741.3125 576.007812 C 741.539062 576.757812 741.464844 577.433594 741.386719 578.109375 C 741.3125 578.707031 741.164062 579.382812 740.789062 580.058594 C 740.1875 580.957031 739.0625 582.304688 737.941406 582.832031 C 736.816406 583.429688 735.167969 583.65625 733.964844 583.429688 C 732.691406 583.132812 731.269531 582.382812 730.445312 581.40625 C 729.617188 580.507812 728.945312 579.007812 728.871094 577.734375 C 728.71875 576.460938 729.320312 574.734375 729.84375 573.835938 C 730.21875 573.160156 730.59375 572.710938 731.191406 572.335938 C 732.09375 571.660156 733.742188 570.988281 735.015625 570.910156 C 736.214844 570.910156 737.789062 571.363281 738.839844 572.113281 C 739.890625 572.859375 740.789062 574.359375 741.164062 575.410156 C 741.464844 576.085938 741.539062 576.609375 741.464844 577.433594 C 741.3125 578.484375 740.636719 580.28125 740.039062 581.183594 C 739.589844 581.78125 739.214844 582.15625 738.539062 582.53125 C 737.566406 583.054688 736.816406 583.355469 734.640625 583.503906 C 724.519531 584.253906 658.480469 578.707031 647.984375 575.710938 C 645.511719 575.035156 644.683594 574.660156 643.710938 573.535156 C 642.660156 572.410156 641.910156 570.535156 641.910156 569.039062 C 641.835938 567.539062 642.734375 565.589844 643.5625 564.464844 C 644.234375 563.566406 645.210938 562.964844 646.183594 562.589844 C 647.160156 562.214844 649.40625 562.140625 649.40625 562.140625 " clip-rule="nonzero"/></clipPath><clipPath id="9b192c97e2"><path d="M 663.28125 566.894531 L 781.898438 566.894531 L 781.898438 575.859375 L 663.28125 575.859375 Z M 663.28125 566.894531 " clip-rule="nonzero"/></clipPath><clipPath id="265451ea1a"><path d="M 670.546875 566.9375 C 726.546875 572.035156 754.730469 572.410156 766.050781 573.3125 C 770.847656 573.6875 773.847656 573.761719 776.394531 574.511719 C 777.96875 574.960938 779.09375 575.484375 779.996094 576.382812 C 780.820312 577.285156 781.492188 579.007812 781.71875 580.058594 C 781.867188 580.808594 781.792969 581.332031 781.570312 582.082031 C 781.269531 583.132812 780.292969 584.78125 779.542969 585.605469 C 778.945312 586.128906 778.496094 586.429688 777.746094 586.652344 C 776.695312 586.953125 774.972656 587.253906 773.699219 586.878906 C 772.496094 586.578125 771.148438 585.679688 770.324219 584.628906 C 769.574219 583.65625 769.125 581.855469 769.050781 580.808594 C 768.976562 580.058594 769.050781 579.457031 769.347656 578.78125 C 769.800781 577.808594 770.773438 576.234375 771.824219 575.558594 C 772.871094 574.808594 774.445312 574.359375 775.722656 574.433594 C 776.996094 574.511719 778.570312 575.261719 779.46875 575.933594 C 780.070312 576.382812 780.445312 576.757812 780.820312 577.433594 C 781.269531 578.410156 781.792969 580.132812 781.71875 581.40625 C 781.570312 582.679688 780.667969 584.253906 779.996094 585.078125 C 779.542969 585.679688 779.09375 586.054688 778.421875 586.355469 C 777.371094 586.804688 775.945312 587.027344 774.371094 587.027344 C 772.046875 587.027344 769.875 585.753906 765.601562 585.230469 C 754.882812 583.957031 725.570312 584.105469 708.328125 583.132812 C 694.085938 582.382812 675.121094 581.480469 669.5 580.355469 C 667.925781 580.058594 667.324219 579.90625 666.425781 579.382812 C 665.601562 578.78125 664.699219 578.035156 664.25 577.058594 C 663.574219 575.859375 663.125 573.835938 663.425781 572.335938 C 663.726562 570.910156 664.777344 569.1875 665.976562 568.289062 C 667.175781 567.386719 670.546875 566.9375 670.546875 566.9375 " clip-rule="nonzero"/></clipPath><clipPath id="66992c6a9d"><path d="M 583.542969 546.476562 L 898.816406 546.476562 L 898.816406 575.859375 L 583.542969 575.859375 Z M 583.542969 546.476562 " clip-rule="nonzero"/></clipPath><clipPath id="29ac77db31"><path d="M 584.339844 574.136719 C 582.914062 564.765625 583.664062 559.890625 585.089844 556.742188 C 586.214844 554.046875 587.863281 551.644531 590.113281 550.070312 C 592.585938 548.347656 596.183594 547.597656 599.480469 547 C 603.003906 546.398438 606.378906 546.472656 610.578125 546.699219 C 616.125 546.847656 622.046875 547.671875 629.84375 548.722656 C 641.835938 550.371094 662.828125 554.71875 675.34375 556.367188 C 684.042969 557.492188 688.539062 557.867188 697.609375 558.542969 C 711.628906 559.59375 732.992188 560.566406 751.207031 561.167969 C 770.324219 561.691406 789.816406 561.765625 809.679688 561.765625 C 830.292969 561.765625 857.65625 560.71875 872.800781 560.941406 C 881.417969 561.015625 888.992188 560.792969 892.890625 561.617188 C 894.6875 561.992188 895.585938 562.292969 896.5625 563.117188 C 897.460938 563.867188 898.285156 565.214844 898.511719 566.414062 C 898.8125 567.613281 898.511719 569.335938 898.136719 570.3125 C 897.835938 570.988281 897.460938 571.511719 897.011719 571.960938 C 896.5625 572.410156 896.113281 572.859375 895.4375 573.160156 C 894.464844 573.535156 892.8125 573.984375 891.613281 573.761719 C 890.339844 573.609375 888.917969 572.636719 888.167969 571.960938 C 887.566406 571.4375 887.265625 570.988281 887.042969 570.3125 C 886.667969 569.335938 886.441406 567.464844 886.59375 566.414062 C 886.742188 565.664062 886.890625 565.214844 887.34375 564.613281 C 887.941406 563.714844 889.367188 562.515625 890.339844 562.066406 C 891.015625 561.765625 891.613281 561.691406 892.289062 561.617188 C 892.890625 561.617188 893.488281 561.617188 894.238281 561.839844 C 895.214844 562.214844 896.710938 563.117188 897.460938 564.089844 C 898.210938 565.066406 898.585938 566.714844 898.660156 567.761719 C 898.738281 568.511719 898.660156 569.039062 898.363281 569.710938 C 897.910156 570.6875 897.011719 572.113281 895.960938 572.785156 C 894.988281 573.535156 894.011719 573.6875 892.214844 573.835938 C 888.316406 574.210938 881.195312 572.636719 872.875 572.410156 C 857.882812 571.960938 830.292969 573.386719 809.605469 573.535156 C 789.664062 573.761719 766.949219 573.609375 750.984375 573.460938 C 739.8125 573.3125 733.367188 573.386719 722.648438 573.011719 C 708.480469 572.484375 690.9375 571.738281 673.320312 570.238281 C 652.929688 568.511719 619.199219 562.292969 607.277344 562.816406 C 602.78125 563.039062 599.480469 562.816406 598.132812 564.765625 C 596.707031 566.714844 599.78125 572.1875 599.332031 574.511719 C 599.109375 575.933594 598.359375 576.835938 597.609375 577.734375 C 596.785156 578.632812 595.585938 579.382812 594.460938 579.757812 C 593.335938 580.207031 591.984375 580.28125 590.785156 580.132812 C 589.585938 579.984375 588.386719 579.53125 587.339844 578.707031 C 586.140625 577.734375 584.339844 574.136719 584.339844 574.136719 " clip-rule="nonzero"/></clipPath><clipPath id="f2490bbe78"><path d="M 842.113281 563.75 L 947.398438 563.75 L 947.398438 575.859375 L 842.113281 575.859375 Z M 842.113281 563.75 " clip-rule="nonzero"/></clipPath><clipPath id="391a5ea005"><path d="M 848.511719 565.8125 C 930.597656 565.140625 938.765625 563.039062 942.738281 564.089844 C 944.464844 564.539062 945.289062 565.289062 946.039062 566.339844 C 946.789062 567.3125 947.238281 569.039062 947.3125 570.085938 C 947.386719 570.835938 947.3125 571.363281 947.011719 572.035156 C 946.636719 573.085938 945.664062 574.511719 944.613281 575.261719 C 943.640625 575.933594 941.914062 576.308594 940.789062 576.308594 C 940.042969 576.382812 939.515625 576.234375 938.839844 575.933594 C 937.867188 575.484375 936.441406 574.433594 935.769531 573.386719 C 935.167969 572.261719 934.867188 570.535156 934.945312 569.488281 C 934.945312 568.738281 935.09375 568.214844 935.46875 567.539062 C 935.917969 566.640625 937.042969 565.214844 938.167969 564.613281 C 939.292969 564.015625 940.867188 563.789062 942.066406 563.941406 C 943.339844 564.164062 944.765625 564.914062 945.589844 565.8125 C 946.488281 566.714844 947.164062 568.136719 947.3125 569.414062 C 947.460938 570.613281 946.9375 572.335938 946.488281 573.3125 C 946.113281 573.984375 945.8125 574.359375 945.214844 574.808594 C 944.3125 575.484375 943.265625 575.933594 941.464844 576.308594 C 937.492188 577.207031 930.222656 576.984375 921.375 577.285156 C 904.507812 577.882812 856.683594 581.558594 847.460938 579.082031 C 845.136719 578.410156 844.3125 577.734375 843.414062 576.535156 C 842.515625 575.335938 841.988281 573.460938 842.140625 571.960938 C 842.214844 570.460938 843.039062 568.664062 844.164062 567.6875 C 845.210938 566.640625 848.511719 565.8125 848.511719 565.8125 " clip-rule="nonzero"/></clipPath><clipPath id="a7500ca6a2"><path d="M 837.492188 567.1875 L 986.402344 567.1875 L 986.402344 575.859375 L 837.492188 575.859375 Z M 837.492188 567.1875 " clip-rule="nonzero"/></clipPath><clipPath id="3b7e43972f"><path d="M 844.988281 567.238281 C 860.953125 569.039062 868.75 569.1875 879.996094 569.488281 C 902.410156 570.164062 969.5 569.1875 980.222656 571.0625 C 982.394531 571.4375 982.996094 571.585938 983.96875 572.335938 C 984.945312 573.085938 985.769531 574.660156 986.144531 575.632812 C 986.367188 576.308594 986.445312 576.910156 986.292969 577.582031 C 986.144531 578.632812 985.617188 580.28125 984.792969 581.257812 C 984.042969 582.230469 982.46875 582.980469 981.421875 583.28125 C 980.746094 583.429688 980.148438 583.503906 979.472656 583.355469 C 978.421875 583.132812 976.699219 582.304688 975.875 581.632812 C 975.273438 581.183594 974.972656 580.730469 974.675781 580.058594 C 974.300781 579.082031 974 577.207031 974.074219 576.160156 C 974.148438 575.410156 974.375 574.886719 974.75 574.285156 C 975.347656 573.386719 976.546875 572.113281 977.671875 571.585938 C 978.796875 571.0625 980.371094 570.910156 981.570312 571.210938 C 982.769531 571.511719 984.121094 572.335938 984.945312 573.3125 C 985.695312 574.210938 986.292969 575.710938 986.292969 576.984375 C 986.367188 578.183594 985.769531 579.832031 985.242188 580.730469 C 984.871094 581.40625 984.496094 581.78125 983.820312 582.15625 C 982.921875 582.757812 982.171875 583.054688 980.070312 583.355469 C 972.277344 584.554688 940.789062 582.15625 921.375 582.007812 C 902.109375 581.78125 875.871094 582.53125 864.101562 582.230469 C 858.78125 582.082031 856.53125 582.082031 852.632812 581.558594 C 848.585938 581.03125 842.664062 580.582031 840.265625 578.933594 C 838.765625 577.957031 838.015625 576.382812 837.714844 575.109375 C 837.417969 574.058594 837.417969 573.011719 837.714844 571.960938 C 838.164062 570.6875 839.214844 569.039062 840.488281 568.214844 C 841.6875 567.464844 844.988281 567.238281 844.988281 567.238281 " clip-rule="nonzero"/></clipPath><clipPath id="651fb945e9"><path d="M 939.019531 566.871094 L 1024 566.871094 L 1024 575.859375 L 939.019531 575.859375 Z M 939.019531 566.871094 " clip-rule="nonzero"/></clipPath><clipPath id="4369178a98"><path d="M 946.714844 566.9375 C 1028.871094 575.183594 1031.273438 575.035156 1035.542969 574.808594 C 1039.96875 574.585938 1046.039062 572.785156 1048.964844 573.386719 C 1050.539062 573.761719 1051.585938 574.511719 1052.410156 575.484375 C 1053.234375 576.460938 1053.835938 577.957031 1053.910156 579.234375 C 1054.058594 580.433594 1053.609375 582.007812 1052.859375 583.054688 C 1052.1875 584.179688 1050.6875 585.078125 1049.710938 585.53125 C 1049.039062 585.828125 1048.4375 585.980469 1047.6875 585.90625 C 1046.640625 585.828125 1044.914062 585.378906 1043.867188 584.628906 C 1042.816406 583.878906 1041.992188 582.304688 1041.617188 581.332031 C 1041.316406 580.582031 1041.316406 579.984375 1041.316406 579.308594 C 1041.390625 578.632812 1041.464844 577.957031 1041.765625 577.285156 C 1042.214844 576.308594 1043.265625 574.886719 1044.316406 574.210938 C 1045.441406 573.535156 1047.015625 573.160156 1048.289062 573.3125 C 1049.5625 573.460938 1051.136719 574.285156 1051.960938 574.960938 C 1052.5625 575.484375 1052.859375 575.859375 1053.234375 576.609375 C 1053.609375 577.582031 1054.058594 579.308594 1053.910156 580.582031 C 1053.6875 581.78125 1052.9375 583.28125 1052.035156 584.105469 C 1051.136719 585.003906 1050.238281 585.378906 1048.363281 585.828125 C 1043.640625 587.027344 1033.070312 587.105469 1021.976562 586.804688 C 1003.011719 586.355469 954.660156 583.207031 944.988281 580.355469 C 942.589844 579.683594 941.765625 579.082031 940.789062 578.109375 C 939.964844 577.359375 939.515625 576.308594 939.292969 575.261719 C 939.066406 574.210938 938.992188 573.085938 939.292969 572.035156 C 939.742188 570.6875 940.789062 568.960938 942.066406 568.0625 C 943.265625 567.238281 946.714844 566.9375 946.714844 566.9375 " clip-rule="nonzero"/></clipPath><clipPath id="9d6eb7bcf0"><path d="M 874.300781 542.585938 L 1024 542.585938 L 1024 573.390625 L 874.300781 573.390625 Z M 874.300781 542.585938 " clip-rule="nonzero"/></clipPath><clipPath id="cbb97320b8"><path d="M 880.746094 560.191406 C 963.355469 560.34375 968.003906 559.890625 978.648438 558.992188 C 995.214844 557.492188 1028.574219 553.820312 1042.292969 551.722656 C 1048.8125 550.671875 1052.410156 549.921875 1056.835938 548.871094 C 1060.507812 548.046875 1064.105469 547.222656 1066.878906 546.175781 C 1068.976562 545.347656 1070.703125 544 1072.203125 543.550781 C 1073.324219 543.25 1074.152344 543.027344 1075.199219 543.25 C 1076.398438 543.550781 1078.125 544.375 1079.023438 545.425781 C 1079.847656 546.472656 1080.371094 548.273438 1080.449219 549.546875 C 1080.449219 550.597656 1080.222656 551.496094 1079.699219 552.394531 C 1078.949219 553.445312 1077.75 554.644531 1076.324219 555.167969 C 1074.375 555.917969 1072.203125 555.019531 1068.601562 555.246094 C 1059.53125 555.769531 1038.617188 559.441406 1021.300781 561.015625 C 1000.613281 562.890625 960.132812 566.5625 952.558594 565.066406 C 950.984375 564.765625 950.609375 564.464844 949.863281 563.714844 C 948.960938 562.816406 947.914062 561.089844 947.6875 559.816406 C 947.460938 558.769531 947.539062 557.792969 947.988281 556.820312 C 948.4375 555.621094 949.785156 554.046875 950.835938 553.371094 C 951.734375 552.847656 952.410156 552.621094 953.757812 552.546875 C 956.757812 552.472656 963.355469 554.644531 968.300781 555.394531 C 973.25 556.070312 976.921875 556.519531 983.371094 556.96875 C 994.914062 557.644531 1025.5 557.042969 1031.871094 557.941406 C 1033.445312 558.167969 1033.894531 558.167969 1034.71875 558.691406 C 1035.621094 559.144531 1036.445312 559.742188 1036.96875 560.640625 C 1037.644531 561.765625 1038.167969 563.640625 1038.019531 564.988281 C 1037.792969 566.339844 1036.820312 567.988281 1035.917969 568.886719 C 1035.167969 569.636719 1034.644531 569.863281 1033.21875 570.238281 C 1028.199219 571.511719 1004.285156 575.261719 997.988281 571.4375 C 994.164062 569.113281 991.542969 561.167969 992.441406 559.890625 C 993.039062 559.066406 996.414062 560.042969 997.613281 560.566406 C 998.363281 560.941406 998.8125 561.242188 999.335938 561.917969 C 1000.085938 562.816406 1000.988281 564.539062 1001.136719 565.890625 C 1001.285156 567.238281 1000.910156 568.960938 1000.160156 570.085938 C 999.488281 571.285156 997.914062 572.410156 996.863281 572.859375 C 996.113281 573.234375 995.515625 573.386719 994.691406 573.386719 C 993.566406 573.3125 991.691406 572.9375 990.566406 572.1875 C 989.367188 571.363281 988.394531 569.789062 987.941406 568.664062 C 987.566406 567.914062 987.492188 567.386719 987.566406 566.488281 C 987.71875 565.363281 988.167969 563.492188 988.992188 562.441406 C 989.816406 561.316406 991.242188 560.34375 992.589844 559.96875 C 993.941406 559.667969 995.664062 559.742188 996.9375 560.265625 C 998.210938 560.792969 999.5625 562.140625 1000.238281 563.117188 C 1000.6875 563.789062 1000.910156 564.464844 1001.0625 565.140625 C 1001.210938 565.8125 1001.285156 566.488281 1001.136719 567.3125 C 1000.910156 568.511719 1000.238281 570.3125 999.261719 571.285156 C 998.363281 572.261719 996.9375 573.085938 995.4375 573.3125 C 993.640625 573.535156 990.941406 573.3125 989.367188 572.035156 C 987.34375 570.535156 984.34375 565.890625 985.167969 563.714844 C 986.070312 561.089844 993.117188 559.292969 997.089844 558.316406 C 1000.835938 557.417969 1003.761719 557.792969 1008.183594 557.644531 C 1014.929688 557.570312 1028.871094 556.667969 1033.371094 558.09375 C 1035.246094 558.769531 1036.21875 559.515625 1036.96875 560.640625 C 1037.71875 561.839844 1038.167969 563.640625 1038.019531 564.988281 C 1037.792969 566.339844 1036.894531 567.988281 1035.917969 568.886719 C 1034.871094 569.789062 1033.894531 570.011719 1031.722656 570.386719 C 1024.375 571.660156 994.238281 569.9375 982.246094 569.335938 C 975.347656 568.960938 971.074219 568.8125 965.902344 567.988281 C 961.253906 567.3125 955.332031 566.039062 952.558594 565.066406 C 951.285156 564.613281 950.609375 564.316406 949.863281 563.714844 C 949.113281 563.117188 948.4375 562.214844 948.0625 561.316406 C 947.6875 560.417969 947.460938 559.367188 947.613281 558.316406 C 947.835938 557.042969 948.738281 555.246094 949.636719 554.269531 C 950.3125 553.519531 951.210938 553.144531 952.261719 552.769531 C 953.460938 552.320312 954.359375 552.246094 956.609375 551.945312 C 963.730469 551.046875 985.695312 551.046875 1001.585938 549.773438 C 1019.726562 548.199219 1046.488281 543.476562 1059.683594 542.875 C 1066.503906 542.574219 1071.828125 542.351562 1075.199219 543.25 C 1077 543.773438 1078.125 544.375 1079.023438 545.425781 C 1079.847656 546.472656 1080.449219 548.199219 1080.449219 549.546875 C 1080.449219 550.898438 1079.921875 552.394531 1078.796875 553.59375 C 1077.074219 555.320312 1073.625 556.367188 1069.726562 557.644531 C 1063.355469 559.742188 1054.285156 561.390625 1043.566406 563.117188 C 1027 565.890625 996.339844 569.335938 979.546875 570.835938 C 968.601562 571.886719 963.65625 572.113281 952.484375 572.484375 C 934.269531 573.085938 888.765625 573.835938 880.746094 572.9375 C 879.097656 572.710938 878.644531 572.636719 877.820312 572.1875 C 876.921875 571.738281 876.023438 571.0625 875.496094 570.164062 C 874.824219 569.039062 874.296875 567.164062 874.449219 565.8125 C 874.597656 564.390625 875.496094 562.742188 876.546875 561.839844 C 877.597656 560.867188 880.746094 560.191406 880.746094 560.191406 " clip-rule="nonzero"/></clipPath><clipPath id="9b1d172cec"><path d="M 974.894531 564.085938 L 1024 564.085938 L 1024 575.859375 L 974.894531 575.859375 Z M 974.894531 564.085938 " clip-rule="nonzero"/></clipPath><clipPath id="adda517199"><path d="M 981.046875 566.039062 C 1115.605469 565.214844 1125.425781 564.089844 1129.023438 564.164062 C 1130.074219 564.164062 1130.296875 564.164062 1130.972656 564.390625 C 1131.949219 564.765625 1133.371094 565.589844 1134.121094 566.5625 C 1134.796875 567.539062 1135.171875 569.113281 1135.246094 570.164062 C 1135.320312 570.910156 1135.246094 571.363281 1134.945312 572.035156 C 1134.570312 573.011719 1133.597656 574.433594 1132.621094 575.035156 C 1131.648438 575.710938 1130 576.007812 1128.949219 576.085938 C 1128.199219 576.085938 1127.75 575.933594 1127.074219 575.632812 C 1126.175781 575.183594 1124.824219 574.210938 1124.226562 573.160156 C 1123.625 572.113281 1123.25 570.613281 1123.402344 569.414062 C 1123.550781 568.214844 1124.226562 566.863281 1125.050781 565.964844 C 1125.875 565.140625 1127.375 564.464844 1128.425781 564.238281 C 1129.097656 564.089844 1129.625 564.089844 1130.296875 564.238281 C 1131.347656 564.464844 1132.847656 565.140625 1133.671875 566.039062 C 1134.496094 566.9375 1135.097656 568.511719 1135.246094 569.488281 C 1135.394531 570.238281 1135.320312 570.761719 1135.097656 571.4375 C 1134.796875 572.410156 1134.046875 573.910156 1133.148438 574.660156 C 1132.246094 575.484375 1131.347656 575.710938 1129.625 576.085938 C 1125.050781 577.058594 1115.15625 576.835938 1104.136719 577.132812 C 1083.746094 577.582031 1039.667969 577.058594 1017.105469 577.582031 C 1002.636719 577.882812 987.71875 579.757812 981.644531 578.933594 C 979.472656 578.632812 978.421875 578.410156 977.296875 577.507812 C 976.171875 576.609375 975.273438 574.960938 974.972656 573.535156 C 974.75 572.113281 975.273438 570.238281 975.875 569.039062 C 976.398438 568.136719 977.222656 567.386719 978.121094 566.9375 C 978.945312 566.414062 981.046875 566.039062 981.046875 566.039062 " clip-rule="nonzero"/></clipPath><clipPath id="e997efe6fb"><path d="M 954.882812 555.652344 L 1024 555.652344 L 1024 575.859375 L 954.882812 575.859375 Z M 954.882812 555.652344 " clip-rule="nonzero"/></clipPath><clipPath id="1c2ed4b13e"><path d="M 963.953125 555.695312 C 1005.558594 561.917969 1015.453125 561.015625 1021.828125 561.542969 C 1025.800781 561.839844 1029.246094 561.992188 1031.421875 562.890625 C 1032.769531 563.414062 1033.59375 563.941406 1034.34375 564.988281 C 1035.320312 566.1875 1036.21875 568.289062 1036.21875 569.9375 C 1036.21875 571.585938 1035.394531 573.6875 1034.269531 574.960938 C 1033.21875 576.160156 1031.347656 576.910156 1029.546875 577.359375 C 1027.597656 577.882812 1024.976562 577.957031 1023.027344 577.660156 C 1021.300781 577.433594 1019.652344 577.132812 1018.378906 576.234375 C 1017.179688 575.410156 1015.980469 573.835938 1015.53125 572.335938 C 1015.078125 570.910156 1015.304688 568.738281 1015.679688 567.539062 C 1015.902344 566.640625 1016.277344 566.039062 1016.878906 565.363281 C 1017.777344 564.464844 1019.726562 563.191406 1020.925781 562.816406 C 1021.828125 562.515625 1022.574219 562.515625 1023.402344 562.589844 C 1024.226562 562.664062 1024.976562 562.742188 1025.800781 563.191406 C 1026.921875 563.789062 1028.648438 565.066406 1029.398438 566.414062 C 1030.148438 567.6875 1030.523438 569.636719 1030.296875 571.136719 C 1030.070312 572.636719 1028.949219 574.433594 1028.125 575.484375 C 1027.523438 576.160156 1027 576.535156 1026.175781 576.910156 C 1024.976562 577.359375 1022.875 577.808594 1021.375 577.507812 C 1019.878906 577.285156 1018.152344 576.308594 1017.179688 575.183594 C 1016.128906 574.058594 1015.378906 572.261719 1015.230469 570.761719 C 1015.15625 569.1875 1015.605469 567.3125 1016.429688 566.039062 C 1017.253906 564.765625 1018.527344 563.640625 1020.175781 563.039062 C 1022.5 562.140625 1027.375 562.066406 1029.699219 562.441406 C 1031.121094 562.664062 1032.097656 563.117188 1033.070312 563.789062 C 1033.96875 564.390625 1034.871094 565.289062 1035.394531 566.488281 C 1035.996094 567.839844 1036.371094 570.164062 1035.996094 571.738281 C 1035.621094 573.386719 1034.269531 575.183594 1032.921875 576.085938 C 1031.570312 577.058594 1029.546875 577.285156 1027.75 577.359375 C 1025.800781 577.433594 1024.449219 576.535156 1021.75 576.308594 C 1016.128906 575.785156 1004.882812 576.984375 995.515625 576.160156 C 984.71875 575.261719 966.804688 572.636719 960.882812 570.3125 C 958.558594 569.414062 957.359375 568.589844 956.382812 567.464844 C 955.558594 566.488281 955.183594 565.289062 955.035156 564.164062 C 954.882812 562.964844 954.882812 561.765625 955.332031 560.566406 C 955.933594 559.144531 957.28125 557.34375 958.707031 556.519531 C 960.207031 555.695312 963.953125 555.695312 963.953125 555.695312 " clip-rule="nonzero"/></clipPath><clipPath id="48d9f631e9"><path d="M 391.660156 568.789062 L 667.605469 568.789062 L 667.605469 575.859375 L 391.660156 575.859375 Z M 391.660156 568.789062 " clip-rule="nonzero"/></clipPath><clipPath id="d71c84ad30"><path d="M 398.582031 568.8125 C 459.902344 578.183594 510.199219 588.753906 536.511719 593.175781 C 553.003906 595.949219 560.953125 597.300781 576.917969 599.171875 C 600.007812 601.796875 654.957031 604.796875 662.152344 605.917969 C 663.203125 606.070312 663.277344 605.996094 663.949219 606.371094 C 664.777344 606.746094 666.050781 607.71875 666.648438 608.695312 C 667.175781 609.667969 667.398438 611.316406 667.324219 612.214844 C 667.324219 612.964844 667.175781 613.417969 666.800781 614.015625 C 666.351562 614.839844 665.300781 616.039062 664.324219 616.566406 C 663.277344 617.089844 661.703125 617.238281 660.726562 617.089844 C 660.054688 617.015625 659.601562 616.863281 659.003906 616.488281 C 658.179688 615.964844 657.054688 614.839844 656.605469 613.867188 C 656.078125 612.816406 656.078125 611.167969 656.230469 610.269531 C 656.378906 609.59375 656.53125 609.144531 656.980469 608.542969 C 657.503906 607.792969 658.703125 606.667969 659.753906 606.292969 C 660.800781 605.84375 662.226562 605.769531 663.351562 606.144531 C 664.476562 606.445312 665.601562 607.269531 666.273438 608.242188 C 666.949219 609.144531 667.398438 610.492188 667.398438 611.617188 C 667.398438 612.816406 666.722656 614.242188 666.199219 615.066406 C 665.824219 615.589844 665.449219 615.964844 664.851562 616.265625 C 663.949219 616.714844 663.277344 617.015625 661.328125 617.164062 C 651.730469 617.988281 598.65625 613.042969 575.269531 610.417969 C 559.078125 608.617188 551.054688 607.195312 534.414062 604.421875 C 508.101562 600.074219 458.101562 589.652344 432.839844 585.605469 C 417.921875 583.28125 402.777344 582.757812 397.007812 580.882812 C 394.980469 580.28125 394.007812 579.90625 393.183594 578.859375 C 392.285156 577.882812 391.609375 576.160156 391.683594 574.808594 C 391.683594 573.460938 392.433594 571.738281 393.257812 570.761719 C 393.859375 569.9375 394.757812 569.414062 395.65625 569.113281 C 396.554688 568.8125 398.582031 568.8125 398.582031 568.8125 " clip-rule="nonzero"/></clipPath><clipPath id="4b6891f9f0"><path d="M 545 552.917969 L 610.214844 552.917969 L 610.214844 575.859375 L 545 575.859375 Z M 545 552.917969 " clip-rule="nonzero"/></clipPath><clipPath id="322b0d4849"><path d="M 603.53125 568.214844 C 588.988281 570.011719 585.464844 570.988281 582.015625 572.261719 C 578.417969 573.609375 574.667969 575.410156 571.519531 577.207031 C 568.746094 578.707031 566.125 580.132812 564.101562 582.15625 C 562.152344 583.957031 560.125 588.828125 559.378906 588.601562 C 558.703125 588.378906 558.703125 583.207031 559.003906 583.132812 C 559.226562 583.054688 559.976562 584.40625 560.203125 585.304688 C 560.5 586.578125 560.726562 588.753906 560.277344 590.253906 C 559.75 591.75 558.328125 593.402344 557.277344 594.300781 C 556.527344 594.898438 555.929688 595.125 555.027344 595.351562 C 553.679688 595.648438 551.28125 595.5 550.007812 595.125 C 549.105469 594.898438 548.507812 594.527344 547.832031 593.851562 C 546.933594 592.949219 545.582031 591.152344 545.285156 589.652344 C 544.910156 588.078125 545.132812 586.128906 545.734375 584.707031 C 546.410156 583.28125 547.757812 581.78125 549.105469 581.03125 C 550.53125 580.28125 552.707031 580.058594 554.054688 580.207031 C 554.953125 580.28125 555.703125 580.582031 556.378906 580.957031 C 557.128906 581.332031 557.804688 581.707031 558.402344 582.457031 C 559.300781 583.503906 560.351562 585.378906 560.578125 586.953125 C 560.726562 588.527344 560.351562 590.476562 559.527344 591.828125 C 558.777344 593.175781 556.976562 594.449219 555.777344 595.050781 C 554.953125 595.5 554.203125 595.574219 553.304688 595.648438 C 552.480469 595.726562 551.730469 595.726562 550.832031 595.425781 C 549.558594 594.976562 547.53125 594.226562 546.707031 592.652344 C 545.285156 589.953125 545.582031 582.53125 547.15625 578.632812 C 548.507812 575.109375 551.804688 572.5625 554.804688 570.011719 C 557.878906 567.386719 561.699219 565.363281 565.375 563.414062 C 569.195312 561.390625 573.246094 559.441406 577.441406 558.019531 C 581.714844 556.519531 586.363281 555.46875 590.710938 554.644531 C 594.984375 553.894531 600.308594 552.546875 603.457031 553.070312 C 605.480469 553.445312 607.128906 554.34375 608.253906 555.621094 C 609.300781 556.820312 610.128906 558.917969 610.128906 560.640625 C 610.128906 562.292969 609.378906 564.390625 608.253906 565.664062 C 607.128906 566.9375 603.53125 568.214844 603.53125 568.214844 " clip-rule="nonzero"/></clipPath><clipPath id="011a4d5aee"><path d="M 564.175781 561.4375 L 602.933594 561.4375 L 602.933594 575.859375 L 564.175781 575.859375 Z M 564.175781 561.4375 " clip-rule="nonzero"/></clipPath><clipPath id="1a69d04615"><path d="M 598.433594 575.859375 C 570.097656 588.453125 568.824219 587.855469 567.546875 586.953125 C 566.273438 586.128906 565.148438 584.332031 564.625 583.132812 C 564.324219 582.304688 564.175781 581.707031 564.25 580.730469 C 564.398438 579.457031 564.847656 577.433594 565.824219 576.234375 C 566.722656 575.035156 568.296875 573.910156 569.796875 573.535156 C 571.222656 573.160156 573.320312 573.386719 574.59375 573.761719 C 575.417969 574.058594 576.019531 574.433594 576.617188 575.035156 C 577.59375 575.933594 578.792969 577.660156 579.09375 579.15625 C 579.46875 580.65625 579.242188 582.53125 578.566406 583.957031 C 577.96875 585.304688 576.394531 586.730469 575.269531 587.402344 C 574.519531 587.929688 573.917969 588.078125 573.019531 588.152344 C 571.671875 588.304688 569.570312 588.078125 568.222656 587.402344 C 566.949219 586.730469 565.597656 585.304688 564.925781 583.957031 C 564.324219 582.53125 564.101562 580.65625 564.472656 579.15625 C 564.773438 577.660156 565.597656 576.382812 566.949219 575.035156 C 568.898438 573.085938 572.496094 571.285156 576.09375 569.414062 C 580.667969 566.9375 588.460938 562.964844 592.511719 561.992188 C 594.683594 561.464844 596.332031 561.390625 597.832031 561.765625 C 599.03125 562.140625 600.082031 562.890625 600.832031 563.714844 C 601.65625 564.539062 602.40625 565.589844 602.707031 566.789062 C 603.003906 568.289062 602.929688 570.613281 602.257812 572.113281 C 601.582031 573.609375 598.433594 575.859375 598.433594 575.859375 " clip-rule="nonzero"/></clipPath><clipPath id="64c9772548"><path d="M 784.449219 528.363281 L 1024 528.363281 L 1024 575.859375 L 784.449219 575.859375 Z M 784.449219 528.363281 " clip-rule="nonzero"/></clipPath><clipPath id="1aa23838d0"><path d="M 790.414062 563.789062 C 810.503906 562.140625 823.171875 559.144531 837.117188 557.644531 C 857.207031 555.394531 888.089844 554.792969 911.179688 552.847656 C 931.644531 551.121094 954.058594 549.023438 968.753906 546.699219 C 978.121094 545.273438 983.296875 544 991.464844 542.050781 C 1001.210938 539.652344 1015.078125 535.605469 1023.175781 532.980469 C 1028.347656 531.332031 1033.371094 528.632812 1035.695312 528.40625 C 1036.667969 528.332031 1036.96875 528.40625 1037.71875 528.707031 C 1038.691406 529.15625 1040.191406 530.058594 1040.867188 531.03125 C 1041.617188 532.082031 1042.066406 533.582031 1041.992188 534.855469 C 1041.917969 536.128906 1041.390625 537.554688 1040.566406 538.527344 C 1039.742188 539.503906 1038.46875 540.328125 1037.195312 540.625 C 1035.996094 540.925781 1034.421875 540.777344 1033.296875 540.25 C 1032.171875 539.726562 1030.972656 538.453125 1030.371094 537.554688 C 1029.996094 536.953125 1029.773438 536.429688 1029.699219 535.679688 C 1029.621094 534.628906 1029.773438 532.90625 1030.296875 531.78125 C 1030.898438 530.65625 1032.019531 529.605469 1033.144531 529.007812 C 1034.269531 528.484375 1035.996094 528.40625 1037.042969 528.558594 C 1037.792969 528.632812 1038.316406 528.859375 1038.917969 529.230469 C 1039.816406 529.90625 1041.015625 531.332031 1041.542969 532.230469 C 1041.839844 532.90625 1041.992188 533.429688 1041.992188 534.179688 C 1041.992188 535.230469 1041.691406 536.953125 1040.941406 538.003906 C 1040.265625 539.050781 1039.667969 539.503906 1037.867188 540.402344 C 1031.796875 543.550781 1006.308594 550.148438 993.789062 553.21875 C 984.792969 555.46875 979.847656 556.59375 970.175781 558.167969 C 955.109375 560.492188 932.542969 562.664062 912.078125 564.539062 C 889.214844 566.640625 859.457031 567.613281 839.367188 569.9375 C 825.046875 571.585938 811.554688 574.808594 802.707031 575.785156 C 797.761719 576.308594 794.011719 576.757812 791.164062 576.382812 C 789.363281 576.160156 787.941406 575.785156 786.890625 575.035156 C 785.992188 574.433594 785.390625 573.609375 785.015625 572.710938 C 784.640625 571.8125 784.34375 570.761719 784.492188 569.710938 C 784.640625 568.4375 785.316406 566.640625 786.292969 565.664062 C 787.339844 564.691406 790.414062 563.789062 790.414062 563.789062 " clip-rule="nonzero"/></clipPath><clipPath id="62f7133755"><path d="M 1010.015625 545.457031 L 1024 545.457031 L 1024 561.285156 L 1010.015625 561.285156 Z M 1010.015625 545.457031 " clip-rule="nonzero"/></clipPath><clipPath id="e587847620"><path d="M 1016.878906 545.5 C 1103.160156 547.523438 1103.835938 547.75 1104.8125 548.496094 C 1105.859375 549.324219 1106.683594 550.898438 1107.058594 551.871094 C 1107.359375 552.621094 1107.359375 553.296875 1107.285156 553.96875 C 1107.210938 554.644531 1107.132812 555.246094 1106.835938 555.996094 C 1106.308594 556.96875 1105.261719 558.394531 1104.136719 559.066406 C 1103.011719 559.667969 1101.4375 560.042969 1100.164062 559.890625 C 1098.886719 559.742188 1097.3125 558.84375 1096.488281 558.09375 C 1095.890625 557.644531 1095.515625 557.195312 1095.214844 556.445312 C 1094.839844 555.46875 1094.390625 553.671875 1094.617188 552.472656 C 1094.839844 551.195312 1095.816406 549.699219 1096.566406 548.871094 C 1097.089844 548.273438 1097.539062 547.972656 1098.289062 547.75 C 1099.339844 547.375 1101.136719 547.074219 1102.335938 547.296875 C 1103.613281 547.597656 1105.035156 548.496094 1105.859375 549.472656 C 1106.683594 550.445312 1107.210938 552.019531 1107.285156 553.296875 C 1107.359375 554.570312 1106.683594 556.21875 1106.160156 557.195312 C 1105.785156 557.867188 1105.410156 558.242188 1104.734375 558.691406 C 1103.761719 559.21875 1103.011719 559.59375 1100.835938 559.890625 C 1090.867188 561.464844 1025.273438 562.214844 1015.230469 558.992188 C 1012.832031 558.242188 1012.082031 557.492188 1011.257812 556.21875 C 1010.355469 555.019531 1009.90625 553.070312 1010.058594 551.570312 C 1010.28125 549.996094 1011.179688 548.199219 1012.304688 547.222656 C 1013.429688 546.25 1016.878906 545.5 1016.878906 545.5 " clip-rule="nonzero"/></clipPath></defs><g clip-path="url(#2d217e14f0)"><g clip-path="url(#1c57b1d9d4)"><path fill="#75adc9" d="M 179.835938 349.085938 L 547.917969 349.085938 L 547.917969 393.914062 L 179.835938 393.914062 Z M 179.835938 349.085938 " fill-opacity="1" fill-rule="nonzero"/></g></g><g clip-path="url(#2f5f569d65)"><g clip-path="url(#2d9b4986f2)"><path fill="#fffef6" d="M 17.167969 560.492188 L 100.914062 560.492188 L 100.914062 584.855469 L 17.167969 584.855469 Z M 17.167969 560.492188 " fill-opacity="1" fill-rule="nonzero"/></g></g><g clip-path="url(#9a4a65fa72)"><g clip-path="url(#506ad73e59)"><path fill="#fffef6" d="M 8.695312 552.695312 L 74.113281 552.695312 L 74.113281 574.359375 L 8.695312 574.359375 Z M 8.695312 552.695312 " fill-opacity="1" fill-rule="nonzero"/></g></g><g clip-path="url(#edee0bdc0f)"><g clip-path="url(#0a81996013)"><path fill="#fffef6" d="M -3.296875 553.894531 L 54.226562 553.894531 L 54.226562 577.957031 L -3.296875 577.957031 Z M -3.296875 553.894531 " fill-opacity="1" fill-rule="nonzero"/></g></g><g clip-path="url(#eb98687b84)"><g clip-path="url(#8790d745bd)"><path fill="#fffef6" d="M -32.609375 557.492188 L 38.695312 557.492188 L 38.695312 580.28125 L -32.609375 580.28125 Z M -32.609375 557.492188 " fill-opacity="1" fill-rule="nonzero"/></g></g><g clip-path="url(#b4c776844b)"><g clip-path="url(#bdaea116c9)"><path fill="#fffef6" d="M -24.363281 558.542969 L 37.667969 558.542969 L 37.667969 580.207031 L -24.363281 580.207031 Z M -24.363281 558.542969 " fill-opacity="1" fill-rule="nonzero"/></g></g><g clip-path="url(#27c57ec1d3)"><g clip-path="url(#80da1ab944)"><path fill="#fffef6" d="M 35.457031 552.921875 L 179.835938 552.921875 L 179.835938 576.984375 L 35.457031 576.984375 Z M 35.457031 552.921875 " fill-opacity="1" fill-rule="nonzero"/></g></g><g clip-path="url(#c795f592ae)"><g clip-path="url(#046e27bc8f)"><path fill="#fffef6" d="M 70.992188 559.292969 L 209.398438 559.292969 L 209.398438 584.105469 L 70.992188 584.105469 Z M 70.992188 559.292969 " fill-opacity="1" fill-rule="nonzero"/></g></g><g clip-path="url(#f930ac3c07)"><g clip-path="url(#665d6b0d2e)"><path fill="#fffef6" d="M 90.105469 553.59375 L 280.1875 553.59375 L 280.1875 592.277344 L 90.105469 592.277344 Z M 90.105469 553.59375 " fill-opacity="1" fill-rule="nonzero"/></g></g><g clip-path="url(#14b935e1ec)"><g clip-path="url(#adedfaa3eb)"><path fill="#fffef6" d="M 170.390625 561.691406 L 311.195312 561.691406 L 311.195312 588.976562 L 170.390625 588.976562 Z M 170.390625 561.691406 " fill-opacity="1" fill-rule="nonzero"/></g></g><g clip-path="url(#b2e37c9efd)"><g clip-path="url(#1400d2a905)"><path fill="#fffef6" d="M 149.851562 560.042969 L 409.980469 560.042969 L 409.980469 604.796875 L 149.851562 604.796875 Z M 149.851562 560.042969 " fill-opacity="1" fill-rule="nonzero"/></g></g><g clip-path="url(#1bfa594e7c)"><g clip-path="url(#f9bc0dd7d8)"><path fill="#fffef6" d="M 265.070312 562.816406 L 402.359375 562.816406 L 402.359375 594.824219 L 265.070312 594.824219 Z M 265.070312 562.816406 " fill-opacity="1" fill-rule="nonzero"/></g></g><g clip-path="url(#c5ea857170)"><g clip-path="url(#26f45a3140)"><path fill="#fffef6" d="M 154.273438 557.417969 L 548.628906 557.417969 L 548.628906 639.429688 L 154.273438 639.429688 Z M 154.273438 557.417969 " fill-opacity="1" fill-rule="nonzero"/></g></g><g clip-path="url(#b3c7ad3868)"><g clip-path="url(#2aa2bb44dc)"><path fill="#fffef6" d="M 283.585938 558.691406 L 546.605469 558.691406 L 546.605469 591.003906 L 283.585938 591.003906 Z M 283.585938 558.691406 " fill-opacity="1" fill-rule="nonzero"/></g></g><g clip-path="url(#ea29dafe0b)"><g clip-path="url(#29c4422d25)"><path fill="#fffef6" d="M 6.746094 551.421875 L 300.386719 551.421875 L 300.386719 575.859375 L 6.746094 575.859375 Z M 6.746094 551.421875 " fill-opacity="1" fill-rule="nonzero"/></g></g><g clip-path="url(#f20317a4ea)"><g clip-path="url(#aec5ab0137)"><path fill="#fffef6" d="M 575.269531 558.46875 L 607.089844 558.46875 L 607.089844 585.53125 L 575.269531 585.53125 Z M 575.269531 558.46875 " fill-opacity="1" fill-rule="nonzero"/></g></g><g clip-path="url(#794ffe4465)"><g clip-path="url(#9534efdf60)"><path fill="#fffef6" d="M 583.515625 549.023438 L 610.800781 549.023438 L 610.800781 585.582031 L 583.515625 585.582031 Z M 583.515625 549.023438 " fill-opacity="1" fill-rule="nonzero"/></g></g><g clip-path="url(#13b4c402d6)"><g clip-path="url(#11c004133b)"><path fill="#fffef6" d="M 583.441406 555.917969 L 610.726562 555.917969 L 610.726562 589.175781 L 583.441406 589.175781 Z M 583.441406 555.917969 " fill-opacity="1" fill-rule="nonzero"/></g></g><g clip-path="url(#71d56dc1f0)"><g clip-path="url(#5ac9760675)"><path fill="#fffef6" d="M 584.414062 560.191406 L 678.519531 560.191406 L 678.519531 591.601562 L 584.414062 591.601562 Z M 584.414062 560.191406 " fill-opacity="1" fill-rule="nonzero"/></g></g><g clip-path="url(#1cef74b14b)"><g clip-path="url(#dfb7a0c44b)"><path fill="#fffef6" d="M 594.609375 551.347656 L 932.523438 551.347656 L 932.523438 593.402344 L 594.609375 593.402344 Z M 594.609375 551.347656 " fill-opacity="1" fill-rule="nonzero"/></g></g><g clip-path="url(#c164b52eb6)"><g clip-path="url(#bf951a012a)"><path fill="#fffef6" d="M 628.566406 553.445312 L 789.351562 553.445312 L 789.351562 585.230469 L 628.566406 585.230469 Z M 628.566406 553.445312 " fill-opacity="1" fill-rule="nonzero"/></g></g><g clip-path="url(#b73ed9f6c4)"><g clip-path="url(#e5cc99680d)"><path fill="#fffef6" d="M 638.914062 559.144531 L 744.511719 559.144531 L 744.511719 586.503906 L 638.914062 586.503906 Z M 638.914062 559.144531 " fill-opacity="1" fill-rule="nonzero"/></g></g><g clip-path="url(#9b192c97e2)"><g clip-path="url(#265451ea1a)"><path fill="#fffef6" d="M 660.425781 563.941406 L 784.75 563.941406 L 784.75 590.027344 L 660.425781 590.027344 Z M 660.425781 563.941406 " fill-opacity="1" fill-rule="nonzero"/></g></g><g clip-path="url(#66992c6a9d)"><g clip-path="url(#29ac77db31)"><path fill="#fffef6" d="M 579.992188 543.699219 L 901.746094 543.699219 L 901.746094 583.207031 L 579.992188 583.207031 Z M 579.992188 543.699219 " fill-opacity="1" fill-rule="nonzero"/></g></g><g clip-path="url(#f2490bbe78)"><g clip-path="url(#391a5ea005)"><path fill="#f7f3eb" d="M 839.140625 560.941406 L 950.371094 560.941406 L 950.371094 582.082031 L 839.140625 582.082031 Z M 839.140625 560.941406 " fill-opacity="1" fill-rule="nonzero"/></g></g><g clip-path="url(#a7500ca6a2)"><g clip-path="url(#3b7e43972f)"><path fill="#f7f3eb" d="M 834.71875 564.238281 L 989.347656 564.238281 L 989.347656 586.429688 L 834.71875 586.429688 Z M 834.71875 564.238281 " fill-opacity="1" fill-rule="nonzero"/></g></g><g clip-path="url(#651fb945e9)"><g clip-path="url(#4369178a98)"><path fill="#f7f3eb" d="M 936.292969 563.941406 L 1057.019531 563.941406 L 1057.019531 589.800781 L 936.292969 589.800781 Z M 936.292969 563.941406 " fill-opacity="1" fill-rule="nonzero"/></g></g><g clip-path="url(#9d6eb7bcf0)"><g clip-path="url(#cbb97320b8)"><path fill="#f7f3eb" d="M 871.449219 539.878906 L 1083.503906 539.878906 L 1083.503906 576.382812 L 871.449219 576.382812 Z M 871.449219 539.878906 " fill-opacity="1" fill-rule="nonzero"/></g></g><g clip-path="url(#9b1d172cec)"><g clip-path="url(#adda517199)"><path fill="#f7f3eb" d="M 971.976562 561.167969 L 1138.335938 561.167969 L 1138.335938 581.929688 L 971.976562 581.929688 Z M 971.976562 561.167969 " fill-opacity="1" fill-rule="nonzero"/></g></g><g clip-path="url(#e997efe6fb)"><g clip-path="url(#1c2ed4b13e)"><path fill="#f7f3eb" d="M 952.035156 552.695312 L 1039.320312 552.695312 L 1039.320312 580.730469 L 952.035156 580.730469 Z M 952.035156 552.695312 " fill-opacity="1" fill-rule="nonzero"/></g></g><g clip-path="url(#48d9f631e9)"><g clip-path="url(#d71c84ad30)"><path fill="#f7f3eb" d="M 388.683594 565.8125 L 670.367188 565.8125 L 670.367188 620.238281 L 388.683594 620.238281 Z M 388.683594 565.8125 " fill-opacity="1" fill-rule="nonzero"/></g></g><g clip-path="url(#4b6891f9f0)"><g clip-path="url(#322b0d4849)"><path fill="#f7f3eb" d="M 542.285156 550.070312 L 613.253906 550.070312 L 613.253906 598.648438 L 542.285156 598.648438 Z M 542.285156 550.070312 " fill-opacity="1" fill-rule="nonzero"/></g></g><g clip-path="url(#011a4d5aee)"><g clip-path="url(#1a69d04615)"><path fill="#f7f3eb" d="M 561.25 558.769531 L 605.730469 558.769531 L 605.730469 591.300781 L 561.25 591.300781 Z M 561.25 558.769531 " fill-opacity="1" fill-rule="nonzero"/></g></g><g clip-path="url(#64c9772548)"><g clip-path="url(#1aa23838d0)"><path fill="#f7f3eb" d="M 781.492188 525.410156 L 1044.980469 525.410156 L 1044.980469 579.457031 L 781.492188 579.457031 Z M 781.492188 525.410156 " fill-opacity="1" fill-rule="nonzero"/></g></g><g clip-path="url(#62f7133755)"><g clip-path="url(#e587847620)"><path fill="#f7f3eb" d="M 1007.058594 542.5 L 1110.261719 542.5 L 1110.261719 562.964844 L 1007.058594 562.964844 Z M 1007.058594 542.5 " fill-opacity="1" fill-rule="nonzero"/></g></g></svg>